<?xml version="1.0" encoding="UTF-8"?>
<svg xmlns="http://www.w3.org/2000/svg" xmlns:xlink="http://www.w3.org/1999/xlink" version="1.2" >
<font id="Maleah Oblique">
<font-face  font-family="Maleah" units-per-em="1024" ascent="975" descent="-300" font-style="italic" font-weight="400" font-stretch="normal" cap-height="924" x-height="488" underline-position="-125" underline-thickness="50" />
<missing-glyph  horiz-adv-x="100" d="" />
<glyph glyph-name="NULL" d="" />
<glyph glyph-name="CR" unicode="&#xd;" horiz-adv-x="256" d="" />
<glyph glyph-name="space" unicode="&#x20;" horiz-adv-x="248" d="" />
<glyph glyph-name="exclam" unicode="&#x21;" horiz-adv-x="190" d="M259.252 660 L130.277 130 L140.277 130 L314.252 660 L259.252 660 Z M73.7349 20 C68.2867 1 80.4193 -9 95.4193 -9 C110.419 -9 128.287 1 133.735 20 C139.47 40 127.051 49 112.051 49 C97.0505 49 79.4698 40 73.7349 20 L73.7349 20 Z " />
<glyph glyph-name="quotedbl" unicode="&#x22;" horiz-adv-x="360" d="M447.192 740 L415.011 565 L425.011 565 L492.192 740 L447.192 740 Z M260.011 565 L270.011 565 L337.192 740 L292.192 740 L260.011 565 Z " />
<glyph glyph-name="numbersign" unicode="&#x23;" horiz-adv-x="498" d="M521.035 450 L642.252 660 L617.252 660 L496.035 450 L330.035 450 L451.252 660 L426.252 660 L305.035 450 L187.035 450 L180.44 427 L291.44 427 L181.959 237 L67.9587 237 L61.0768 213 L168.077 213 L45 0 L70 0 L193.077 213 L359.077 213 L236 0 L261 0 L384.077 213 L501.077 213 L507.959 237 L397.959 237 L507.44 427 L620.44 427 L627.035 450 L521.035 450 Z M206.959 237 L316.44 427 L482.44 427 L372.959 237 L206.959 237 Z " />
<glyph glyph-name="dollar" unicode="&#x24;" horiz-adv-x="490" d="M526.765 742 L507.192 740 L486.546 668 C475.119 670 462.119 670 449.119 670 C436.119 670 423.119 670 410.546 668 L431.478 741 L411.478 741 L389.686 665 C296.238 646 222.173 583 197.226 496 C173.139 412 208.375 364 295.06 335 L204.161 18 C137.316 29 105.506 75 124.431 141 L128.446 155 C127.446 155 127.019 157 127.019 157 L113.019 157 C101.019 157 91.2986 151 88.4311 141 C65.4915 61 108.434 5 197.28 -6 L176.634 -78 L196.634 -78 L216.706 -8 C241.706 -8 266.993 -7 293.427 -2 L271.347 -79 L291.347 -79 L314.86 3 C400.316 29 467.667 93 492.041 178 C511.826 247 486.318 308 412.64 344 L497.23 639 C539.929 624 558.893 589 545.989 544 L542.262 531 C542.262 531 543.688 529 544.688 529 L558.688 529 C569.688 529 579.409 535 581.989 544 C599.768 606 569.671 651 504.972 666 L526.765 742 Z M223.448 19 L313.913 331 C339.906 324 363.612 316 382.744 306 L302.742 27 C283.022 21 261.161 18 240.161 18 C234.161 18 229.448 19 223.448 19 L223.448 19 Z M403.951 645 C416.524 647 429.811 648 442.811 648 C456.811 648 469.524 647 479.951 645 L394.934 352 C374.228 360 346.949 366 326.243 374 L403.951 645 Z M383.091 642 L308.823 383 C250.566 410 228.322 451 246.387 514 C264.739 578 316.216 625 383.091 642 L383.091 642 Z M449.173 168 C431.395 106 384.631 58 324.036 35 L398.877 296 C447.414 263 463.51 218 449.173 168 L449.173 168 Z " />
<glyph glyph-name="ampersand" unicode="&#x26;" horiz-adv-x="621" d="M752.197 468 L727.197 468 C666.096 370 570.812 233 487.872 153 L337.795 355 C459.852 411 549.785 484 566.703 543 C588.495 619 541.119 670 448.119 670 C340.119 670 250.054 607 222.814 512 C204.462 448 233.845 404 281.493 340 C124.281 273 80.3635 214 60.5781 145 C33.624 51 89.8458 -11 201.846 -11 C300.846 -11 382.742 27 460.241 95 L531.427 -2 L598.427 -2 C598.427 -2 570.896 38 561.764 48 L499.85 132 C581.65 215 660.913 331 752.197 468 L752.197 468 Z M110.019 157 C128.084 220 165.568 274 289.052 328 L445.976 115 C376.631 58 302.455 26 212.455 26 C128.455 26 87.3661 78 110.019 157 L110.019 157 Z M268.534 518 C290.9 596 358.811 648 437.811 648 C507.811 648 541.194 604 522.269 538 C505.351 479 430.139 412 329.375 364 L328.375 364 C282.867 425 252.476 462 268.534 518 L268.534 518 Z " />
<glyph glyph-name="quotesingle" unicode="&#x27;" horiz-adv-x="205" d="M292.192 740 L260.011 565 L270.011 565 L337.192 740 L292.192 740 Z " />
<glyph glyph-name="parenleft" unicode="&#x28;" horiz-adv-x="206" d="M138.59 295 C74.6457 72 92.5157 -54 144.988 -150 L157.988 -150 C113.215 -69 103.198 53 172.59 295 C241.982 537 321.965 659 413.192 740 L400.192 740 C292.664 644 202.534 518 138.59 295 L138.59 295 Z " />
<glyph glyph-name="parenright" unicode="&#x29;" horiz-adv-x="206" d="M254.192 740 C298.965 659 308.982 537 239.59 295 C170.198 53 90.2146 -69 -1.01181 -150 L11.9882 -150 C119.516 -54 209.646 72 273.59 295 C337.534 518 319.664 644 267.192 740 L254.192 740 Z " />
<glyph glyph-name="plus" unicode="&#x2b;" horiz-adv-x="510" d="M316.554 260 L256.911 52 L282.911 52 L342.554 260 L544.554 260 L551.722 285 L349.722 285 L406.211 482 L380.211 482 L323.722 285 L121.722 285 L114.554 260 L316.554 260 Z " />
<glyph glyph-name="comma" unicode="&#x2c;" horiz-adv-x="205" d="M2.65092 -200 L-0.216531 -210 C68.54 -169 124.318 -107 138.656 -57 C152.706 -8 146.463 33 123.904 45 C118.764 48 115.337 50 112.337 50 C108.337 50 103.477 47 97.1831 39 L76.0144 14 L75.5807 9 L90 0 C109.133 -10 113.957 -42 102.774 -81 C90.4436 -124 50.9665 -171 2.65092 -200 L2.65092 -200 Z " />
<glyph glyph-name="hyphen" unicode="&#x2d;" horiz-adv-x="375" d="M117.385 235 L392.385 235 L402.421 270 L127.421 270 L117.385 235 Z " />
<glyph glyph-name="period" unicode="&#x2e;" horiz-adv-x="190" d="M70.7349 20 C65.2867 1 77.4193 -9 92.4193 -9 C107.419 -9 125.287 1 130.735 20 C136.47 40 124.051 49 109.051 49 C94.0505 49 76.4698 40 70.7349 20 L70.7349 20 Z " />
<glyph glyph-name="slash" unicode="&#x2f;" horiz-adv-x="225" d="M-34.4094 -120 L-9.40945 -120 L440.059 750 L415.059 750 L-34.4094 -120 Z " />
<glyph glyph-name="zero" unicode="0" horiz-adv-x="515" d="M255.133 -10 C389.133 -10 518.99 129 578.92 338 C635.982 537 584.119 670 450.119 670 C315.119 670 186.696 536 128.773 334 C69.7034 128 120.133 -10 255.133 -10 L255.133 -10 Z M181.361 350 C232.402 528 333.524 647 434.524 647 C547.524 647 586.247 517 530.332 322 C477.284 137 373.014 14 270.014 14 C159.014 14 123.438 148 181.361 350 L181.361 350 Z " />
<glyph glyph-name="one" unicode="1" horiz-adv-x="379" d="M418.481 605 L259.051 49 L247.875 17 L242.713 -1 L289 0 L294.161 18 L300.764 48 C334.026 164 420.19 461 461.481 605 L475.965 659 L465.965 659 L213.659 501 L208.498 483 L418.481 605 Z " />
<glyph glyph-name="two" unicode="2" horiz-adv-x="480" d="M183.659 501 C254.753 592 336.524 647 434.524 647 C517.524 647 555.606 588 530.373 500 C509.727 428 385.045 321 53.7277 13 L50 0 L453 0 L459.022 21 L458.022 21 C461.029 28 464.323 36 467.33 43 C449.33 43 433.043 42 416.757 41 L114.757 41 C439.067 342 565.469 455 578.659 501 C607.621 602 559.119 670 456.119 670 C322.119 670 212.621 602 183.659 501 L183.659 501 Z " />
<glyph glyph-name="three" unicode="3" horiz-adv-x="482" d="M90.5709 138 C90.5709 138 70.5636 131 67.4094 120 C45.0433 42 110.133 -10 231.133 -10 C366.133 -10 477.352 64 509.18 175 C539.862 282 487.067 342 354.508 354 C479.39 378 558.741 442 583.688 529 C607.775 613 553.833 669 448.833 669 C326.833 669 228.201 611 203.541 525 C200.674 515 218.667 508 218.667 508 L239.667 508 L244.814 512 L249.975 530 C270.047 600 343.238 646 432.238 646 C514.238 646 555.474 598 534.541 525 C507.874 432 423.522 368 291.081 356 C277.081 356 261.795 355 246.508 354 L240.199 332 C256.486 333 272.773 334 287.773 334 C432.773 334 491.289 280 460.894 174 C433.079 77 343.441 12 237.441 12 C143.441 12 93.771 55 112.123 119 L116.424 134 L113.571 138 L90.5709 138 Z " />
<glyph glyph-name="four" unicode="4" horiz-adv-x="501" d="M65.9226 202 L373.923 202 L330.337 50 L319.161 18 L314 0 L361 0 L366.161 18 L373.337 50 L416.923 202 L545.923 202 L555.385 235 L426.385 235 L548.252 660 L538.252 660 C389.821 519 241.103 377 92.6719 236 L68.79 212 L65.9226 202 Z M123.959 237 L483.459 584 L383.672 236 L123.959 237 Z " />
<glyph glyph-name="five" unicode="5" horiz-adv-x="496" d="M193.133 -10 C346.133 -10 475.947 87 517.525 232 C548.78 341 467.713 414 314.713 414 C279.713 414 244.852 411 225.419 406 L287.069 621 L578.069 621 L590.252 660 L275.252 660 L190.375 364 C214.096 370 256.243 374 296.243 374 C432.243 374 503.604 309 475.503 211 C441.667 93 339.301 15 220.301 15 C171.301 15 123.896 38 117.793 76 L112.793 76 C107.793 76 90.7782 62 90.7782 62 C81.0577 56 75.624 51 79.4698 40 C91.8675 10 137.133 -10 193.133 -10 L193.133 -10 Z " />
<glyph glyph-name="six" unicode="6" horiz-adv-x="488" d="M103.098 234 C61.2336 88 118.133 -10 246.133 -10 C371.133 -10 479.219 74 515.062 199 C547.465 312 496.257 388 387.257 388 C302.257 388 219.787 348 167.436 284 C236.19 461 403.054 607 596.818 655 L600.119 670 C359.915 610 161.021 436 103.098 234 L103.098 234 Z M151.385 235 C187.744 306 271.508 354 359.508 354 C453.508 354 496.583 288 467.908 188 C437.8 83 351.728 13 253.728 13 C154.728 13 113.961 101 151.385 235 L151.385 235 Z " />
<glyph glyph-name="seven" unicode="7" horiz-adv-x="500" d="M228.356 622 L599.356 622 C296.428 277 90.6024 30 82 0 L138 0 C156.638 65 360.192 325 646.385 650 L649.252 660 L239.252 660 L228.356 622 Z " />
<glyph glyph-name="eight" unicode="8" horiz-adv-x="482" d="M82.7251 149 C55.4843 54 117.419 -9 238.419 -9 C359.419 -9 459.778 62 490.173 168 C512.253 245 485.891 310 406.64 344 C486.375 364 550.007 422 572.946 502 C601.907 603 549.406 671 441.406 671 C331.406 671 238.481 605 209.806 505 C188.014 429 205.949 366 285.913 331 C187.178 311 109.679 243 82.7251 149 L82.7251 149 Z M300.479 326 C312.045 321 324.898 317 339.038 314 C433.73 292 467.665 229 445.872 153 C421.499 68 342.441 12 248.441 12 C153.441 12 107.646 72 133.166 161 C156.966 244 220.171 304 300.479 326 L300.479 326 Z M257.821 519 C279.9 596 348.524 647 429.524 647 C514.524 647 553.32 587 527.799 498 C506.867 425 455.383 371 390.361 350 C381.221 353 372.081 356 361.655 358 C260.537 382 235.741 442 257.821 519 L257.821 519 Z " />
<glyph glyph-name="nine" unicode="9" horiz-adv-x="487" d="M163.337 465 C130.934 352 186.142 276 302.142 276 C380.142 276 460.472 319 514.684 386 C423.248 102 268.434 5 81.4337 5 L77.1325 -10 C300.133 -10 478.954 94 574.154 426 C616.018 572 559.119 670 431.119 670 C306.119 670 202.047 600 163.337 465 L163.337 465 Z M424.524 647 C523.524 647 564.291 559 526.867 425 C485.795 355 407.604 309 330.604 309 C232.604 309 184.383 371 211.337 465 C245.746 585 327.524 647 424.524 647 L424.524 647 Z " />
<glyph glyph-name="colon" unicode="&#x3a;" horiz-adv-x="190" d="M120.915 195 C115.467 176 127.6 166 142.6 166 C157.6 166 175.467 176 180.915 195 C186.65 215 174.231 224 159.231 224 C144.231 224 126.65 215 120.915 195 L120.915 195 Z M130.735 20 C136.47 40 124.051 49 109.051 49 C94.0505 49 76.4698 40 70.7349 20 C65.2867 1 77.4193 -9 92.4193 -9 C107.419 -9 125.287 1 130.735 20 L130.735 20 Z " />
<glyph glyph-name="semicolon" unicode="&#x3b;" horiz-adv-x="205" d="M138.656 -57 C152.706 -8 146.463 33 123.904 45 C118.764 48 115.337 50 112.337 50 C108.337 50 103.477 47 97.1831 39 L76.0144 14 L75.5807 9 L90 0 C109.133 -10 113.957 -42 102.774 -81 C90.4436 -124 50.9665 -171 2.65092 -200 L-0.216531 -210 C68.54 -169 124.318 -107 138.656 -57 L138.656 -57 Z M186.915 195 C192.65 215 180.231 224 165.231 224 C150.231 224 132.65 215 126.915 195 C121.467 176 133.6 166 148.6 166 C163.6 166 181.467 176 186.915 195 L186.915 195 Z " />
<glyph glyph-name="equal" unicode="&#x3d;" horiz-adv-x="500" d="M95.9154 195 L88.7467 170 L508.747 170 L515.915 195 L95.9154 195 Z M560.074 349 L567.243 374 L147.243 374 L140.074 349 L560.074 349 Z " />
<glyph glyph-name="question" unicode="&#x3f;" horiz-adv-x="467" d="M199.218 489 L224.218 489 L231.1 513 C254.327 594 325.811 648 410.811 648 C495.811 648 535.753 592 511.38 507 C487.007 422 390.368 357 270.927 345 C252.575 281 222.277 130 222.277 130 L232.277 130 C232.277 130 268.385 235 291.031 307 C424.339 329 529.705 407 558.38 507 C586.481 605 537.119 670 434.119 670 C313.119 670 214.768 606 186.953 509 C183.512 497 188.218 489 199.218 489 L199.218 489 Z M167.169 25 C161.72 6 173.853 -4 188.853 -4 C203.853 -4 221.72 6 227.169 25 C232.904 45 220.484 54 205.484 54 C190.484 54 172.904 45 167.169 25 L167.169 25 Z " />
<glyph glyph-name="A" unicode="A" horiz-adv-x="649" d="M242.833 254 L532.833 254 L562.735 20 C563.014 14 562.007 7 561.287 1 L612.287 1 C612.287 1 615.441 12 611.875 17 L606.904 45 L522.972 666 L500.972 666 L480.944 638 C281.795 355 132.005 143 66.624 51 L41.4482 19 C37.4409 12 31.2867 1 31.2867 1 L69.2867 1 C67.2867 1 77.1614 18 78.4482 19 C133.814 97 187.467 176 242.833 254 L242.833 254 Z M485.334 601 L527.862 282 L260.862 282 C323.669 372 399.638 480 485.334 601 L485.334 601 Z " />
<glyph glyph-name="B" unicode="B" horiz-adv-x="568" d="M70.7349 20 L65.2867 1 L232.287 1 C404.287 1 539.506 75 571.621 187 C595.708 271 542.199 332 409.361 350 C511.816 376 584.874 432 605.52 504 C632.474 598 574.539 661 426.539 661 L254.539 661 L249.091 642 L241.768 606 L84.0577 56 L70.7349 20 Z M120.316 29 L205.766 327 L332.766 327 C484.766 327 547.135 269 522.474 183 C496.094 91 382.316 29 239.316 29 L120.316 29 Z M407.223 632 C531.223 632 579.165 576 554.792 491 C531.279 409 425.508 354 289.508 354 L214.508 354 L294.51 633 C332.51 633 406.51 633 407.223 632 L407.223 632 Z " />
<glyph glyph-name="C" unicode="C" horiz-adv-x="712" d="M158.612 316 C102.983 122 196.706 -8 393.706 -8 C483.706 -8 578.728 13 632.617 44 L644.079 77 L629.506 75 C623.646 72 560.33 43 560.33 43 C510.455 26 452.588 16 401.588 16 C232.588 16 155.718 142 209.626 330 C264.108 520 418.238 646 596.238 646 C640.238 646 682.944 638 715.929 624 L721.069 621 C735.201 611 752.76 599 766.893 589 C771.893 589 777.18 590 783.18 590 L791.642 623 C764.958 652 689.693 672 602.693 672 C397.693 672 219.975 530 158.612 316 L158.612 316 Z " />
<glyph glyph-name="D" unicode="D" horiz-adv-x="687" d="M248.804 641 L241.481 605 L83.771 55 L70.4482 19 L65 0 L249 0 C472.294 8 653.99 129 718.795 355 C776.43 556 657.252 660 433.252 660 L254.252 660 L248.804 641 Z M294.51 633 L412.51 633 C615.51 633 722.835 533 666.92 338 C610.144 140 450.749 34 255.742 27 C255.742 27 217.029 28 121.029 28 L294.51 633 Z " />
<glyph glyph-name="E" unicode="E" horiz-adv-x="573" d="M65 0 L503 0 L512.463 33 L495.463 33 L436.029 28 L121.029 28 L206.479 326 C249.479 326 293.766 327 336.766 327 C379.766 327 422.479 326 461.619 323 L484.619 323 L494.368 357 C471.368 357 451.081 356 429.508 354 L214.508 354 L294.51 633 C352.51 633 411.797 634 470.797 634 C529.797 634 588.51 633 641.363 629 L658.363 629 L667.252 660 L254.252 660 L248.804 641 L241.481 605 L83.771 55 L70.4482 19 L65 0 Z " />
<glyph glyph-name="F" unicode="F" horiz-adv-x="538" d="M117 0 L122.448 19 L129.771 55 L207.479 326 C250.479 326 294.766 327 337.766 327 C380.766 327 423.479 326 462.619 323 L485.619 323 L495.368 357 C472.368 357 452.081 356 430.508 354 L215.508 354 L295.51 633 C347.51 633 400.797 634 453.797 634 C515.797 634 576.51 633 632.363 629 L649.363 629 L658.252 660 L255.252 660 L249.804 641 L242.481 605 L84.771 55 L71.4482 19 L66 0 L117 0 Z " />
<glyph glyph-name="G" unicode="G" horiz-adv-x="700" d="M395.133 -10 C502.133 -10 611.882 24 668.219 74 L714.385 235 L727.708 271 L733.156 290 L682.156 290 L676.708 271 L669.385 235 L620.925 66 C574.61 37 497.448 19 417.448 19 C239.448 19 156.005 143 209.339 329 C263.821 519 421.951 645 605.951 645 C653.951 645 699.657 637 733.642 623 C733.356 622 782.467 591 786.606 588 L787.32 587 C792.32 587 797.606 588 803.606 588 L812.069 621 C785.385 650 706.119 670 613.119 670 C402.119 670 220.402 528 159.038 314 C103.409 120 198.133 -10 395.133 -10 L395.133 -10 Z " />
<glyph glyph-name="H" unicode="H" horiz-adv-x="644" d="M214.508 354 L286.481 605 L299.804 641 L305.252 660 L254.252 660 L248.804 641 L241.481 605 L83.771 55 L70.4482 19 L65 0 L116 0 L121.448 19 L128.771 55 L206.479 326 L625.479 326 L547.771 55 L534.448 19 L529 0 L580 0 L585.448 19 L592.771 55 L750.481 605 L763.804 641 L769.252 660 L718.252 660 L712.804 641 L705.481 605 L633.508 354 L214.508 354 Z " />
<glyph glyph-name="I" unicode="I" horiz-adv-x="190" d="M259.252 660 L253.804 641 L246.481 605 L88.771 55 L75.4482 19 L70 0 L121 0 L126.448 19 L133.771 55 L291.481 605 L304.804 641 L310.252 660 L259.252 660 Z " />
<glyph glyph-name="J" unicode="J" horiz-adv-x="190" d="M-76.607 -173 C10.393 -173 105.096 -45 160.152 147 L291.481 605 L304.804 641 L310.252 660 L259.252 660 L253.804 641 L246.481 605 L87.3373 50 C55.2218 -62 0.715882 -137 -49.2841 -137 C-49.2841 -137 -64.8504 -132 -75.8504 -132 C-76.7106 -135 -102.607 -173 -76.607 -173 L-76.607 -173 Z " />
<glyph glyph-name="K" unicode="K" horiz-adv-x="590" d="M210.92 338 L488 0 L555 0 L261.787 348 C403.462 448 562.57 553 698.965 659 L643.965 659 L210.92 338 Z M251.678 658 L246.23 639 L238.907 603 L81.1975 53 L67.8747 17 L62.4265 -2 L113.427 -2 L118.875 17 L126.198 53 L283.907 603 L297.23 639 L302.678 658 L251.678 658 Z " />
<glyph glyph-name="L" unicode="L" horiz-adv-x="553" d="M70.4482 19 L65 0 L483 0 L492.749 34 L474.749 34 L411.029 28 L121.029 28 L286.481 605 L299.804 641 L305.252 660 L254.252 660 L248.804 641 L241.481 605 L83.771 55 L70.4482 19 Z " />
<glyph glyph-name="M" unicode="M" horiz-adv-x="808" d="M271.804 641 L263.915 610 C202.867 425 142.532 239 80.771 55 L66.4482 19 L61 0 L96 0 L101.448 19 L110.198 53 L289.907 603 L387.566 -5 L410.566 -5 L851.474 598 L716.484 54 L705.448 19 L700 0 L748 0 L753.448 19 L759.771 55 L896.768 606 L907.804 641 L913.252 660 L867.252 660 L427.058 56 L328.252 660 L277.252 660 L271.804 641 Z " />
<glyph glyph-name="N" unicode="N" horiz-adv-x="643" d="M106 0 L111.448 19 L117.771 55 L269.746 585 C368.257 388 465.768 191 564.566 -5 L579.566 -5 L754.481 605 L767.804 641 L773.252 660 L731.252 660 L725.804 641 L719.481 605 L572.667 93 L291.252 660 L253.252 660 L247.804 641 L240.481 605 L82.771 55 L69.4482 19 L64 0 L106 0 Z " />
<glyph glyph-name="O" unicode="O" horiz-adv-x="795" d="M395.133 -10 C591.133 -10 760.843 125 819.052 328 C877.835 533 786.119 670 590.119 670 C393.119 670 223.409 535 165.486 333 C106.417 127 198.133 -10 395.133 -10 L395.133 -10 Z M218.361 350 C269.402 528 411.238 646 574.238 646 C747.238 646 823.814 512 766.178 311 C715.137 133 573.301 15 412.301 15 C238.301 15 160.725 149 218.361 350 L218.361 350 Z " />
<glyph glyph-name="P" unicode="P" horiz-adv-x="567" d="M254.252 660 L248.804 641 L241.481 605 L83.771 55 L70.4482 19 L65 0 L116 0 L121.448 19 L128.771 55 L199.884 303 L312.884 303 C475.884 303 604.53 375 635.211 482 C665.893 589 588.252 660 440.252 660 L254.252 660 Z M294.51 633 C335.51 633 420.51 633 421.223 632 C546.223 632 612.445 570 586.064 478 C560.544 389 458.626 330 330.626 330 C330.626 330 280.913 331 207.913 331 L294.51 633 Z " />
<glyph glyph-name="Q" unicode="Q" horiz-adv-x="795" d="M422.706 -8 C496.957 -42 563.716 -137 651.716 -137 C679.716 -137 709.436 -131 727.444 -124 L729.738 -116 C723.877 -119 706.304 -121 686.304 -121 C603.304 -121 542.258 -27 472.427 -2 C635.029 28 768.872 153 819.339 329 C878.122 534 786.406 671 590.406 671 C393.406 671 223.696 536 165.773 334 C107.564 131 195.419 -9 393.419 -9 C403.419 -9 412.419 -9 422.706 -8 L422.706 -8 Z M219.648 351 C270.688 529 412.524 647 575.524 647 C748.524 647 825.1 513 767.465 312 C716.424 134 574.588 16 413.588 16 C239.588 16 162.012 150 219.648 351 L219.648 351 Z " />
<glyph glyph-name="R" unicode="R" horiz-adv-x="529" d="M253.539 661 L248.091 642 L240.768 606 L83.0577 56 L69.7349 20 L64.2867 1 L115.287 1 L120.735 20 L128.058 56 L202.898 317 L291.898 317 L468.287 1 L527.287 1 L346.759 320 C443.06 335 565.698 400 591.792 491 C621.04 593 552.539 661 421.539 661 L253.539 661 Z M292.797 634 C329.797 634 400.797 634 401.51 633 C510.51 633 566.879 575 541.645 487 C517.272 402 383.927 345 298.927 345 L209.927 345 L292.797 634 Z " />
<glyph glyph-name="S" unicode="S" horiz-adv-x="506" d="M98.395 106 L81.8963 38 C132.581 9 203.846 -11 258.846 -11 C371.846 -11 468.638 65 501.327 179 C527.135 269 484.906 324 382.515 361 C293.691 393 255.594 438 276.24 510 C299.467 591 366.951 645 445.951 645 C467.951 645 526.51 633 535.488 612 C543.047 600 551.173 583 558.732 571 C565.732 571 573.018 572 580.018 572 L591.642 623 C563.671 651 509.833 669 457.833 669 C350.833 669 258.76 599 228.365 493 C204.852 411 244.515 361 338.766 327 C435.73 292 476.966 244 454.886 167 C428.506 75 352.728 13 266.728 13 C239.728 13 193.742 27 146.337 50 C144.624 51 143.198 53 142.771 55 C135.359 71 127.094 91 119.682 107 L108.682 107 C105.682 107 101.395 106 98.395 106 L98.395 106 Z " />
<glyph glyph-name="T" unicode="T" horiz-adv-x="675" d="M225.076 628 L243.076 628 L306.51 633 L496.51 633 L330.771 55 L316.448 19 L311 0 L364 0 L369.448 19 L375.771 55 L541.51 633 L731.51 633 L792.076 628 L810.076 628 L819.252 660 L234.252 660 L225.076 628 Z " />
<glyph glyph-name="U" unicode="U" horiz-adv-x="658" d="M259.804 641 L252.481 605 L146.098 234 C104.234 88 178.133 -10 332.133 -10 C486.133 -10 616.234 88 658.098 234 L764.481 605 L777.804 641 L783.252 660 L741.252 660 L735.804 641 L729.481 605 L619.944 223 C584.961 101 478.448 19 354.448 19 C219.448 19 154.969 108 193.392 242 L297.481 605 L310.804 641 L316.252 660 L265.252 660 L259.804 641 Z " />
<glyph glyph-name="V" unicode="V" horiz-adv-x="645" d="M312.566 -5 L333.566 -5 C489.224 217 645.594 438 798.252 660 L761.252 660 C627.91 467 484.407 256 351.065 63 L276.252 660 L225.252 660 L312.566 -5 Z " />
<glyph glyph-name="W" unicode="W" horiz-adv-x="863" d="M205.252 660 C213.896 453 224.923 202 234.566 -5 L245.566 -5 L597.585 567 C611.816 376 624.048 185 639.566 -5 L649.566 -5 C772.496 204 893.713 414 1015.64 623 L1031.52 647 C1032.1 649 1037.54 661 1037.54 661 L999.539 661 C893.505 490 681.961 101 675.807 90 C660.862 282 645.631 473 631.686 665 L621.686 665 L273.52 89 C252.922 617 261.609 452 256.252 660 L205.252 660 Z " />
<glyph glyph-name="X" unicode="X" horiz-adv-x="657" d="M558.287 1 L620.287 1 C620.287 1 617.294 8 612.448 19 C608.029 28 603.61 37 597.904 45 L455.199 332 C556.447 434 656.982 537 758.944 638 C761.517 640 763.377 643 765.951 645 L780.539 661 L743.539 661 L735.671 651 C732.238 646 729.377 643 728.091 642 L444.795 355 L301.377 643 C300.951 645 297.965 659 295.825 662 L295.252 660 L238.252 660 C238.252 660 240.818 655 244.238 646 C244.951 645 245.664 644 247.091 642 C247.804 641 247.517 640 247.23 639 L262.201 611 L401.052 328 L104.337 50 L68.1614 18 L51 0 L91 0 L98.8675 10 C103.301 15 106.448 19 106.448 19 L144.058 56 L411.318 308 C457.79 212 505.262 116 552.735 20 C553.448 19 554.588 16 556.154 11 L558.287 1 Z " />
<glyph glyph-name="Y" unicode="Y" horiz-adv-x="656" d="M249.201 611 L401.884 303 L331.058 56 L317.735 20 L312.287 1 L363.287 1 L368.735 20 L376.058 56 L447.171 304 C554.279 409 661.674 515 769.782 620 L797.238 646 C804.818 655 810.252 660 810.252 660 L772.252 660 L764.385 650 C759.951 645 756.804 641 756.804 641 L440.913 331 C395.007 422 347.387 514 301.481 605 L282.804 641 C282.377 643 278.252 660 278.252 660 L224.252 660 C224.252 660 227.958 652 233.23 639 C238.65 630 243.782 620 249.201 611 L249.201 611 Z " />
<glyph glyph-name="Z" unicode="Z" horiz-adv-x="646" d="M101.728 13 L98 0 L556 0 L565.463 33 L547.463 33 L484.029 28 L163.029 28 C352.245 238 539.749 449 729.392 657 L730.252 660 L299.252 660 L290.076 628 L308.076 628 L371.51 633 L660.51 633 L101.728 13 Z " />
<glyph glyph-name="bracketleft" unicode="&#x5b;" horiz-adv-x="218" d="M278.192 740 L22.9882 -150 L169.988 -150 L173.429 -138 L57.4291 -138 L306.037 729 L422.037 729 L425.192 740 L278.192 740 Z " />
<glyph glyph-name="backslash" unicode="&#x5c;" horiz-adv-x="200" d="M215.059 750 L140.591 -120 L165.591 -120 L240.059 750 L215.059 750 Z " />
<glyph glyph-name="bracketright" unicode="&#x5d;" horiz-adv-x="213" d="M217.192 740 L214.037 729 L326.037 729 L77.4291 -138 L-34.5709 -138 L-38.0118 -150 L104.988 -150 L360.192 740 L217.192 740 Z " />
<glyph glyph-name="asciicircum" unicode="&#x5e;" horiz-adv-x="340" d="M190.975 530 L196.975 530 L359.678 658 L452.975 530 L458.975 530 L380.155 705 L365.155 705 L190.975 530 Z " />
<glyph glyph-name="underscore" unicode="&#x5f;" horiz-adv-x="500" d="M440.591 -120 L447.759 -95 L-2.24081 -95 L-9.40945 -120 L440.591 -120 Z " />
<glyph glyph-name="grave" unicode="&#x60;" horiz-adv-x="340" d="M250.729 707 C250.729 707 250.994 687 255.84 676 L320.975 530 L326.975 530 L290.729 707 L250.729 707 Z " />
<glyph glyph-name="a" unicode="a" horiz-adv-x="480" d="M172.185 318 L198.185 318 L204.619 323 L207.06 335 C223.691 393 285.308 437 349.308 437 C421.308 437 446.838 397 429.633 337 L406.98 258 C214.084 220 101.446 155 81.3734 85 C65.0289 28 100.133 -10 168.133 -10 C232.133 -10 300.014 14 351.491 61 C343.161 18 362.133 -10 400.133 -10 C429.133 -10 463.154 11 484.043 42 L483.904 45 C473.316 29 453.448 19 433.448 19 C401.448 19 385.183 39 394.072 70 L473.787 348 C492.999 415 459.903 460 369.903 460 C274.903 460 187.132 405 166.199 332 C163.619 323 166.185 318 172.185 318 L172.185 318 Z M124.241 95 C140.872 153 237.356 207 402.532 239 L355.219 74 C314.183 39 257.022 21 200.022 21 C142.022 21 111.624 51 124.241 95 L124.241 95 Z " />
<glyph glyph-name="b" unicode="b" horiz-adv-x="493" d="M247.17 719 C236.7 679 230.245 653 230.245 653 L39.1325 -10 L42.1325 -10 C42.1325 -10 84.1614 18 90.1759 32 C123.007 7 167.419 -9 210.419 -9 C348.419 -9 470.241 95 514.973 251 C551.103 377 501.19 461 389.19 461 C321.19 461 245.301 430 192.25 381 L298.633 752 L290.633 752 L257.905 739 L254.905 739 L254.618 738 L252.331 737 L247.17 719 Z M352.727 428 C456.727 428 505.221 353 473.106 241 C434.395 106 337.588 16 231.588 16 C189.588 16 139.043 42 106.513 82 L184.795 355 C225.411 399 292.727 428 352.727 428 L352.727 428 Z " />
<glyph glyph-name="c" unicode="c" horiz-adv-x="477" d="M257.133 -10 C326.133 -10 407.176 32 459.528 96 L460.675 100 L456.675 100 C403.058 56 335.742 27 288.742 27 C173.742 27 120.255 109 155.812 233 C191.368 357 284.881 439 388.881 439 C432.881 439 472.146 419 486.257 388 L502.221 353 L540.25 381 C540.25 381 539.823 383 538.684 386 C521.168 440 474.903 460 411.903 460 C272.903 460 152.228 360 109.217 210 C71.3661 78 130.133 -10 257.133 -10 L257.133 -10 Z " />
<glyph glyph-name="d" unicode="d" horiz-adv-x="496" d="M232.133 -10 C301.133 -10 375.875 17 423.918 59 C418.47 40 412 0 412 0 L450 0 L455.161 18 L461.337 50 L664.066 757 L656.066 757 L622.199 747 L621.199 747 L618.912 746 L613.324 730 C604.288 695 598.406 671 598.406 671 L531.881 439 C490.609 452 447.903 460 418.903 460 C275.903 460 149.795 355 104.489 197 C68.9324 73 120.133 -10 232.133 -10 L232.133 -10 Z M149.217 210 C188.214 346 291.021 436 406.021 436 C406.021 436 451.433 420 519.978 394 L429.079 77 C390.904 45 328.882 24 270.882 24 C165.882 24 117.101 98 149.217 210 L149.217 210 Z " />
<glyph glyph-name="e" unicode="e" horiz-adv-x="483" d="M112.217 210 C74.3661 78 133.133 -10 260.133 -10 C329.133 -10 410.176 32 462.528 96 L463.675 100 L459.675 100 C406.058 56 338.742 27 291.742 27 C172.742 27 120.689 114 162.253 245 L487.253 245 L505.826 247 C542.53 375 497.903 460 394.903 460 C267.903 460 155.228 360 112.217 210 L112.217 210 Z M168.848 268 C209.669 372 289.881 439 377.881 439 C460.881 439 497.383 371 474.848 268 L168.848 268 Z " />
<glyph glyph-name="f" unicode="f" horiz-adv-x="337" d="M133.161 18 L128 0 L172 0 L177.161 18 L184.337 50 L292.44 427 L424.44 427 L431.035 450 L299.035 450 L324.269 538 C350.65 630 451.302 709 544.302 709 C555.302 709 569.155 705 580.435 699 C592.428 692 604.281 688 604.281 688 L611.281 688 C634.016 708 631.464 727 607.192 740 C607.192 740 586.059 750 575.059 750 C465.059 750 306.348 615 270.505 490 L259.035 450 L169.035 450 L162.44 427 L252.44 427 L144.337 50 L133.161 18 Z " />
<glyph glyph-name="g" unicode="g" horiz-adv-x="536" d="M457.602 445 C437.896 453 414.329 458 386.329 458 C272.329 458 193.551 396 166.31 301 C147.385 235 164.761 184 210.306 158 C154.431 141 111.542 110 102.366 78 C92.0433 42 116.588 16 164.581 9 C104.993 -7 50.7808 -74 36.7303 -123 C16.3714 -194 67.8944 -241 165.894 -241 C309.894 -241 423.673 -179 450.627 -85 C472.419 -9 443.757 41 331.757 41 L212.757 41 C162.757 41 134.778 62 143.954 94 C151.123 119 182.718 142 223.585 152 C243.291 144 266.858 139 293.858 139 C408.858 139 486.209 203 514.024 300 C529.508 354 519.125 398 488.154 426 L608.72 421 L616.462 448 L457.602 445 Z M190.72 6 L301.72 6 C401.72 6 428.964 -35 411.186 -97 C388.533 -176 293.622 -228 174.622 -228 C95.6221 -228 55.2388 -184 74.164 -118 C90.5085 -61 141.72 6 190.72 6 L190.72 6 Z M207.597 302 C231.397 385 291.168 440 376.168 440 C457.168 440 495.11 384 471.024 300 C446.937 216 387.879 160 304.879 160 C221.879 160 183.224 217 207.597 302 L207.597 302 Z " />
<glyph glyph-name="h" unicode="h" horiz-adv-x="454" d="M94 0 L99.1614 18 L106.337 50 L195.515 361 C243.698 400 297.867 425 362.867 425 C441.867 425 481.823 383 463.759 320 L386.337 50 L375.161 18 L370 0 L414 0 L419.161 18 L426.337 50 L510.354 343 C530.426 413 483.903 460 394.903 460 C326.903 460 262.44 427 199.816 376 L307.059 750 L299.059 750 L260.758 735 L255.596 717 C245.127 677 238.671 651 238.671 651 L66.3373 50 L55.1614 18 L50 0 L94 0 Z " />
<glyph glyph-name="i" unicode="i" horiz-adv-x="151" d="M176.44 427 C165.97 387 159.515 361 159.515 361 L70.3373 50 L59.1614 18 L54 0 L99 0 L104.161 18 L110.337 50 L227.903 460 L219.903 460 L181.602 445 L176.44 427 Z M227.517 640 C222.069 621 234.201 611 249.201 611 C264.201 611 282.069 621 287.517 640 C293.252 660 280.833 669 265.833 669 C250.833 669 233.252 660 227.517 640 L227.517 640 Z " />
<glyph glyph-name="j" unicode="j" horiz-adv-x="151" d="M-73.5249 -232 C49.1135 -167 66.752 -102 95.1398 -3 L227.903 460 L219.903 460 L187.175 447 L184.175 447 L183.888 446 L181.602 445 L176.44 427 C165.97 387 159.515 361 159.515 361 L53.4193 -9 C23.311 -114 13.9593 -178 -70.9442 -223 L-73.5249 -232 Z M229.517 640 C224.069 621 236.201 611 251.201 611 C266.201 611 284.069 621 289.517 640 C295.252 660 282.833 669 267.833 669 C252.833 669 235.252 660 229.517 640 L229.517 640 Z " />
<glyph glyph-name="k" unicode="k" horiz-adv-x="420" d="M263.625 745 L258.464 727 C247.994 687 241.539 661 241.539 661 L66.3373 50 L55.1614 18 L50 0 L95 0 L100.161 18 L106.337 50 L163.113 248 L341 0 L390 0 L204.414 263 L525.035 450 L486.035 450 L165.12 255 L309.926 760 L301.926 760 L263.625 745 Z " />
<glyph glyph-name="l" unicode="l" horiz-adv-x="132" d="M88 0 L93.1614 18 L100.337 50 L303.926 760 L295.926 760 L257.625 745 L252.464 727 C241.994 687 235.539 661 235.539 661 L60.3373 50 L49.1614 18 L44 0 L88 0 Z " />
<glyph glyph-name="m" unicode="m" horiz-adv-x="757" d="M702.903 460 C635.903 460 567.58 424 499.809 369 C503.867 425 460.19 461 385.19 461 C321.19 461 257.727 428 195.103 377 L196.823 383 L195.823 383 C203.139 412 217.19 461 217.19 461 L209.19 461 L172.888 446 L167.727 428 C157.257 388 150.802 362 150.802 362 L61.624 51 L50.4482 19 L45.2867 1 L89.2867 1 L94.4482 19 L101.624 51 L190.802 362 C238.985 401 292.154 426 353.154 426 C429.154 426 467.11 384 449.045 321 L371.624 51 L359.448 19 L354.287 1 L400.287 1 L405.448 19 L411.624 51 L499.081 356 C551.125 398 606.867 425 670.867 425 C746.867 425 784.823 383 766.759 320 L689.337 50 L677.161 18 L672 0 L717 0 L722.161 18 L729.337 50 L813.354 343 C833.426 413 788.903 460 702.903 460 L702.903 460 Z " />
<glyph glyph-name="n" unicode="n" horiz-adv-x="454" d="M155.515 361 L66.3373 50 L55.1614 18 L50 0 L95 0 L100.161 18 L106.337 50 L195.515 361 C243.698 400 297.867 425 362.867 425 C441.867 425 481.823 383 463.759 320 L386.337 50 L374.161 18 L369 0 L414 0 L419.161 18 L426.337 50 L510.354 343 C530.426 413 483.903 460 394.903 460 C326.903 460 262.44 427 199.816 376 L201.537 382 C208.852 411 221.903 460 221.903 460 L213.903 460 L177.602 445 L172.44 427 C161.97 387 155.515 361 155.515 361 L155.515 361 Z " />
<glyph glyph-name="o" unicode="o" horiz-adv-x="527" d="M261.133 -10 C402.133 -10 501.087 84 541.518 225 C581.949 366 523.903 460 395.903 460 C254.903 460 154.949 366 114.518 225 C74.0866 84 133.133 -10 261.133 -10 L261.133 -10 Z M160.518 225 C197.221 353 276.881 439 382.881 439 C486.881 439 532.221 353 495.518 225 C458.814 97 379.154 11 273.154 11 C169.154 11 123.814 97 160.518 225 L160.518 225 Z " />
<glyph glyph-name="p" unicode="p" horiz-adv-x="500" d="M-15.9514 -230 L29.0486 -230 L34.21 -212 L40.3858 -180 L94.5807 9 C120.14 -3 166.133 -10 219.133 -10 C356.133 -10 476.381 92 520.539 246 C557.243 374 509.903 460 400.903 460 C341.903 460 262.874 432 202.544 389 C209.86 418 221.903 460 221.903 460 L213.903 460 L177.602 445 L172.44 427 C161.97 387 155.515 361 155.515 361 L0.385831 -180 L-10.79 -212 L-15.9514 -230 Z M108.058 56 L198.956 373 C245.132 405 309.154 426 362.154 426 C465.154 426 510.214 346 476.091 227 C439.388 99 345.014 14 239.014 14 C183.014 14 130.889 31 108.058 56 L108.058 56 Z " />
<glyph glyph-name="q" unicode="q" horiz-adv-x="470" d="M224.133 -10 C269.133 -10 340.161 18 405.491 61 L336.386 -180 L324.21 -212 L319.049 -230 L364.049 -230 L369.21 -212 L376.386 -180 L559.903 460 L556.903 460 L518.315 444 C493.182 454 452.903 460 407.903 460 C271.903 460 151.795 355 106.489 197 C70.9324 73 118.133 -10 224.133 -10 L224.133 -10 Z M396.021 436 C439.021 436 481.72 421 503.411 399 L502.411 399 L410.653 79 C360.19 46 301.882 24 262.882 24 C163.882 24 119.101 98 151.217 210 C190.214 346 288.021 436 396.021 436 L396.021 436 Z " />
<glyph glyph-name="r" unicode="r" horiz-adv-x="268" d="M317.903 460 C292.903 460 248.72 421 195.802 362 C205.264 395 212.44 427 220.903 460 L212.903 460 L176.602 445 L171.44 427 C160.97 387 154.515 361 154.515 361 L65.3373 50 L54.1614 18 L49 0 L94 0 L99.1614 18 L105.337 50 L189.927 345 C231.117 391 263.72 421 280.72 421 C296.72 421 315.573 417 329.566 410 C339.132 405 362.978 394 362.978 394 L369.978 394 C378.132 405 385.86 418 388.44 427 C392.741 442 339.903 460 315.903 460 L317.903 460 Z " />
<glyph glyph-name="s" unicode="s" horiz-adv-x="410" d="M66.5951 23 C102.86 3 155.133 -10 197.133 -10 C281.133 -10 351.47 40 372.976 115 C390.18 175 360.65 215 288.826 247 C225.855 275 199.031 307 211.934 352 C226.558 403 272.455 441 323.455 441 C329.455 441 334.455 441 340.168 440 L436.838 397 L445.72 421 C413.315 444 367.616 459 331.616 459 C257.616 459 193.566 410 172.346 336 C156.575 281 184.253 245 249.65 215 C317.761 184 347.725 149 333.961 101 C317.904 45 264.007 7 200.007 7 C200.007 7 178.294 8 178.581 9 C155.728 13 123.455 26 99.0433 42 L88.7638 48 L74.7638 48 L70.7493 34 L66.5951 23 Z " />
<glyph glyph-name="t" unicode="t" horiz-adv-x="309" d="M141.301 430 L140.44 427 L217.44 427 L120.807 90 C103.602 30 127.133 -10 180.133 -10 C219.133 -10 264.588 16 294.484 54 L294.631 58 C277.036 35 245.735 20 216.735 20 C170.735 20 149.911 52 163.388 99 L257.44 427 L389.44 427 L396.035 450 L264.035 450 L291.276 545 L288.276 545 L224.035 450 L141.301 430 Z " />
<glyph glyph-name="u" unicode="u" horiz-adv-x="416" d="M142.698 400 L58.6818 107 C38.6096 37 83.1325 -10 171.133 -10 C220.133 -10 293.022 21 370.94 80 L348 0 L391 0 L396.161 18 L402.337 50 L517.035 450 L474.035 450 L468.874 432 L462.698 400 L375.528 96 C314.337 50 252.455 26 204.455 26 C127.455 26 87.4987 68 105.564 131 L197.035 450 L155.035 450 L149.874 432 L142.698 400 Z " />
<glyph glyph-name="v" unicode="v" horiz-adv-x="423" d="M108.874 432 L116.132 405 L191 0 L201 0 L494.411 399 L520.587 431 C527.741 442 532.035 450 532.035 450 L503.035 450 C503.035 450 494.161 433 492.587 431 L468.264 395 L226.058 56 C205.033 171 183.009 286 162.698 400 L155.587 431 C154.161 433 156.462 448 156.035 450 L108.035 450 C108.035 450 108.028 443 108.874 432 L108.874 432 Z " />
<glyph glyph-name="w" unicode="w" horiz-adv-x="716" d="M173.713 -1 L186.713 -1 L451.11 384 C463.407 256 473.417 127 488 0 L499 0 C594.85 132 690.701 264 786.264 395 L814.587 431 C821.741 442 826.035 450 826.035 450 L797.035 450 C791.881 439 789.734 435 787.587 431 L527.205 60 C514.482 190 504.045 321 489.035 450 L475.035 450 L212.491 61 L187.698 400 C187.698 400 184.301 430 185.301 430 C184.874 432 187.175 447 187.749 449 L140.749 449 L173.713 -1 Z " />
<glyph glyph-name="x" unicode="x" horiz-adv-x="432" d="M258.091 227 C188.306 158 119.947 87 49.7349 20 C37.0072 7 28.4265 -2 28.4265 -2 L58.4265 -2 C65.8819 24 236.195 189 263.224 217 C271.636 201 343.506 75 359.427 -2 L407.427 -2 L294.679 243 C365.178 311 444.677 379 510.322 451 L482.322 451 C480.749 449 468.447 434 465.874 432 L289.12 255 L207.301 430 C207.587 431 203.462 448 203.462 448 L156.462 448 C156.462 448 156.462 448 258.091 227 L258.091 227 Z " />
<glyph glyph-name="y" unicode="y" horiz-adv-x="423" d="M-16.3491 -200 L-22.9442 -223 C-26.0984 -234 -22.2454 -238 -10.2454 -238 C52.7546 -238 106.798 -196 179.766 -88 C291.219 74 402.672 236 514.838 397 L541.161 433 C542.734 435 544.021 436 544.021 436 C549.888 446 553.609 452 553.609 452 L527.609 452 C522.455 441 520.308 437 518.161 433 L258.058 56 L177.161 433 C176.734 435 177.035 450 177.609 452 L128.609 452 C128.609 452 137.132 405 138.698 400 L224.007 7 L163.774 -81 C106.974 -164 63.7979 -196 8.7979 -196 L-11.2021 -196 L-16.3491 -200 Z " />
<glyph glyph-name="z" unicode="z" horiz-adv-x="444" d="M369 0 L372.154 11 L373.154 11 L377.742 27 L360.742 27 L326.595 23 L104.595 23 L465.727 428 L490.035 450 L183.035 450 L179.881 439 L178.881 439 C177.734 435 175.014 429 173.58 424 L190.58 424 L224.727 428 L418.727 428 L46.5807 9 L44 0 L369 0 Z " />
<glyph glyph-name="bar" unicode="&#x7c;" horiz-adv-x="213" d="M13.4462 -260 L38.4462 -260 L330.926 760 L305.926 760 L13.4462 -260 Z " />
<glyph glyph-name="asciitilde" unicode="&#x7e;" horiz-adv-x="340" d="M90.5177 225 C116.561 267 138.59 295 185.59 295 C223.59 295 256.672 236 294.672 236 C349.672 236 380.428 277 417.92 338 L410.92 338 C384.59 295 361.274 266 315.274 266 C277.274 266 243.906 324 205.906 324 C149.906 324 119.436 284 83.5177 225 L90.5177 225 Z " />
<glyph glyph-name="exclamdown" unicode="&#xa1;" horiz-adv-x="190" d="M9.78347 -210 L64.7835 -210 L194.759 320 L184.759 320 L9.78347 -210 Z M251.301 430 C257.035 450 244.616 459 229.616 459 C214.616 459 197.035 450 191.301 430 C185.852 411 197.985 401 212.985 401 C227.985 401 245.852 411 251.301 430 L251.301 430 Z " />
<glyph glyph-name="guillemotleft" unicode="&#xab;" horiz-adv-x="432" d="M277.113 248 L426.072 70 L432.072 70 L327.113 248 L533.867 425 L527.867 425 L277.113 248 Z M238.072 70 L244.072 70 L139.113 248 L345.867 425 L339.867 425 L89.1129 248 L238.072 70 Z " />
<glyph glyph-name="acute" unicode="&#xb4;" horiz-adv-x="340" d="M323.975 530 L329.975 530 L478.84 676 C489.994 687 501.729 707 501.729 707 L461.729 707 L323.975 530 Z " />
<glyph glyph-name="periodcentered" unicode="&#xb7;" horiz-adv-x="190" d="M133.819 240 C128.371 221 140.503 211 155.503 211 C170.503 211 188.371 221 193.819 240 C199.554 260 187.135 269 172.135 269 C157.135 269 139.554 260 133.819 240 L133.819 240 Z " />
<glyph glyph-name="guillemotright" unicode="&#xbb;" horiz-adv-x="406" d="M309.867 425 L407.113 248 L208.072 70 L214.072 70 L457.113 248 L315.867 425 L309.867 425 Z M239.113 248 L40.0722 70 L46.0722 70 L289.113 248 L147.867 425 L141.867 425 L239.113 248 Z " />
<glyph glyph-name="questiondown" unicode="&#xbf;" horiz-adv-x="467" d="M161.916 -220 C282.916 -220 381.268 -156 409.082 -59 C412.523 -47 407.817 -39 396.817 -39 L371.817 -39 L364.935 -63 C341.709 -144 270.224 -198 185.224 -198 C100.224 -198 60.2822 -142 84.6555 -57 C109.029 28 205.667 93 325.108 105 C343.46 169 373.759 320 373.759 320 L363.759 320 C363.759 320 327.65 215 305.005 143 C171.696 121 66.3301 43 37.6555 -57 C9.55447 -155 58.916 -220 161.916 -220 L161.916 -220 Z M368.867 425 C363.419 406 375.551 396 390.551 396 C405.551 396 423.419 406 428.867 425 C434.602 445 422.182 454 407.182 454 C392.182 454 374.602 445 368.867 425 L368.867 425 Z " />
<glyph glyph-name="Agrave" unicode="&#xc0;" horiz-adv-x="649" d="M606.904 45 L522.972 666 L500.972 666 L481.23 639 L480.944 638 C281.795 355 132.005 143 66.624 51 L41.4482 19 C37.4409 12 31.2867 1 31.2867 1 L69.2867 1 C67.2867 1 77.1614 18 78.4482 19 C133.814 97 187.467 176 242.833 254 L532.833 254 L562.735 20 C563.014 14 562.007 7 561.287 1 L612.287 1 C612.287 1 615.441 12 611.875 17 L606.904 45 Z M485.334 601 L527.862 282 L260.862 282 C323.669 372 399.638 480 485.334 601 L485.334 601 Z M439.748 864 C439.748 864 440.587 846 445.719 836 L515.155 705 L521.155 705 L479.748 864 L439.748 864 Z " />
<glyph glyph-name="Aacute" unicode="&#xc1;" horiz-adv-x="649" d="M606.904 45 L522.972 666 L500.972 666 L481.23 639 L480.944 638 C281.795 355 132.005 143 66.624 51 L41.4482 19 C37.4409 12 31.2867 1 31.2867 1 L69.2867 1 C67.2867 1 77.1614 18 78.4482 19 C133.814 97 187.467 176 242.833 254 L532.833 254 L562.735 20 C563.014 14 562.007 7 561.287 1 L612.287 1 C612.287 1 615.441 12 611.875 17 L606.904 45 Z M485.334 601 L527.862 282 L260.862 282 C323.669 372 399.638 480 485.334 601 L485.334 601 Z M524.155 705 L668.719 836 C679.587 846 690.748 864 690.748 864 L650.748 864 L518.155 705 L524.155 705 Z " />
<glyph glyph-name="Acircumflex" unicode="&#xc2;" horiz-adv-x="649" d="M561.287 1 L612.287 1 C612.287 1 615.441 12 611.875 17 L606.904 45 L522.972 666 L500.972 666 L481.23 639 L480.944 638 C281.795 355 132.005 143 66.624 51 L41.4482 19 C37.4409 12 31.2867 1 31.2867 1 L69.2867 1 C67.2867 1 77.1614 18 78.4482 19 C133.814 97 187.467 176 242.833 254 L532.833 254 L562.735 20 C563.014 14 562.007 7 561.287 1 L561.287 1 Z M485.334 601 L527.862 282 L260.862 282 C323.669 372 399.638 480 485.334 601 L485.334 601 Z M557.175 862 L389.442 706 L395.442 706 L554.705 822 L651.729 707 L656.729 707 L574.035 865 L559.035 865 L557.175 862 Z M658.729 707 L657.729 707 L658.442 706 L658.729 707 Z " />
<glyph glyph-name="Atilde" unicode="&#xc3;" horiz-adv-x="649" d="M612.287 1 C612.287 1 615.441 12 611.875 17 L606.904 45 L522.972 666 L500.972 666 L481.23 639 L480.944 638 C281.795 355 132.005 143 66.624 51 L41.4482 19 C37.4409 12 31.2867 1 31.2867 1 L69.2867 1 C67.2867 1 77.1614 18 78.4482 19 C133.814 97 187.467 176 242.833 254 L532.833 254 L562.735 20 C563.014 14 562.007 7 561.287 1 L612.287 1 Z M260.862 282 C323.669 372 399.638 480 485.334 601 L527.862 282 L260.862 282 Z M388.751 728 C413.36 765 434.529 790 482.529 790 C520.529 790 555.331 737 592.331 737 C647.331 737 676.941 774 712.712 829 L706.712 829 C681.816 791 659.36 765 612.36 765 C575.36 765 540.271 817 502.271 817 C446.271 817 416.948 781 382.751 728 L388.751 728 Z " />
<glyph glyph-name="Adieresis" unicode="&#xc4;" horiz-adv-x="649" d="M606.904 45 L522.972 666 L500.972 666 L481.23 639 L480.944 638 C281.795 355 132.005 143 66.624 51 L41.4482 19 C37.4409 12 31.2867 1 31.2867 1 L69.2867 1 C67.2867 1 77.1614 18 78.4482 19 C133.814 97 187.467 176 242.833 254 L532.833 254 L562.735 20 C563.014 14 562.007 7 561.287 1 L612.287 1 C612.287 1 615.441 12 611.875 17 L606.904 45 Z M260.862 282 C323.669 372 399.638 480 485.334 601 L527.862 282 L260.862 282 Z M582.926 760 C578.339 744 588.758 735 600.758 735 C613.758 735 628.339 744 632.926 760 C637.801 777 628.095 785 615.095 785 C603.095 785 587.801 777 582.926 760 L582.926 760 Z M442.926 760 C438.339 744 448.758 735 460.758 735 C473.758 735 488.339 744 492.926 760 C497.801 777 488.095 785 475.095 785 C463.095 785 447.801 777 442.926 760 L442.926 760 Z " />
<glyph glyph-name="Aring" unicode="&#xc5;" horiz-adv-x="649" d="M612.287 1 C612.287 1 615.441 12 611.875 17 L606.904 45 L522.972 666 L500.972 666 L481.23 639 L480.944 638 C281.795 355 132.005 143 66.624 51 L41.4482 19 C37.4409 12 31.2867 1 31.2867 1 L69.2867 1 C67.2867 1 77.1614 18 78.4482 19 C133.814 97 187.467 176 242.833 254 L532.833 254 L562.735 20 C563.014 14 562.007 7 561.287 1 L612.287 1 Z M485.334 601 L527.862 282 L260.862 282 C323.669 372 399.638 480 485.334 601 L485.334 601 Z M523.589 710 C566.589 710 612.912 746 624.955 788 C637.859 833 614.461 863 567.461 863 C519.461 863 478.859 833 465.669 787 C453.625 745 480.589 710 523.589 710 L523.589 710 Z M562.02 851 C596.02 851 610.278 824 598.808 784 C589.346 751 557.03 722 529.03 722 C498.03 722 480.919 753 491.529 790 C502.138 827 530.02 851 562.02 851 L562.02 851 Z " />
<glyph glyph-name="Ccedilla" unicode="&#xc7;" horiz-adv-x="712" d="M629.506 75 C623.646 72 560.33 43 560.33 43 C510.455 26 452.588 16 401.588 16 C232.588 16 155.718 142 209.626 330 C264.108 520 418.238 646 596.238 646 C640.238 646 682.944 638 715.929 624 L721.069 621 C735.201 611 752.76 599 766.893 589 C771.893 589 777.18 590 783.18 590 L791.642 623 C764.958 652 689.693 672 602.693 672 C397.693 672 219.975 530 158.612 316 C103.556 124 195.566 -5 388.993 -7 C381.125 -17 346.935 -63 298.297 -128 L311.289 -135 C355.701 -151 382.967 -171 379.239 -184 C372.644 -207 352.056 -223 328.056 -223 C295.056 -223 265.776 -217 255.644 -207 L254.21 -212 C269.909 -227 301.041 -237 331.041 -237 C368.041 -237 399.923 -213 410.533 -176 C417.128 -153 387.157 -125 333.892 -105 C372.802 -53 400.412 -16 406.993 -7 C493.566 -5 582.301 15 633.904 45 L645.366 78 L629.506 75 Z " />
<glyph glyph-name="Egrave" unicode="&#xc8;" horiz-adv-x="573" d="M83.771 55 L70.4482 19 L65 0 L503 0 L512.463 33 L495.463 33 L436.029 28 L121.029 28 L206.479 326 C249.479 326 293.766 327 336.766 327 C379.766 327 422.479 326 461.619 323 L484.619 323 L494.368 357 C471.368 357 451.081 356 429.508 354 L214.508 354 L294.51 633 C352.51 633 411.797 634 470.797 634 C529.797 634 588.51 633 641.363 629 L658.363 629 L667.252 660 L254.252 660 L248.804 641 L241.481 605 L83.771 55 Z M383.748 864 C383.748 864 384.587 846 389.719 836 L459.155 705 L465.155 705 L423.748 864 L383.748 864 Z " />
<glyph glyph-name="Eacute" unicode="&#xc9;" horiz-adv-x="573" d="M83.771 55 L70.4482 19 L65 0 L503 0 L512.463 33 L495.463 33 L436.029 28 L121.029 28 L206.479 326 C249.479 326 293.766 327 336.766 327 C379.766 327 422.479 326 461.619 323 L484.619 323 L494.368 357 C471.368 357 451.081 356 429.508 354 L214.508 354 L294.51 633 C352.51 633 411.797 634 470.797 634 C529.797 634 588.51 633 641.363 629 L658.363 629 L667.252 660 L254.252 660 L248.804 641 L241.481 605 L83.771 55 Z M468.155 705 L612.719 836 C623.587 846 634.748 864 634.748 864 L594.748 864 L462.155 705 L468.155 705 Z " />
<glyph glyph-name="Ecircumflex" unicode="&#xca;" horiz-adv-x="573" d="M658.363 629 L667.252 660 L254.252 660 L248.804 641 L241.481 605 L83.771 55 L70.4482 19 L65 0 L503 0 L512.463 33 L495.463 33 L436.029 28 L121.029 28 L206.479 326 C249.479 326 293.766 327 336.766 327 C379.766 327 422.479 326 461.619 323 L484.619 323 L494.368 357 C471.368 357 451.081 356 429.508 354 L214.508 354 L294.51 633 C352.51 633 411.797 634 470.797 634 C529.797 634 588.51 633 641.363 629 L658.363 629 Z M499.035 865 L497.175 862 L329.442 706 L335.442 706 L494.705 822 L591.729 707 L596.729 707 L597.442 706 L597.729 707 L596.729 707 L514.035 865 L499.035 865 Z " />
<glyph glyph-name="Edieresis" unicode="&#xcb;" horiz-adv-x="573" d="M65 0 L503 0 L512.463 33 L495.463 33 L436.029 28 L121.029 28 L206.479 326 C249.479 326 293.766 327 336.766 327 C379.766 327 422.479 326 461.619 323 L484.619 323 L494.368 357 C471.368 357 451.081 356 429.508 354 L214.508 354 L294.51 633 C352.51 633 411.797 634 470.797 634 C529.797 634 588.51 633 641.363 629 L658.363 629 L667.252 660 L254.252 660 L248.804 641 L241.481 605 L83.771 55 L70.4482 19 L65 0 Z M520.926 760 C516.339 744 526.758 735 538.758 735 C551.758 735 566.339 744 570.926 760 C575.801 777 566.095 785 553.095 785 C541.095 785 525.801 777 520.926 760 L520.926 760 Z M380.926 760 C376.339 744 386.758 735 398.758 735 C411.758 735 426.339 744 430.926 760 C435.801 777 426.095 785 413.095 785 C401.095 785 385.801 777 380.926 760 L380.926 760 Z " />
<glyph glyph-name="Igrave" unicode="&#xcc;" horiz-adv-x="190" d="M253.804 641 L246.481 605 L88.771 55 L75.4482 19 L70 0 L121 0 L126.448 19 L133.771 55 L291.481 605 L304.804 641 L310.252 660 L259.252 660 L253.804 641 Z M296.155 705 L302.155 705 L260.748 864 L220.748 864 C220.748 864 221.587 846 226.719 836 L296.155 705 Z " />
<glyph glyph-name="Iacute" unicode="&#xcd;" horiz-adv-x="190" d="M246.481 605 L88.771 55 L75.4482 19 L70 0 L121 0 L126.448 19 L133.771 55 L291.481 605 L304.804 641 L310.252 660 L259.252 660 L253.804 641 L246.481 605 Z M305.155 705 L449.719 836 C460.587 846 471.748 864 471.748 864 L431.748 864 L299.155 705 L305.155 705 Z " />
<glyph glyph-name="Icircumflex" unicode="&#xce;" horiz-adv-x="190" d="M70 0 L121 0 L126.448 19 L133.771 55 L291.481 605 L304.804 641 L310.252 660 L259.252 660 L253.804 641 L246.481 605 L88.771 55 L75.4482 19 L70 0 Z M336.035 865 L334.175 862 L166.442 706 L172.442 706 L331.705 822 L428.729 707 L433.729 707 L434.442 706 L434.729 707 L433.729 707 L351.035 865 L336.035 865 Z " />
<glyph glyph-name="Idieresis" unicode="&#xcf;" horiz-adv-x="190" d="M253.804 641 L246.481 605 L88.771 55 L75.4482 19 L70 0 L121 0 L126.448 19 L133.771 55 L291.481 605 L304.804 641 L310.252 660 L259.252 660 L253.804 641 Z M407.926 760 C412.801 777 403.095 785 390.095 785 C378.095 785 362.801 777 357.926 760 C353.339 744 363.758 735 375.758 735 C388.758 735 403.339 744 407.926 760 L407.926 760 Z M267.926 760 C272.801 777 263.095 785 250.095 785 C238.095 785 222.801 777 217.926 760 C213.339 744 223.758 735 235.758 735 C248.758 735 263.339 744 267.926 760 L267.926 760 Z " />
<glyph glyph-name="Ntilde" unicode="&#xd1;" horiz-adv-x="643" d="M579.566 -5 L754.481 605 L767.804 641 L773.252 660 L731.252 660 L725.804 641 L719.481 605 L572.667 93 L291.252 660 L253.252 660 L247.804 641 L240.481 605 L82.771 55 L69.4482 19 L64 0 L106 0 L111.448 19 L117.771 55 L269.746 585 C368.257 388 465.768 191 564.566 -5 L579.566 -5 Z M396.751 728 L403.751 728 C428.36 765 449.529 790 496.529 790 C534.529 790 569.331 737 607.331 737 C662.331 737 691.941 774 727.712 829 L720.712 829 C695.816 791 673.36 765 627.36 765 C589.36 765 554.271 817 516.271 817 C460.271 817 430.948 781 396.751 728 L396.751 728 Z " />
<glyph glyph-name="Ograve" unicode="&#xd2;" horiz-adv-x="795" d="M165.486 333 C106.417 127 198.133 -10 395.133 -10 C591.133 -10 760.843 125 819.052 328 C877.835 533 786.119 670 590.119 670 C393.119 670 223.409 535 165.486 333 L165.486 333 Z M218.361 350 C269.402 528 411.238 646 574.238 646 C747.238 646 823.814 512 766.178 311 C715.137 133 573.301 15 412.301 15 C238.301 15 160.725 149 218.361 350 L218.361 350 Z M507.748 864 C507.748 864 508.587 846 513.719 836 L583.155 705 L589.155 705 L547.748 864 L507.748 864 Z " />
<glyph glyph-name="Oacute" unicode="&#xd3;" horiz-adv-x="795" d="M165.486 333 C106.417 127 198.133 -10 395.133 -10 C591.133 -10 760.843 125 819.052 328 C877.835 533 786.119 670 590.119 670 C393.119 670 223.409 535 165.486 333 L165.486 333 Z M218.361 350 C269.402 528 411.238 646 574.238 646 C747.238 646 823.814 512 766.178 311 C715.137 133 573.301 15 412.301 15 C238.301 15 160.725 149 218.361 350 L218.361 350 Z M586.155 705 L592.155 705 L736.719 836 C747.587 846 758.748 864 758.748 864 L718.748 864 L586.155 705 Z " />
<glyph glyph-name="Ocircumflex" unicode="&#xd4;" horiz-adv-x="795" d="M165.486 333 C106.417 127 198.133 -10 395.133 -10 C591.133 -10 760.843 125 819.052 328 C877.835 533 786.119 670 590.119 670 C393.119 670 223.409 535 165.486 333 L165.486 333 Z M218.361 350 C269.402 528 411.238 646 574.238 646 C747.238 646 823.814 512 766.178 311 C715.137 133 573.301 15 412.301 15 C238.301 15 160.725 149 218.361 350 L218.361 350 Z M621.175 862 L453.442 706 L459.442 706 L618.705 822 L715.729 707 L720.729 707 L721.442 706 L721.729 707 L720.729 707 L638.035 865 L623.035 865 L621.175 862 Z " />
<glyph glyph-name="Otilde" unicode="&#xd5;" horiz-adv-x="795" d="M165.486 333 C106.417 127 198.133 -10 395.133 -10 C591.133 -10 760.843 125 819.052 328 C877.835 533 786.119 670 590.119 670 C393.119 670 223.409 535 165.486 333 L165.486 333 Z M218.361 350 C269.402 528 411.238 646 574.238 646 C747.238 646 823.814 512 766.178 311 C715.137 133 573.301 15 412.301 15 C238.301 15 160.725 149 218.361 350 L218.361 350 Z M446.751 728 C471.36 765 492.529 790 540.529 790 C578.529 790 613.331 737 650.331 737 C705.331 737 734.941 774 770.712 829 L764.712 829 C739.816 791 717.36 765 670.36 765 C633.36 765 598.271 817 560.271 817 C504.271 817 474.948 781 440.751 728 L446.751 728 Z " />
<glyph glyph-name="Odieresis" unicode="&#xd6;" horiz-adv-x="795" d="M395.133 -10 C591.133 -10 760.843 125 819.052 328 C877.835 533 786.119 670 590.119 670 C393.119 670 223.409 535 165.486 333 C106.417 127 198.133 -10 395.133 -10 L395.133 -10 Z M574.238 646 C747.238 646 823.814 512 766.178 311 C715.137 133 573.301 15 412.301 15 C238.301 15 160.725 149 218.361 350 C269.402 528 411.238 646 574.238 646 L574.238 646 Z M695.926 760 C700.801 777 691.095 785 678.095 785 C666.095 785 650.801 777 645.926 760 C641.339 744 651.758 735 663.758 735 C676.758 735 691.339 744 695.926 760 L695.926 760 Z M505.926 760 C501.339 744 511.758 735 523.758 735 C536.758 735 551.339 744 555.926 760 C560.801 777 551.095 785 538.095 785 C526.095 785 510.801 777 505.926 760 L505.926 760 Z " />
<glyph glyph-name="Oslash" unicode="&#xd8;" horiz-adv-x="795" d="M165.199 332 C136.238 231 143.865 146 182.66 86 L67.1325 -10 L102.133 -10 L196.499 68 C238.161 18 306.133 -10 395.133 -10 C591.133 -10 760.843 125 819.052 328 C848.014 429 840.387 514 801.592 574 L917.119 670 L883.119 670 L788.467 591 C746.804 641 678.833 669 589.833 669 C392.833 669 223.122 534 165.199 332 L165.199 332 Z M572.951 645 C655.951 645 717.062 614 751.577 560 L220.836 118 C192.467 176 190.12 255 217.074 349 C268.115 527 409.951 645 572.951 645 L572.951 645 Z M232.101 98 L761.843 540 C789.211 482 791.558 403 764.604 309 C713.564 131 571.728 13 410.728 13 C327.728 13 266.617 44 232.101 98 L232.101 98 Z " />
<glyph glyph-name="Ugrave" unicode="&#xd9;" horiz-adv-x="658" d="M146.098 234 C104.234 88 178.133 -10 332.133 -10 C486.133 -10 616.234 88 658.098 234 L764.481 605 L777.804 641 L783.252 660 L741.252 660 L735.804 641 L729.481 605 L619.944 223 C584.961 101 478.448 19 354.448 19 C219.448 19 154.969 108 193.392 242 L297.481 605 L310.804 641 L316.252 660 L265.252 660 L259.804 641 L252.481 605 L146.098 234 Z M476.719 836 L546.155 705 L552.155 705 L510.748 864 L470.748 864 C470.748 864 471.587 846 476.719 836 L476.719 836 Z " />
<glyph glyph-name="Uacute" unicode="&#xda;" horiz-adv-x="658" d="M146.098 234 C104.234 88 178.133 -10 332.133 -10 C486.133 -10 616.234 88 658.098 234 L764.481 605 L777.804 641 L783.252 660 L741.252 660 L735.804 641 L729.481 605 L619.944 223 C584.961 101 478.448 19 354.448 19 C219.448 19 154.969 108 193.392 242 L297.481 605 L310.804 641 L316.252 660 L265.252 660 L259.804 641 L252.481 605 L146.098 234 Z M545.155 705 L689.719 836 C700.587 846 711.748 864 711.748 864 L671.748 864 L539.155 705 L545.155 705 Z " />
<glyph glyph-name="Ucircumflex" unicode="&#xdb;" horiz-adv-x="658" d="M619.944 223 C584.961 101 478.448 19 354.448 19 C219.448 19 154.969 108 193.392 242 L297.481 605 L310.804 641 L316.252 660 L265.252 660 L259.804 641 L252.481 605 L146.098 234 C104.234 88 178.133 -10 332.133 -10 C486.133 -10 616.234 88 658.098 234 L764.481 605 L777.804 641 L783.252 660 L741.252 660 L735.804 641 L729.481 605 L619.944 223 Z M416.442 706 L422.442 706 L581.705 822 L678.729 707 L683.729 707 L684.442 706 L684.729 707 L683.729 707 L601.035 865 L586.035 865 L584.175 862 L416.442 706 Z " />
<glyph glyph-name="Udieresis" unicode="&#xdc;" horiz-adv-x="658" d="M252.481 605 L146.098 234 C104.234 88 178.133 -10 332.133 -10 C486.133 -10 616.234 88 658.098 234 L764.481 605 L777.804 641 L783.252 660 L741.252 660 L735.804 641 L729.481 605 L619.944 223 C584.961 101 478.448 19 354.448 19 C219.448 19 154.969 108 193.392 242 L297.481 605 L310.804 641 L316.252 660 L265.252 660 L259.804 641 L252.481 605 Z M607.926 760 C603.339 744 613.758 735 625.758 735 C638.758 735 653.339 744 657.926 760 C662.801 777 653.095 785 640.095 785 C628.095 785 612.801 777 607.926 760 L607.926 760 Z M467.926 760 C463.339 744 473.758 735 485.758 735 C498.758 735 513.339 744 517.926 760 C522.801 777 513.095 785 500.095 785 C488.095 785 472.801 777 467.926 760 L467.926 760 Z " />
<glyph glyph-name="Yacute" unicode="&#xdd;" horiz-adv-x="656" d="M363.287 1 L368.735 20 L376.058 56 L447.171 304 C554.279 409 661.674 515 769.782 620 L797.238 646 C804.818 655 810.252 660 810.252 660 L772.252 660 L764.385 650 C746.65 630 765.098 649 726.201 611 L440.913 331 C388.734 435 336.269 538 282.804 641 C282.377 643 278.252 660 278.252 660 L224.252 660 L401.884 303 L331.058 56 L317.735 20 L312.287 1 L363.287 1 Z M531.155 705 L537.155 705 L681.719 836 C692.587 846 703.748 864 703.748 864 L663.748 864 L531.155 705 Z " />
<glyph glyph-name="agrave" unicode="&#xe0;" horiz-adv-x="480" d="M394.072 70 L473.787 348 C492.999 415 459.903 460 369.903 460 C274.903 460 187.132 405 166.199 332 C163.619 323 166.185 318 172.185 318 L198.185 318 L204.619 323 L207.06 335 C223.691 393 285.308 437 349.308 437 C421.308 437 446.838 397 429.633 337 L406.98 258 C214.084 220 101.446 155 81.3734 85 C65.0289 28 100.133 -10 168.133 -10 C232.133 -10 300.014 14 351.491 61 C343.161 18 362.133 -10 400.133 -10 C429.133 -10 463.154 11 484.043 42 L483.904 45 C473.316 29 453.448 19 433.448 19 C401.448 19 385.183 39 394.072 70 L394.072 70 Z M402.532 239 L355.219 74 C314.183 39 257.022 21 200.022 21 C142.022 21 111.624 51 124.241 95 C140.872 153 237.356 207 402.532 239 L402.532 239 Z M322.84 676 L387.975 530 L393.975 530 L357.729 707 L317.729 707 C317.729 707 317.994 687 322.84 676 L322.84 676 Z " />
<glyph glyph-name="aacute" unicode="&#xe1;" horiz-adv-x="480" d="M473.787 348 C492.999 415 459.903 460 369.903 460 C274.903 460 187.132 405 166.199 332 C163.619 323 166.185 318 172.185 318 L198.185 318 L204.619 323 L207.06 335 C223.691 393 285.308 437 349.308 437 C421.308 437 446.838 397 429.633 337 L406.98 258 C214.084 220 101.446 155 81.3734 85 C65.0289 28 100.133 -10 168.133 -10 C232.133 -10 300.014 14 351.491 61 C343.161 18 362.133 -10 400.133 -10 C429.133 -10 463.154 11 484.043 42 L483.904 45 C473.316 29 453.448 19 433.448 19 C401.448 19 385.183 39 394.072 70 L473.787 348 Z M124.241 95 C140.872 153 237.356 207 402.532 239 L355.219 74 C314.183 39 257.022 21 200.022 21 C142.022 21 111.624 51 124.241 95 L124.241 95 Z M396.975 530 L545.84 676 C556.994 687 568.729 707 568.729 707 L528.729 707 L390.975 530 L396.975 530 Z " />
<glyph glyph-name="acircumflex" unicode="&#xe2;" horiz-adv-x="480" d="M473.787 348 C492.999 415 459.903 460 369.903 460 C274.903 460 187.132 405 166.199 332 C163.619 323 166.185 318 172.185 318 L198.185 318 L204.619 323 L207.06 335 C223.691 393 285.308 437 349.308 437 C421.308 437 446.838 397 429.633 337 L406.98 258 C214.084 220 101.446 155 81.3734 85 C65.0289 28 100.133 -10 168.133 -10 C232.133 -10 300.014 14 351.491 61 C343.161 18 362.133 -10 400.133 -10 C429.133 -10 463.154 11 484.043 42 L483.904 45 C473.316 29 453.448 19 433.448 19 C401.448 19 385.183 39 394.072 70 L473.787 348 Z M124.241 95 C140.872 153 237.356 207 402.532 239 L355.219 74 C314.183 39 257.022 21 200.022 21 C142.022 21 111.624 51 124.241 95 L124.241 95 Z M263.975 530 L426.678 658 L519.975 530 L525.975 530 L447.155 705 L432.155 705 L257.975 530 L263.975 530 Z " />
<glyph glyph-name="atilde" unicode="&#xe3;" horiz-adv-x="480" d="M473.787 348 C492.999 415 459.903 460 369.903 460 C274.903 460 187.132 405 166.199 332 C163.619 323 166.185 318 172.185 318 L198.185 318 L204.619 323 L207.06 335 C223.691 393 285.308 437 349.308 437 C421.308 437 446.838 397 429.633 337 L406.98 258 C214.084 220 101.446 155 81.3734 85 C65.0289 28 100.133 -10 168.133 -10 C232.133 -10 300.014 14 351.491 61 C343.161 18 362.133 -10 400.133 -10 C429.133 -10 463.154 11 484.043 42 L483.904 45 C473.316 29 453.448 19 433.448 19 C401.448 19 385.183 39 394.072 70 L473.787 348 Z M124.241 95 C140.872 153 237.356 207 402.532 239 L355.219 74 C314.183 39 257.022 21 200.022 21 C142.022 21 111.624 51 124.241 95 L124.241 95 Z M237.144 555 C263.187 597 285.216 625 332.216 625 C370.216 625 403.298 566 441.298 566 C496.298 566 527.054 607 564.546 668 L557.546 668 C531.216 625 507.9 596 461.9 596 C423.9 596 390.531 654 352.531 654 C296.531 654 266.062 614 230.144 555 L237.144 555 Z " />
<glyph glyph-name="adieresis" unicode="&#xe4;" horiz-adv-x="480" d="M204.619 323 L207.06 335 C223.691 393 285.308 437 349.308 437 C421.308 437 446.838 397 429.633 337 L406.98 258 C214.084 220 101.446 155 81.3734 85 C65.0289 28 100.133 -10 168.133 -10 C232.133 -10 300.014 14 351.491 61 C343.161 18 362.133 -10 400.133 -10 C429.133 -10 463.154 11 484.043 42 L483.904 45 C473.316 29 453.448 19 433.448 19 C401.448 19 385.183 39 394.072 70 L473.787 348 C492.999 415 459.903 460 369.903 460 C274.903 460 187.132 405 166.199 332 C163.619 323 166.185 318 172.185 318 L198.185 318 L204.619 323 Z M200.022 21 C142.022 21 111.624 51 124.241 95 C140.872 153 237.356 207 402.532 239 L355.219 74 C314.183 39 257.022 21 200.022 21 L200.022 21 Z M437.614 595 C433.026 579 443.445 570 455.445 570 C468.445 570 483.026 579 487.614 595 C492.488 612 482.782 620 469.782 620 C457.782 620 442.488 612 437.614 595 L437.614 595 Z M297.614 595 C293.026 579 303.445 570 315.445 570 C328.445 570 343.026 579 347.614 595 C352.488 612 342.782 620 329.782 620 C317.782 620 302.488 612 297.614 595 L297.614 595 Z " />
<glyph glyph-name="aring" unicode="&#xe5;" horiz-adv-x="480" d="M394.072 70 L473.787 348 C492.999 415 459.903 460 369.903 460 C274.903 460 187.132 405 166.199 332 C163.619 323 166.185 318 172.185 318 L198.185 318 L204.619 323 L207.06 335 C223.691 393 285.308 437 349.308 437 C421.308 437 446.838 397 429.633 337 L406.98 258 C214.084 220 101.446 155 81.3734 85 C65.0289 28 100.133 -10 168.133 -10 C232.133 -10 300.014 14 351.491 61 C343.161 18 362.133 -10 400.133 -10 C429.133 -10 463.154 11 484.043 42 L483.904 45 C473.316 29 453.448 19 433.448 19 C401.448 19 385.183 39 394.072 70 L394.072 70 Z M124.241 95 C140.872 153 237.356 207 402.532 239 L355.219 74 C314.183 39 257.022 21 200.022 21 C142.022 21 111.624 51 124.241 95 L124.241 95 Z M380.409 535 C423.409 535 469.732 571 481.775 613 C494.678 658 471.281 688 424.281 688 C377.281 688 336.678 658 323.488 612 C311.445 570 337.409 535 380.409 535 L380.409 535 Z M349.348 615 C359.958 652 387.84 676 419.84 676 C453.84 676 468.098 649 456.628 609 C447.165 576 414.85 547 385.85 547 C355.85 547 338.739 578 349.348 615 L349.348 615 Z " />
<glyph glyph-name="ccedilla" unicode="&#xe7;" horiz-adv-x="477" d="M538.684 386 C520.455 441 476.903 460 411.903 460 C272.903 460 152.228 360 109.217 210 C71.9396 80 128.993 -7 252.419 -9 C244.552 -19 210.362 -65 161.723 -130 L174.716 -137 C219.128 -153 246.393 -173 242.665 -186 C236.07 -209 215.482 -225 191.482 -225 C158.482 -225 129.203 -219 119.07 -209 L117.636 -214 C133.335 -229 164.468 -239 194.468 -239 C231.468 -239 263.35 -215 273.959 -178 C280.554 -155 250.583 -127 197.318 -107 C236.516 -54 264.412 -16 270.706 -8 C337.14 -3 411.896 38 461.101 98 L462.248 102 L457.675 100 C404.058 56 336.742 27 289.742 27 C174.742 27 121.255 109 156.812 233 C192.368 357 285.881 439 389.881 439 C433.881 439 473.146 419 487.257 388 L503.221 353 L507.221 353 L509.655 358 L541.25 381 L538.684 386 Z " />
<glyph glyph-name="egrave" unicode="&#xe8;" horiz-adv-x="483" d="M112.217 210 C74.3661 78 133.133 -10 260.133 -10 C329.133 -10 410.176 32 462.528 96 L463.675 100 L459.675 100 C406.058 56 338.742 27 291.742 27 C172.742 27 120.689 114 162.253 245 L487.253 245 L505.826 247 C542.53 375 497.903 460 394.903 460 C267.903 460 155.228 360 112.217 210 L112.217 210 Z M168.848 268 C209.669 372 289.881 439 377.881 439 C460.881 439 497.383 371 474.848 268 L168.848 268 Z M336.84 676 L401.975 530 L407.975 530 L371.729 707 L331.729 707 C331.729 707 331.994 687 336.84 676 L336.84 676 Z " />
<glyph glyph-name="eacute" unicode="&#xe9;" horiz-adv-x="483" d="M112.217 210 C74.3661 78 133.133 -10 260.133 -10 C329.133 -10 410.176 32 462.528 96 L463.675 100 L459.675 100 C406.058 56 338.742 27 291.742 27 C172.742 27 120.689 114 162.253 245 L487.253 245 L505.826 247 C542.53 375 497.903 460 394.903 460 C267.903 460 155.228 360 112.217 210 L112.217 210 Z M168.848 268 C209.669 372 289.881 439 377.881 439 C460.881 439 497.383 371 474.848 268 L168.848 268 Z M404.975 530 L410.975 530 L559.84 676 C570.994 687 582.729 707 582.729 707 L542.729 707 L404.975 530 Z " />
<glyph glyph-name="ecircumflex" unicode="&#xea;" horiz-adv-x="483" d="M260.133 -10 C329.133 -10 410.176 32 462.528 96 L463.675 100 L459.675 100 C406.058 56 338.742 27 291.742 27 C172.742 27 120.689 114 162.253 245 L487.253 245 L505.826 247 C542.53 375 497.903 460 394.903 460 C267.903 460 155.228 360 112.217 210 C74.3661 78 133.133 -10 260.133 -10 L260.133 -10 Z M168.848 268 C209.669 372 289.881 439 377.881 439 C460.881 439 497.383 371 474.848 268 L168.848 268 Z M277.975 530 L440.678 658 L533.975 530 L539.975 530 L461.155 705 L446.155 705 L271.975 530 L277.975 530 Z " />
<glyph glyph-name="edieresis" unicode="&#xeb;" horiz-adv-x="483" d="M162.253 245 L487.253 245 L505.826 247 C542.53 375 497.903 460 394.903 460 C267.903 460 155.228 360 112.217 210 C74.3661 78 133.133 -10 260.133 -10 C329.133 -10 410.176 32 462.528 96 L463.675 100 L459.675 100 C406.058 56 338.742 27 291.742 27 C172.742 27 120.689 114 162.253 245 L162.253 245 Z M168.848 268 C209.669 372 289.881 439 377.881 439 C460.881 439 497.383 371 474.848 268 L168.848 268 Z M467.614 595 C463.026 579 473.445 570 485.445 570 C498.445 570 513.026 579 517.614 595 C522.488 612 512.782 620 499.782 620 C487.782 620 472.488 612 467.614 595 L467.614 595 Z M377.614 595 C382.488 612 372.782 620 359.782 620 C347.782 620 332.488 612 327.614 595 C323.026 579 333.445 570 345.445 570 C358.445 570 373.026 579 377.614 595 L377.614 595 Z " />
<glyph glyph-name="igrave" unicode="&#xec;" horiz-adv-x="151" d="M176.44 427 C165.97 387 159.515 361 159.515 361 L70.3373 50 L59.1614 18 L54 0 L98 0 L103.161 18 L110.337 50 L227.903 460 L219.903 460 L181.602 445 L176.44 427 Z M151.729 707 C151.729 707 151.994 687 156.84 676 L221.975 530 L227.975 530 L191.729 707 L151.729 707 Z " />
<glyph glyph-name="iacute" unicode="&#xed;" horiz-adv-x="151" d="M54 0 L98 0 L103.161 18 L110.337 50 L227.903 460 L219.903 460 L181.602 445 L176.44 427 C165.97 387 159.515 361 159.515 361 L70.3373 50 L59.1614 18 L54 0 Z M230.975 530 L379.84 676 C390.994 687 402.729 707 402.729 707 L362.729 707 L224.975 530 L230.975 530 Z " />
<glyph glyph-name="icircumflex" unicode="&#xee;" horiz-adv-x="151" d="M176.44 427 C165.97 387 159.515 361 159.515 361 L70.3373 50 L59.1614 18 L54 0 L98 0 L103.161 18 L110.337 50 L227.903 460 L219.903 460 L181.602 445 L176.44 427 Z M91.9751 530 L97.9751 530 L260.678 658 L353.975 530 L359.975 530 L281.155 705 L266.155 705 L91.9751 530 Z " />
<glyph glyph-name="idieresis" unicode="&#xef;" horiz-adv-x="151" d="M176.44 427 C165.97 387 159.515 361 159.515 361 L70.3373 50 L59.1614 18 L54 0 L98 0 L103.161 18 L110.337 50 L227.903 460 L219.903 460 L181.602 445 L176.44 427 Z M336.614 595 C341.488 612 331.782 620 318.782 620 C306.782 620 291.488 612 286.614 595 C282.026 579 292.445 570 304.445 570 C317.445 570 332.026 579 336.614 595 L336.614 595 Z M146.614 595 C142.026 579 151.445 570 164.445 570 C177.445 570 192.026 579 196.614 595 C201.488 612 191.782 620 178.782 620 C165.782 620 151.488 612 146.614 595 L146.614 595 Z " />
<glyph glyph-name="ntilde" unicode="&#xf1;" horiz-adv-x="454" d="M426.337 50 L510.354 343 C530.426 413 483.903 460 394.903 460 C326.903 460 262.44 427 199.816 376 L201.537 382 C208.852 411 221.903 460 221.903 460 L213.903 460 L177.602 445 L172.44 427 C161.97 387 155.515 361 155.515 361 L66.3373 50 L55.1614 18 L50 0 L95 0 L100.161 18 L106.337 50 L195.515 361 C243.698 400 297.867 425 362.867 425 C441.867 425 481.823 383 463.759 320 L386.337 50 L374.161 18 L369 0 L414 0 L419.161 18 L426.337 50 Z M567.546 668 C541.216 625 517.9 596 471.9 596 C433.9 596 400.531 654 362.531 654 C306.531 654 276.062 614 240.144 555 L247.144 555 C273.187 597 295.216 625 342.216 625 C380.216 625 413.298 566 451.298 566 C506.298 566 537.054 607 574.546 668 L567.546 668 Z " />
<glyph glyph-name="ograve" unicode="&#xf2;" horiz-adv-x="527" d="M114.518 225 C74.0866 84 133.133 -10 261.133 -10 C402.133 -10 501.087 84 541.518 225 C581.949 366 523.903 460 395.903 460 C254.903 460 154.949 366 114.518 225 L114.518 225 Z M160.518 225 C197.221 353 276.881 439 382.881 439 C486.881 439 532.221 353 495.518 225 C458.814 97 379.154 11 273.154 11 C169.154 11 123.814 97 160.518 225 L160.518 225 Z M348.84 676 L413.975 530 L419.975 530 L383.729 707 L343.729 707 C343.729 707 343.994 687 348.84 676 L348.84 676 Z " />
<glyph glyph-name="oacute" unicode="&#xf3;" horiz-adv-x="527" d="M261.133 -10 C402.133 -10 501.087 84 541.518 225 C581.949 366 523.903 460 395.903 460 C254.903 460 154.949 366 114.518 225 C74.0866 84 133.133 -10 261.133 -10 L261.133 -10 Z M160.518 225 C197.221 353 276.881 439 382.881 439 C486.881 439 532.221 353 495.518 225 C458.814 97 379.154 11 273.154 11 C169.154 11 123.814 97 160.518 225 L160.518 225 Z M422.975 530 L571.84 676 C582.994 687 594.729 707 594.729 707 L554.729 707 L416.975 530 L422.975 530 Z " />
<glyph glyph-name="ocircumflex" unicode="&#xf4;" horiz-adv-x="527" d="M114.518 225 C74.0866 84 133.133 -10 261.133 -10 C402.133 -10 501.087 84 541.518 225 C581.949 366 523.903 460 395.903 460 C254.903 460 154.949 366 114.518 225 L114.518 225 Z M160.518 225 C197.221 353 276.881 439 382.881 439 C486.881 439 532.221 353 495.518 225 C458.814 97 379.154 11 273.154 11 C169.154 11 123.814 97 160.518 225 L160.518 225 Z M289.975 530 L452.678 658 L545.975 530 L551.975 530 L473.155 705 L458.155 705 L283.975 530 L289.975 530 Z " />
<glyph glyph-name="otilde" unicode="&#xf5;" horiz-adv-x="527" d="M114.518 225 C74.0866 84 133.133 -10 261.133 -10 C402.133 -10 501.087 84 541.518 225 C581.949 366 523.903 460 395.903 460 C254.903 460 154.949 366 114.518 225 L114.518 225 Z M160.518 225 C197.221 353 276.881 439 382.881 439 C486.881 439 532.221 353 495.518 225 C458.814 97 379.154 11 273.154 11 C169.154 11 123.814 97 160.518 225 L160.518 225 Z M278.144 555 C304.187 597 326.216 625 374.216 625 C412.216 625 445.298 566 482.298 566 C537.298 566 568.054 607 605.546 668 L599.546 668 C573.216 625 549.9 596 502.9 596 C465.9 596 432.531 654 394.531 654 C338.531 654 308.062 614 272.144 555 L278.144 555 Z " />
<glyph glyph-name="odieresis" unicode="&#xf6;" horiz-adv-x="527" d="M261.133 -10 C402.133 -10 501.087 84 541.518 225 C581.949 366 523.903 460 395.903 460 C254.903 460 154.949 366 114.518 225 C74.0866 84 133.133 -10 261.133 -10 L261.133 -10 Z M382.881 439 C486.881 439 532.221 353 495.518 225 C458.814 97 379.154 11 273.154 11 C169.154 11 123.814 97 160.518 225 C197.221 353 276.881 439 382.881 439 L382.881 439 Z M529.614 595 C534.488 612 524.782 620 511.782 620 C499.782 620 484.488 612 479.614 595 C475.026 579 485.445 570 497.445 570 C510.445 570 525.026 579 529.614 595 L529.614 595 Z M339.614 595 C335.026 579 345.445 570 357.445 570 C370.445 570 385.026 579 389.614 595 C394.488 612 384.782 620 371.782 620 C359.782 620 344.488 612 339.614 595 L339.614 595 Z " />
<glyph glyph-name="oslash" unicode="&#xf8;" horiz-adv-x="527" d="M520.566 410 C493.455 441 451.616 459 396.616 459 C255.616 459 155.662 365 114.231 224 C94.4455 155 99.101 98 123.344 57 L47.1325 -10 L80.1325 -10 L135.183 39 C162.007 7 204.846 -11 260.846 -11 C401.846 -11 500.8 83 541.231 224 C561.016 293 557.648 351 533.404 392 L608.616 459 L575.616 459 L520.566 410 Z M161.518 225 C198.221 353 277.881 439 383.881 439 C433.881 439 470.146 419 490.11 384 L490.823 383 L157.947 87 C145.27 123 145.747 170 161.518 225 L161.518 225 Z M166.925 66 L499.089 363 C511.766 327 511.289 280 495.518 225 C458.814 97 379.154 11 273.154 11 C223.154 11 186.889 31 166.925 66 L166.925 66 Z " />
<glyph glyph-name="ugrave" unicode="&#xf9;" horiz-adv-x="416" d="M171.133 -10 C220.133 -10 293.022 21 370.94 80 L348 0 L391 0 L396.161 18 L402.337 50 L517.035 450 L474.035 450 L468.874 432 L462.698 400 L375.528 96 C314.337 50 252.455 26 204.455 26 C127.455 26 87.4987 68 105.564 131 L197.035 450 L155.035 450 L149.874 432 L142.698 400 L58.6818 107 C38.6096 37 83.1325 -10 171.133 -10 L171.133 -10 Z M288.84 676 L353.975 530 L359.975 530 L323.729 707 L283.729 707 C283.729 707 283.994 687 288.84 676 L288.84 676 Z " />
<glyph glyph-name="uacute" unicode="&#xfa;" horiz-adv-x="416" d="M171.133 -10 C220.133 -10 293.022 21 370.94 80 L348 0 L391 0 L396.161 18 L402.337 50 L517.035 450 L474.035 450 L468.874 432 L462.698 400 L375.528 96 C314.337 50 252.455 26 204.455 26 C127.455 26 87.4987 68 105.564 131 L197.035 450 L155.035 450 L149.874 432 L142.698 400 L58.6818 107 C38.6096 37 83.1325 -10 171.133 -10 L171.133 -10 Z M362.975 530 L511.84 676 C522.994 687 534.729 707 534.729 707 L494.729 707 L356.975 530 L362.975 530 Z " />
<glyph glyph-name="ucircumflex" unicode="&#xfb;" horiz-adv-x="416" d="M197.035 450 L155.035 450 L149.874 432 L142.698 400 L58.6818 107 C38.6096 37 83.1325 -10 171.133 -10 C220.133 -10 293.022 21 370.94 80 L348 0 L391 0 L396.161 18 L402.337 50 L517.035 450 L474.035 450 L468.874 432 L462.698 400 L375.528 96 C314.337 50 252.455 26 204.455 26 C127.455 26 87.4987 68 105.564 131 L197.035 450 Z M223.975 530 L229.975 530 L392.678 658 L485.975 530 L491.975 530 L413.155 705 L398.155 705 L223.975 530 Z " />
<glyph glyph-name="udieresis" unicode="&#xfc;" horiz-adv-x="416" d="M149.874 432 L142.698 400 L58.6818 107 C38.6096 37 83.1325 -10 171.133 -10 C220.133 -10 293.022 21 370.94 80 L348 0 L391 0 L396.161 18 L402.337 50 L517.035 450 L474.035 450 L468.874 432 L462.698 400 L375.528 96 C314.337 50 252.455 26 204.455 26 C127.455 26 87.4987 68 105.564 131 L197.035 450 L155.035 450 L149.874 432 Z M468.614 595 C473.488 612 463.782 620 450.782 620 C438.782 620 423.488 612 418.614 595 C414.026 579 424.445 570 436.445 570 C449.445 570 464.026 579 468.614 595 L468.614 595 Z M328.614 595 C333.488 612 323.782 620 310.782 620 C298.782 620 283.488 612 278.614 595 C274.026 579 284.445 570 296.445 570 C309.445 570 324.026 579 328.614 595 L328.614 595 Z " />
<glyph glyph-name="yacute" unicode="&#xfd;" horiz-adv-x="381" d="M107.609 452 C107.609 452 108.602 445 108.874 432 C145.156 290 166.041 178 203.007 7 L142.774 -81 C85.9738 -164 42.7979 -196 -12.2021 -196 L-32.2021 -196 L-37.3491 -200 L-43.9442 -223 C-47.0984 -234 -43.2454 -238 -31.2454 -238 C31.7546 -238 85.7979 -196 158.766 -88 C270.219 74 381.672 236 493.838 397 L520.161 433 C521.734 435 523.021 436 523.021 436 C528.888 446 532.609 452 532.609 452 L506.609 452 C501.455 441 499.308 437 497.161 433 L237.058 56 L156.161 433 C155.734 435 156.035 450 156.609 452 L107.609 452 Z M351.975 530 L357.975 530 L506.84 676 C517.994 687 529.729 707 529.729 707 L489.729 707 L351.975 530 Z " />
<glyph glyph-name="ydieresis" unicode="&#xff;" horiz-adv-x="381" d="M108.874 432 C145.156 290 166.041 178 203.007 7 L142.774 -81 C85.9738 -164 42.7979 -196 -12.2021 -196 L-32.2021 -196 L-37.3491 -200 L-43.9442 -223 C-47.0984 -234 -43.2454 -238 -31.2454 -238 C31.7546 -238 85.7979 -196 158.766 -88 C270.219 74 381.672 236 493.838 397 L520.161 433 C521.734 435 523.021 436 523.021 436 C528.888 446 532.609 452 532.609 452 L506.609 452 C501.455 441 499.308 437 497.161 433 L237.058 56 L156.161 433 C155.734 435 156.035 450 156.609 452 L107.609 452 C107.609 452 108.602 445 108.874 432 L108.874 432 Z M413.614 595 C409.026 579 419.445 570 431.445 570 C444.445 570 459.026 579 463.614 595 C468.488 612 458.782 620 445.782 620 C433.782 620 418.488 612 413.614 595 L413.614 595 Z M273.614 595 C269.026 579 279.445 570 291.445 570 C304.445 570 319.026 579 323.614 595 C328.488 612 318.782 620 305.782 620 C293.782 620 278.488 612 273.614 595 L273.614 595 Z " />
<glyph glyph-name="Amacron" unicode="&#x100;" horiz-adv-x="649" d="M561.287 1 L612.287 1 C612.287 1 615.441 12 611.875 17 L606.904 45 L522.972 666 L500.972 666 L481.23 639 L480.944 638 C281.795 355 132.005 143 66.624 51 L41.4482 19 C37.4409 12 31.2867 1 31.2867 1 L69.2867 1 C67.2867 1 77.1614 18 78.4482 19 L100.337 50 C130.954 94 178.739 163 242.833 254 L532.833 254 L532.407 256 L534.833 254 L532.833 254 L562.875 17 C562.301 15 561.287 1 561.287 1 L561.287 1 Z M260.862 282 C323.669 372 399.638 480 485.334 601 L527.862 282 L260.862 282 Z M680.389 793 L414.389 793 L407.22 768 L673.22 768 L680.389 793 Z " />
<glyph glyph-name="amacron" unicode="&#x101;" horiz-adv-x="480" d="M394.072 70 L473.787 348 C492.999 415 459.903 460 369.903 460 C274.903 460 187.132 405 166.199 332 C163.619 323 166.185 318 172.185 318 L198.185 318 L204.619 323 L207.06 335 C223.691 393 285.308 437 349.308 437 C421.308 437 446.838 397 429.633 337 L406.98 258 C214.084 220 101.446 155 81.3734 85 C65.0289 28 100.133 -10 168.133 -10 C232.133 -10 300.014 14 351.491 61 C343.161 18 362.133 -10 400.133 -10 C429.133 -10 463.154 11 484.043 42 L483.904 45 C473.316 29 453.448 19 433.448 19 C401.448 19 385.183 39 394.072 70 L394.072 70 Z M124.241 95 C140.872 153 237.356 207 402.532 239 L355.219 74 C314.183 39 257.022 21 200.022 21 C142.022 21 111.624 51 124.241 95 L124.241 95 Z M272.642 623 L265.474 598 L531.474 598 L538.642 623 L272.642 623 Z " />
<glyph glyph-name="Abreve" unicode="&#x102;" horiz-adv-x="649" d="M612.287 1 C612.287 1 615.441 12 611.875 17 L606.904 45 L522.972 666 L500.972 666 L481.23 639 L480.944 638 C281.795 355 132.005 143 66.624 51 L41.4482 19 C37.4409 12 31.2867 1 31.2867 1 L69.2867 1 C67.2867 1 77.1614 18 78.4482 19 L100.337 50 C130.954 94 178.739 163 242.833 254 L532.833 254 L532.407 256 L534.833 254 L532.833 254 L562.875 17 C562.301 15 561.287 1 561.287 1 L612.287 1 Z M260.862 282 C323.669 372 399.638 480 485.334 601 L527.862 282 L260.862 282 Z M421.432 835 C427.486 748 456.736 714 524.736 714 C591.736 714 640.486 748 696.146 834 L689.146 834 C647.507 769 603.339 744 533.339 744 C462.339 744 432.507 769 428.146 834 L428.432 835 L421.432 835 Z " />
<glyph glyph-name="abreve" unicode="&#x103;" horiz-adv-x="480" d="M394.072 70 L473.787 348 C492.999 415 459.903 460 369.903 460 C274.903 460 187.132 405 166.199 332 C163.619 323 166.185 318 172.185 318 L198.185 318 L204.619 323 L207.06 335 C223.691 393 285.308 437 349.308 437 C421.308 437 446.838 397 429.633 337 L406.98 258 C214.084 220 101.446 155 81.3734 85 C65.0289 28 100.133 -10 168.133 -10 C232.133 -10 300.014 14 351.491 61 C343.161 18 362.133 -10 400.133 -10 C429.133 -10 463.154 11 484.043 42 L483.904 45 C473.316 29 453.448 19 433.448 19 C401.448 19 385.183 39 394.072 70 L394.072 70 Z M402.532 239 L355.219 74 C314.183 39 257.022 21 200.022 21 C142.022 21 111.624 51 124.241 95 C140.872 153 237.356 207 402.532 239 L402.532 239 Z M282.266 674 C285.739 578 313.843 540 381.843 540 C449.843 540 499.739 578 558.266 674 L551.266 674 C507.621 602 462.592 574 391.592 574 C320.592 574 291.621 602 289.266 674 L282.266 674 Z " />
<glyph glyph-name="Cacute" unicode="&#x106;" horiz-adv-x="712" d="M158.612 316 C102.983 122 196.706 -8 393.706 -8 C483.706 -8 578.728 13 632.617 44 L644.079 77 L629.506 75 C623.646 72 560.33 43 560.33 43 C510.455 26 452.588 16 401.588 16 C232.588 16 155.718 142 209.626 330 C264.108 520 418.238 646 596.238 646 C640.238 646 682.944 638 715.929 624 L721.069 621 C735.201 611 752.76 599 766.893 589 C771.893 589 777.18 590 783.18 590 L791.642 623 C764.958 652 689.693 672 602.693 672 C397.693 672 219.975 530 158.612 316 L158.612 316 Z M577.155 705 L721.719 836 C732.587 846 743.748 864 743.748 864 L703.748 864 L571.155 705 L577.155 705 Z " />
<glyph glyph-name="cacute" unicode="&#x107;" horiz-adv-x="477" d="M388.881 439 C432.881 439 472.146 419 486.257 388 L502.221 353 L506.221 353 L508.655 358 L540.25 381 C540.537 382 539.823 383 538.684 386 C521.168 440 474.903 460 411.903 460 C272.903 460 152.228 360 109.217 210 C71.3661 78 130.133 -10 257.133 -10 C326.133 -10 407.176 32 459.528 96 L460.675 100 L456.675 100 C403.058 56 335.742 27 288.742 27 C173.742 27 120.255 109 155.812 233 C191.368 357 284.881 439 388.881 439 L388.881 439 Z M409.975 530 L415.975 530 L564.84 676 C575.994 687 587.729 707 587.729 707 L547.729 707 L409.975 530 Z " />
<glyph glyph-name="Ccaron" unicode="&#x10c;" horiz-adv-x="712" d="M629.506 75 C623.646 72 560.33 43 560.33 43 C510.455 26 452.588 16 401.588 16 C232.588 16 155.718 142 209.626 330 C264.108 520 418.238 646 596.238 646 C640.238 646 682.944 638 715.929 624 L721.069 621 C735.201 611 752.76 599 766.893 589 C771.893 589 777.18 590 783.18 590 L791.642 623 C764.958 652 689.693 672 602.693 672 C397.693 672 219.975 530 158.612 316 C102.983 122 196.706 -8 393.706 -8 C483.706 -8 578.728 13 632.617 44 L644.079 77 L629.506 75 Z M510.895 868 L504.895 868 L583.876 711 L583.589 710 L586.163 712 L598.163 712 L598.876 711 L771.895 868 L772.895 868 L773.182 869 L771.895 868 L766.895 868 L602.633 752 L510.895 868 Z " />
<glyph glyph-name="ccaron" unicode="&#x10d;" horiz-adv-x="477" d="M456.675 100 C403.058 56 335.742 27 288.742 27 C173.742 27 120.255 109 155.812 233 C191.368 357 284.881 439 388.881 439 C432.881 439 472.146 419 486.257 388 L502.221 353 L506.221 353 L508.655 358 L540.25 381 C540.537 382 539.823 383 538.684 386 C521.168 440 474.903 460 411.903 460 C272.903 460 152.228 360 109.217 210 C71.3661 78 130.133 -10 257.133 -10 C326.133 -10 407.176 32 459.528 96 L460.675 100 L456.675 100 Z M402.409 535 L417.409 535 L596.589 710 L590.589 710 L423.886 582 L334.589 710 L328.589 710 L402.409 535 Z " />
<glyph glyph-name="Dcaron" unicode="&#x10e;" horiz-adv-x="687" d="M241.481 605 L83.771 55 L70.4482 19 L65 0 L249 0 C472.294 8 653.99 129 718.795 355 C776.43 556 657.252 660 433.252 660 L254.252 660 L248.804 641 L241.481 605 Z M412.51 633 C615.51 633 722.835 533 666.92 338 C610.144 140 450.749 34 255.742 27 C255.742 27 217.029 28 121.029 28 L294.51 633 L412.51 633 Z M736.895 868 L731.895 868 L567.633 752 L475.895 868 L469.895 868 L548.876 711 L548.589 710 L551.163 712 L563.163 712 L563.876 711 L736.895 868 L737.895 868 L738.182 869 L736.895 868 Z " />
<glyph glyph-name="dcaron" unicode="&#x10f;" horiz-adv-x="496" d="M418.903 460 C275.903 460 149.795 355 104.489 197 C68.9324 73 120.133 -10 232.133 -10 C301.133 -10 375.875 17 423.918 59 C418.47 40 412 0 412 0 L450 0 L455.161 18 L461.337 50 L664.066 757 L656.066 757 L622.199 747 L621.199 747 L618.912 746 L613.324 730 C604.288 695 598.406 671 598.406 671 L531.881 439 C490.609 452 447.903 460 418.903 460 L418.903 460 Z M519.978 394 L429.079 77 C390.904 45 328.882 24 270.882 24 C165.882 24 117.101 98 149.217 210 C188.214 346 291.021 436 406.021 436 C406.021 436 451.433 420 519.978 394 L519.978 394 Z M695.438 563 L811.78 756 C807.772 749 806.199 747 805.199 747 C804.199 747 805.059 750 802.059 750 L765.059 750 L689.438 563 L695.438 563 Z " />
<glyph glyph-name="Emacron" unicode="&#x112;" horiz-adv-x="573" d="M65 0 L503 0 L512.463 33 L495.463 33 L436.029 28 L121.029 28 L206.479 326 C249.479 326 293.766 327 336.766 327 C379.766 327 422.479 326 461.619 323 L484.619 323 L494.368 357 C471.368 357 451.081 356 429.508 354 L214.508 354 L294.51 633 C352.51 633 411.797 634 470.797 634 C529.797 634 588.51 633 641.363 629 L658.363 629 L667.252 660 L254.252 660 L248.804 641 L241.481 605 L83.771 55 L70.4482 19 L65 0 Z M611.22 768 L618.389 793 L352.389 793 L345.22 768 L611.22 768 Z " />
<glyph glyph-name="emacron" unicode="&#x113;" horiz-adv-x="483" d="M162.253 245 L487.253 245 L505.826 247 C542.53 375 497.903 460 394.903 460 C267.903 460 155.228 360 112.217 210 C74.3661 78 133.133 -10 260.133 -10 C329.133 -10 410.176 32 462.528 96 L463.675 100 L459.675 100 C406.058 56 338.742 27 291.742 27 C172.742 27 120.689 114 162.253 245 L162.253 245 Z M377.881 439 C460.881 439 497.383 371 474.848 268 L168.848 268 C209.669 372 289.881 439 377.881 439 L377.881 439 Z M295.474 598 L561.474 598 L568.642 623 L302.642 623 L295.474 598 Z " />
<glyph glyph-name="Edot" unicode="&#x116;" horiz-adv-x="573" d="M65 0 L503 0 L512.463 33 L495.463 33 L436.029 28 L121.029 28 L206.479 326 C249.479 326 293.766 327 336.766 327 C379.766 327 422.479 326 461.619 323 L484.619 323 L494.368 357 C471.368 357 451.081 356 429.508 354 L214.508 354 L294.51 633 C352.51 633 411.797 634 470.797 634 C529.797 634 588.51 633 641.363 629 L658.363 629 L667.252 660 L254.252 660 L248.804 641 L241.481 605 L83.771 55 L70.4482 19 L65 0 Z M509.493 755 C515.228 775 502.808 784 487.808 784 C472.808 784 455.228 775 449.493 755 C444.045 736 456.177 726 471.177 726 C486.177 726 504.045 736 509.493 755 L509.493 755 Z " />
<glyph glyph-name="edot" unicode="&#x117;" horiz-adv-x="483" d="M112.217 210 C74.3661 78 133.133 -10 260.133 -10 C329.133 -10 410.176 32 462.528 96 L463.675 100 L459.675 100 C406.058 56 338.742 27 291.742 27 C172.742 27 120.689 114 162.253 245 L487.253 245 L505.826 247 C542.53 375 497.903 460 394.903 460 C267.903 460 155.228 360 112.217 210 L112.217 210 Z M168.848 268 C209.669 372 289.881 439 377.881 439 C460.881 439 497.383 371 474.848 268 L168.848 268 Z M407.775 613 C402.327 594 414.459 584 429.459 584 C444.459 584 462.327 594 467.775 613 C473.51 633 461.091 642 446.091 642 C431.091 642 413.51 633 407.775 613 L407.775 613 Z " />
<glyph glyph-name="Ecaron" unicode="&#x11a;" horiz-adv-x="573" d="M436.029 28 L121.029 28 L206.479 326 C249.479 326 293.766 327 336.766 327 C379.766 327 422.479 326 461.619 323 L484.619 323 L494.368 357 C471.368 357 451.081 356 429.508 354 L214.508 354 L294.51 633 C352.51 633 411.797 634 470.797 634 C529.797 634 588.51 633 641.363 629 L658.363 629 L667.252 660 L254.252 660 L248.804 641 L241.481 605 L83.771 55 L70.4482 19 L65 0 L503 0 L512.463 33 L495.463 33 L436.029 28 Z M454.876 711 L454.589 710 L457.163 712 L469.163 712 L469.876 711 L642.895 868 L643.895 868 L644.182 869 L642.895 868 L637.895 868 L473.633 752 L381.895 868 L375.895 868 L454.876 711 Z " />
<glyph glyph-name="ecaron" unicode="&#x11b;" horiz-adv-x="483" d="M260.133 -10 C329.133 -10 410.176 32 462.528 96 L463.675 100 L459.675 100 C406.058 56 338.742 27 291.742 27 C172.742 27 120.689 114 162.253 245 L487.253 245 L505.826 247 C542.53 375 497.903 460 394.903 460 C267.903 460 155.228 360 112.217 210 C74.3661 78 133.133 -10 260.133 -10 L260.133 -10 Z M168.848 268 C209.669 372 289.881 439 377.881 439 C460.881 439 497.383 371 474.848 268 L168.848 268 Z M397.409 535 L412.409 535 L591.589 710 L585.589 710 L418.886 582 L329.589 710 L323.589 710 L397.409 535 Z " />
<glyph glyph-name="Gbreve" unicode="&#x11e;" horiz-adv-x="700" d="M812.069 621 C785.385 650 706.119 670 613.119 670 C402.119 670 220.402 528 159.038 314 C103.409 120 198.133 -10 395.133 -10 C502.133 -10 611.882 24 668.219 74 L714.385 235 L727.708 271 L733.156 290 L682.156 290 L676.708 271 L669.385 235 L620.925 66 C574.61 37 497.448 19 417.448 19 C239.448 19 156.005 143 209.339 329 C263.821 519 421.951 645 605.951 645 C653.951 645 699.657 637 733.642 623 C733.356 622 782.467 591 786.606 588 L787.32 587 C792.32 587 797.606 588 803.606 588 L812.069 621 Z M499.432 835 C505.486 748 534.736 714 601.736 714 C669.736 714 718.486 748 774.146 834 L767.146 834 C725.507 769 681.339 744 610.339 744 C540.339 744 510.507 769 506.146 834 L506.432 835 L499.432 835 Z " />
<glyph glyph-name="gbreve" unicode="&#x11f;" horiz-adv-x="536" d="M331.757 41 L212.757 41 C162.757 41 134.778 62 143.954 94 C151.123 119 182.718 142 223.585 152 C243.291 144 266.858 139 293.858 139 C408.858 139 486.209 203 514.024 300 C529.508 354 519.125 398 488.154 426 L608.72 421 L616.462 448 L457.602 445 C437.896 453 414.329 458 386.329 458 C272.329 458 194.978 394 167.737 299 L166.31 301 C147.385 235 164.761 184 210.306 158 C154.431 141 111.542 110 102.366 78 C92.0433 42 116.588 16 164.581 9 C104.993 -7 50.7808 -74 36.7303 -123 C16.3714 -194 67.8944 -241 165.894 -241 C309.894 -241 423.673 -179 450.627 -85 C472.419 -9 443.757 41 331.757 41 L331.757 41 Z M74.164 -118 C90.5085 -61 141.72 6 190.72 6 L301.72 6 C401.72 6 428.964 -35 411.186 -97 C388.533 -176 293.622 -228 174.622 -228 C95.6221 -228 55.2388 -184 74.164 -118 L74.164 -118 Z M207.597 302 C231.397 385 291.168 440 376.168 440 C457.168 440 495.11 384 471.024 300 C446.937 216 387.879 160 304.879 160 C221.879 160 183.224 217 207.597 302 L207.597 302 Z M582.266 674 C538.621 602 493.592 574 422.592 574 C351.592 574 322.621 602 320.266 674 L313.266 674 C316.739 578 344.843 540 412.843 540 C480.843 540 530.739 578 589.266 674 L582.266 674 Z " />
<glyph glyph-name="Itilde" unicode="&#x128;" horiz-adv-x="190" d="M253.804 641 L246.481 605 L88.771 55 L75.4482 19 L70 0 L121 0 L126.448 19 L133.771 55 L291.481 605 L304.804 641 L310.252 660 L259.252 660 L253.804 641 Z M146.155 705 L153.155 705 C179.199 747 201.228 775 248.228 775 C286.228 775 319.31 716 357.31 716 C412.31 716 443.066 757 480.558 818 L473.558 818 C447.228 775 423.912 746 377.912 746 C339.912 746 306.543 804 268.543 804 C212.543 804 182.073 764 146.155 705 L146.155 705 Z " />
<glyph glyph-name="itilde" unicode="&#x129;" horiz-adv-x="151" d="M181.602 445 L176.44 427 C165.97 387 159.515 361 159.515 361 L70.3373 50 L59.1614 18 L54 0 L98 0 L103.161 18 L110.337 50 L227.903 460 L219.903 460 L181.602 445 Z M83.9751 530 C110.018 572 132.047 600 179.047 600 C217.047 600 250.129 541 288.129 541 C343.129 541 373.886 582 411.377 643 L404.377 643 C378.047 600 354.732 571 308.732 571 C270.732 571 237.363 629 199.363 629 C143.363 629 112.893 589 76.9751 530 L83.9751 530 Z " />
<glyph glyph-name="Imacron" unicode="&#x12a;" horiz-adv-x="190" d="M70 0 L121 0 L126.448 19 L133.771 55 L291.481 605 L304.804 641 L310.252 660 L259.252 660 L253.804 641 L246.481 605 L88.771 55 L75.4482 19 L70 0 Z M189.389 793 L182.22 768 L448.22 768 L455.389 793 L189.389 793 Z " />
<glyph glyph-name="imacron" unicode="&#x12b;" horiz-adv-x="151" d="M176.44 427 C165.97 387 159.515 361 159.515 361 L70.3373 50 L59.1614 18 L54 0 L98 0 L103.161 18 L110.337 50 L227.903 460 L219.903 460 L181.602 445 L176.44 427 Z M375.474 598 L382.642 623 L116.642 623 L109.474 598 L375.474 598 Z " />
<glyph glyph-name="Idot" unicode="&#x130;" horiz-adv-x="190" d="M253.804 641 L246.481 605 L88.771 55 L75.4482 19 L70 0 L121 0 L126.448 19 L133.771 55 L291.481 605 L304.804 641 L310.252 660 L259.252 660 L253.804 641 Z M281.493 755 C276.045 736 288.177 726 303.177 726 C318.177 726 336.045 736 341.493 755 C347.228 775 334.808 784 319.808 784 C304.808 784 287.228 775 281.493 755 L281.493 755 Z " />
<glyph glyph-name="dotlessi" unicode="&#x131;" horiz-adv-x="151" d="M181.602 445 L176.44 427 C165.97 387 159.515 361 159.515 361 L70.3373 50 L59.1614 18 L54 0 L98 0 L103.161 18 L110.337 50 L227.903 460 L219.903 460 L187.175 447 L184.175 447 L183.888 446 L181.602 445 Z " />
<glyph glyph-name="Lacute" unicode="&#x139;" horiz-adv-x="553" d="M254.252 660 L248.804 641 L241.481 605 L83.771 55 L70.4482 19 L65 0 L483 0 L492.749 34 L474.749 34 L411.029 28 L121.029 28 L286.481 605 L299.804 641 L305.252 660 L254.252 660 Z M285.155 705 L429.719 836 C440.587 846 451.748 864 451.748 864 L411.748 864 L279.155 705 L285.155 705 Z " />
<glyph glyph-name="lacute" unicode="&#x13a;" horiz-adv-x="132" d="M257.625 745 L252.464 727 C241.994 687 235.539 661 235.539 661 L60.3373 50 L49.1614 18 L44 0 L88 0 L93.1614 18 L100.337 50 L303.926 760 L295.926 760 L263.199 747 L260.199 747 L259.912 746 L257.625 745 Z M270.36 765 L277.36 765 L426.924 896 C437.791 906 448.953 924 448.953 924 L406.953 924 L270.36 765 Z " />
<glyph glyph-name="Lcaron" unicode="&#x13d;" horiz-adv-x="553" d="M483 0 L492.749 34 L474.749 34 L411.029 28 L121.029 28 L286.481 605 L299.804 641 L305.252 660 L254.252 660 L248.804 641 L241.481 605 L83.771 55 L70.4482 19 L65 0 L483 0 Z M525.631 473 L531.631 473 L644.252 660 C644.252 660 643.252 660 638.252 660 L601.252 660 L525.631 473 Z " />
<glyph glyph-name="lcaron" unicode="&#x13e;" horiz-adv-x="132" d="M252.464 727 C241.994 687 235.539 661 235.539 661 L60.3373 50 L49.1614 18 L44 0 L88 0 L93.1614 18 L100.337 50 L303.926 760 L295.926 760 L263.199 747 L260.199 747 L259.912 746 L257.625 745 L252.464 727 Z M329.438 563 L335.438 563 L448.059 750 C448.059 750 447.059 750 442.059 750 L405.059 750 L329.438 563 Z " />
<glyph glyph-name="Nacute" unicode="&#x143;" horiz-adv-x="643" d="M64 0 L106 0 L111.448 19 L117.771 55 L269.746 585 C368.257 388 465.768 191 564.566 -5 L579.566 -5 L754.481 605 L767.804 641 L773.252 660 L731.252 660 L725.804 641 L719.481 605 L572.667 93 L291.252 660 L253.252 660 L247.804 641 L240.481 605 L82.771 55 L69.4482 19 L64 0 Z M544.155 705 L688.719 836 C699.587 846 710.748 864 710.748 864 L670.748 864 L538.155 705 L544.155 705 Z " />
<glyph glyph-name="nacute" unicode="&#x144;" horiz-adv-x="454" d="M386.337 50 L374.161 18 L369 0 L414 0 L419.161 18 L426.337 50 L510.354 343 C530.426 413 483.903 460 394.903 460 C326.903 460 262.44 427 199.816 376 L201.537 382 L200.537 382 C207.852 411 221.903 460 221.903 460 L213.903 460 L177.602 445 L172.44 427 C161.97 387 155.515 361 155.515 361 L66.3373 50 L55.1614 18 L50 0 L95 0 L100.161 18 L106.337 50 L195.515 361 C243.698 400 297.867 425 362.867 425 C441.867 425 481.823 383 463.759 320 L386.337 50 Z M385.975 530 L391.975 530 L540.84 676 C551.994 687 563.729 707 563.729 707 L523.729 707 L385.975 530 Z " />
<glyph glyph-name="Ncaron" unicode="&#x147;" horiz-adv-x="643" d="M579.566 -5 L754.481 605 L767.804 641 L773.252 660 L731.252 660 L725.804 641 L719.481 605 L572.667 93 L291.252 660 L253.252 660 L247.804 641 L240.481 605 L82.771 55 L69.4482 19 L64 0 L106 0 L111.448 19 L117.771 55 L269.746 585 C368.257 388 465.768 191 564.566 -5 L579.566 -5 Z M530.589 710 L533.163 712 L545.163 712 L545.876 711 L718.895 868 L719.895 868 L720.182 869 L718.895 868 L713.895 868 L549.633 752 L457.895 868 L451.895 868 L530.876 711 L530.589 710 Z " />
<glyph glyph-name="ncaron" unicode="&#x148;" horiz-adv-x="454" d="M386.337 50 L374.161 18 L369 0 L414 0 L419.161 18 L426.337 50 L510.354 343 C530.426 413 483.903 460 394.903 460 C326.903 460 262.44 427 199.816 376 L201.537 382 L200.537 382 C207.852 411 221.903 460 221.903 460 L213.903 460 L177.602 445 L172.44 427 C161.97 387 155.515 361 155.515 361 L66.3373 50 L55.1614 18 L50 0 L95 0 L100.161 18 L106.337 50 L195.515 361 C243.698 400 297.867 425 362.867 425 C441.867 425 481.823 383 463.759 320 L386.337 50 Z M378.409 535 L393.409 535 L572.589 710 L566.589 710 L399.886 582 L310.589 710 L304.589 710 L378.409 535 Z " />
<glyph glyph-name="Omacron" unicode="&#x14c;" horiz-adv-x="795" d="M165.486 333 C106.417 127 198.133 -10 395.133 -10 C591.133 -10 760.843 125 819.052 328 C877.835 533 786.119 670 590.119 670 C393.119 670 223.409 535 165.486 333 L165.486 333 Z M574.238 646 C747.238 646 823.814 512 766.178 311 C715.137 133 573.301 15 412.301 15 C238.301 15 160.725 149 218.361 350 C269.402 528 411.238 646 574.238 646 L574.238 646 Z M477.389 793 L470.22 768 L736.22 768 L743.389 793 L477.389 793 Z " />
<glyph glyph-name="omacron" unicode="&#x14d;" horiz-adv-x="527" d="M114.518 225 C74.0866 84 133.133 -10 261.133 -10 C402.133 -10 501.087 84 541.518 225 C581.949 366 523.903 460 395.903 460 C254.903 460 154.949 366 114.518 225 L114.518 225 Z M382.881 439 C486.881 439 532.221 353 495.518 225 C458.814 97 379.154 11 273.154 11 C169.154 11 123.814 97 160.518 225 C197.221 353 276.881 439 382.881 439 L382.881 439 Z M309.642 623 L302.474 598 L568.474 598 L575.642 623 L309.642 623 Z " />
<glyph glyph-name="Racute" unicode="&#x154;" horiz-adv-x="529" d="M83.0577 56 L69.7349 20 L64.2867 1 L115.287 1 L120.735 20 L128.058 56 L202.898 317 L291.898 317 L455.713 -1 L522.287 1 C454.961 101 400.503 211 346.759 320 C443.06 335 565.698 400 591.792 491 C621.04 593 552.539 661 421.539 661 L253.539 661 L248.091 642 L240.768 606 L83.0577 56 Z M292.797 634 C329.797 634 400.797 634 401.51 633 C510.51 633 566.879 575 541.645 487 C517.272 402 383.927 345 298.927 345 L209.927 345 L292.797 634 Z M445.155 705 L451.155 705 L595.719 836 C606.587 846 617.748 864 617.748 864 L577.748 864 L445.155 705 Z " />
<glyph glyph-name="racute" unicode="&#x155;" horiz-adv-x="268" d="M315.903 460 C291.616 459 248.433 420 195.802 362 L199.53 375 L198.53 375 C205.272 402 220.903 460 220.903 460 L212.903 460 L176.602 445 L171.44 427 C160.97 387 154.515 361 154.515 361 L65.3373 50 L54.1614 18 L49 0 L94 0 L99.1614 18 L105.337 50 L189.927 345 C231.117 391 263.72 421 280.72 421 C296.72 421 315.573 417 329.566 410 C339.132 405 362.978 394 362.978 394 L369.978 394 C378.132 405 385.86 418 388.44 427 C392.741 442 341.616 459 317.903 460 L315.903 460 Z M314.975 530 L463.84 676 C474.994 687 486.729 707 486.729 707 L446.729 707 L308.975 530 L314.975 530 Z " />
<glyph glyph-name="Rcaron" unicode="&#x158;" horiz-adv-x="529" d="M522.287 1 C454.961 101 400.503 211 346.759 320 C443.06 335 565.698 400 591.792 491 C621.04 593 552.539 661 421.539 661 L253.539 661 L248.091 642 L240.768 606 L83.0577 56 L69.7349 20 L64.2867 1 L115.287 1 L120.735 20 L128.058 56 L202.898 317 L291.898 317 L455.713 -1 L522.287 1 Z M292.797 634 C329.797 634 400.797 634 401.51 633 C510.51 633 566.879 575 541.645 487 C517.272 402 383.927 345 298.927 345 L209.927 345 L292.797 634 Z M635.895 868 L636.895 868 L637.182 869 L635.895 868 L630.895 868 L466.633 752 L374.895 868 L368.895 868 L447.876 711 L462.876 711 L635.895 868 Z " />
<glyph glyph-name="rcaron" unicode="&#x159;" horiz-adv-x="268" d="M315.903 460 C291.616 459 248.433 420 195.802 362 L199.53 375 C206.272 402 220.903 460 220.903 460 L212.903 460 L176.602 445 L171.44 427 C160.97 387 154.515 361 154.515 361 L65.3373 50 L54.1614 18 L49 0 L94 0 L99.1614 18 L105.337 50 L189.927 345 C231.117 391 263.72 421 280.72 421 C296.72 421 315.573 417 329.566 410 C339.132 405 362.978 394 362.978 394 L369.978 394 C378.132 405 385.86 418 388.44 427 C392.741 442 341.616 459 317.903 460 L315.903 460 Z M495.589 710 L489.589 710 L322.886 582 L233.589 710 L227.589 710 L301.409 535 L316.409 535 L495.589 710 Z " />
<glyph glyph-name="Sacute" unicode="&#x15a;" horiz-adv-x="506" d="M228.365 493 C204.852 411 244.515 361 338.766 327 C435.73 292 476.966 244 454.886 167 C428.506 75 352.728 13 266.728 13 C239.728 13 193.742 27 146.337 50 C144.624 51 143.198 53 142.771 55 C135.359 71 127.094 91 119.682 107 L108.682 107 C105.682 107 101.395 106 98.395 106 L81.8963 38 C132.581 9 203.846 -11 258.846 -11 C371.846 -11 468.638 65 501.327 179 C527.135 269 484.906 324 382.515 361 C293.691 393 255.594 438 276.24 510 C299.467 591 366.951 645 445.951 645 C481.951 645 511.936 631 535.488 612 C543.047 600 551.173 583 558.732 571 C565.732 571 573.018 572 580.018 572 L591.642 623 C563.671 651 509.833 669 457.833 669 C350.833 669 258.76 599 228.365 493 L228.365 493 Z M436.155 705 L442.155 705 L586.719 836 C597.587 846 608.748 864 608.748 864 L568.748 864 L436.155 705 Z " />
<glyph glyph-name="sacute" unicode="&#x15b;" horiz-adv-x="410" d="M88.7638 48 L74.7638 48 L70.7493 34 L66.5951 23 C102.86 3 155.133 -10 197.133 -10 C281.133 -10 351.47 40 372.976 115 C390.18 175 360.65 215 288.826 247 C225.855 275 199.031 307 211.934 352 C226.558 403 272.455 441 323.455 441 C355.455 441 391.293 423 415.279 409 L436.838 397 L445.72 421 C413.315 444 367.616 459 331.616 459 C257.616 459 193.566 410 172.346 336 C156.575 281 184.253 245 249.65 215 C317.761 184 347.725 149 333.961 101 C317.904 45 264.007 7 200.007 7 C200.007 7 178.294 8 178.581 9 C155.728 13 123.455 26 99.0433 42 L88.7638 48 Z M355.975 530 L504.84 676 C515.994 687 527.729 707 527.729 707 L487.729 707 L349.975 530 L355.975 530 Z " />
<glyph glyph-name="Scedilla" unicode="&#x15e;" horiz-adv-x="506" d="M536.775 613 C544.334 601 552.459 584 560.018 572 C567.018 572 574.305 573 581.305 573 L592.929 624 C564.958 652 511.119 670 459.119 670 C352.119 670 260.047 600 229.652 494 C206.139 412 245.802 362 340.052 328 C437.016 293 478.253 245 456.173 168 C429.793 76 354.014 14 268.014 14 C241.014 14 195.029 28 147.624 51 C145.911 52 144.484 54 144.058 56 C136.646 72 128.381 92 120.969 108 L109.969 108 C106.969 108 102.682 107 99.6818 107 L83.1831 39 C132.154 11 200.419 -9 255.133 -10 C247.265 -20 213.075 -66 164.436 -131 L177.429 -138 C221.841 -154 249.106 -174 245.379 -187 C238.783 -210 218.196 -226 194.196 -226 C161.196 -226 131.916 -220 121.783 -210 L120.35 -215 C136.049 -230 167.181 -240 197.181 -240 C234.181 -240 266.063 -216 276.673 -179 C283.268 -156 253.297 -128 200.031 -108 C239.229 -55 267.125 -17 273.419 -9 C380.853 -4 472.359 71 503.901 181 C529.708 271 487.479 326 385.089 363 C296.264 395 258.168 440 278.814 512 C302.04 593 369.524 647 448.524 647 C472.524 647 499.23 639 523.503 626 C523.216 625 533.782 620 536.775 613 L536.775 613 Z " />
<glyph glyph-name="scedilla" unicode="&#x15f;" horiz-adv-x="410" d="M415.279 409 L436.551 396 L445.433 420 C413.028 443 367.329 458 331.329 458 C257.329 458 193.279 409 172.06 335 C156.289 280 183.966 244 249.364 214 C317.474 183 347.438 148 333.675 100 C317.617 44 263.72 6 199.72 6 C199.72 6 178.007 7 178.294 8 C155.441 12 123.169 25 98.7566 41 L88.477 47 L74.477 47 L70.4626 33 L66.5951 23 C101.147 4 150.419 -9 191.133 -10 C183.265 -20 149.075 -66 100.436 -131 L113.429 -138 C157.841 -154 185.106 -174 181.379 -187 C174.783 -210 154.196 -226 130.196 -226 C97.1955 -226 67.916 -220 57.7835 -210 L56.3497 -215 C72.0486 -230 103.181 -240 133.181 -240 C170.181 -240 202.063 -216 212.673 -179 C219.268 -156 189.297 -128 136.031 -108 C136.031 -108 202.839 -18 209.133 -10 C287.566 -5 352.617 44 372.976 115 C390.18 175 360.65 215 288.826 247 C225.855 275 199.031 307 211.934 352 C226.558 403 272.455 441 323.455 441 C355.455 441 391.293 423 415.279 409 L415.279 409 Z " />
<glyph glyph-name="Scaron" unicode="&#x160;" horiz-adv-x="506" d="M580.018 572 L591.642 623 C563.671 651 509.833 669 457.833 669 C350.833 669 258.76 599 228.365 493 C204.852 411 244.515 361 338.766 327 C435.73 292 476.966 244 454.886 167 C428.506 75 352.728 13 266.728 13 C239.728 13 193.742 27 146.337 50 C144.624 51 143.198 53 142.771 55 C135.359 71 127.094 91 119.682 107 L108.682 107 C105.682 107 101.395 106 98.395 106 L81.8963 38 C132.581 9 203.846 -11 258.846 -11 C371.846 -11 468.638 65 501.327 179 C527.135 269 484.906 324 382.515 361 C293.691 393 255.594 438 276.24 510 C299.467 591 366.951 645 445.951 645 C466.951 645 527.65 630 535.488 612 C543.047 600 551.173 583 558.732 571 C565.732 571 573.018 572 580.018 572 L580.018 572 Z M633.182 869 L631.895 868 L626.895 868 L462.633 752 L370.895 868 L364.895 868 L443.876 711 L443.589 710 L446.163 712 L458.163 712 L458.876 711 L631.895 868 L632.895 868 L633.182 869 Z " />
<glyph glyph-name="scaron" unicode="&#x161;" horiz-adv-x="410" d="M288.826 247 C225.855 275 199.031 307 211.934 352 C226.558 403 272.455 441 323.455 441 C329.455 441 334.455 441 340.168 440 C376.161 433 406.713 414 436.838 397 L445.72 421 C413.315 444 367.616 459 331.616 459 C257.616 459 193.566 410 172.346 336 C156.575 281 184.253 245 249.65 215 C317.761 184 347.725 149 333.961 101 C317.904 45 264.007 7 200.007 7 C200.007 7 178.294 8 178.581 9 C155.728 13 123.455 26 99.0433 42 L88.7638 48 L74.7638 48 L70.7493 34 L66.5951 23 C102.86 3 155.133 -10 197.133 -10 C281.133 -10 351.47 40 372.976 115 C390.18 175 360.65 215 288.826 247 L288.826 247 Z M530.589 710 L363.886 582 L274.589 710 L268.589 710 L342.409 535 L357.409 535 L536.589 710 L530.589 710 Z " />
<glyph glyph-name="Tcaron" unicode="&#x164;" horiz-adv-x="675" d="M316.448 19 L311 0 L364 0 L369.448 19 L375.771 55 L541.51 633 L731.51 633 L792.076 628 L810.076 628 L819.252 660 L234.252 660 L225.076 628 L243.076 628 L306.51 633 L496.51 633 L330.771 55 L316.448 19 Z M454.895 868 L533.876 711 L548.876 711 L721.895 868 L722.895 868 L723.182 869 L721.895 868 L716.895 868 L552.633 752 L460.895 868 L454.895 868 Z " />
<glyph glyph-name="tcaron" unicode="&#x165;" horiz-adv-x="309" d="M141.301 430 L140.44 427 L217.44 427 L120.807 90 C103.602 30 127.133 -10 180.133 -10 C219.133 -10 264.588 16 294.484 54 L294.631 58 C277.036 35 245.735 20 216.735 20 C170.735 20 149.911 52 163.388 99 L257.44 427 L389.44 427 L396.035 450 L264.035 450 L291.276 545 L288.276 545 L224.035 450 L141.301 430 Z M378.438 563 L384.438 563 L497.059 750 C497.059 750 496.059 750 491.059 750 L454.059 750 L378.438 563 Z " />
<glyph glyph-name="Utilde" unicode="&#x168;" horiz-adv-x="658" d="M297.481 605 L310.804 641 L316.252 660 L265.252 660 L259.804 641 L252.481 605 L146.098 234 C104.234 88 178.133 -10 332.133 -10 C486.133 -10 616.234 88 658.098 234 L764.481 605 L777.804 641 L783.252 660 L741.252 660 L735.804 641 L729.481 605 L619.944 223 C584.961 101 478.448 19 354.448 19 C219.448 19 154.969 108 193.392 242 L297.481 605 Z M386.155 705 L393.155 705 C419.199 747 441.228 775 488.228 775 C526.228 775 559.31 716 597.31 716 C652.31 716 683.066 757 720.558 818 L713.558 818 C687.228 775 663.912 746 617.912 746 C579.912 746 546.543 804 508.543 804 C452.543 804 422.073 764 386.155 705 L386.155 705 Z " />
<glyph glyph-name="utilde" unicode="&#x169;" horiz-adv-x="416" d="M197.035 450 L155.035 450 L149.874 432 L142.698 400 L58.6818 107 C38.6096 37 83.1325 -10 171.133 -10 C220.133 -10 293.022 21 370.94 80 L348 0 L391 0 L396.161 18 L402.337 50 L517.035 450 L474.035 450 L468.874 432 L462.698 400 L375.528 96 C314.337 50 252.455 26 204.455 26 C127.455 26 87.4987 68 105.564 131 L197.035 450 Z M205.409 535 L212.409 535 C238.452 577 260.481 605 307.481 605 C345.481 605 378.563 546 416.563 546 C471.563 546 502.32 587 539.811 648 L532.811 648 C506.481 605 483.165 576 437.165 576 C399.165 576 365.797 634 327.797 634 C271.797 634 241.327 594 205.409 535 L205.409 535 Z " />
<glyph glyph-name="Umacron" unicode="&#x16a;" horiz-adv-x="658" d="M252.481 605 L146.098 234 C104.234 88 178.133 -10 332.133 -10 C486.133 -10 616.234 88 658.098 234 L764.481 605 L777.804 641 L783.252 660 L741.252 660 L735.804 641 L729.481 605 L619.944 223 C584.961 101 478.448 19 354.448 19 C219.448 19 154.969 108 193.392 242 L297.481 605 L310.804 641 L316.252 660 L265.252 660 L259.804 641 L252.481 605 Z M698.22 768 L705.389 793 L439.389 793 L432.22 768 L698.22 768 Z " />
<glyph glyph-name="umacron" unicode="&#x16b;" horiz-adv-x="416" d="M149.874 432 L142.698 400 L58.6818 107 C38.6096 37 83.1325 -10 171.133 -10 C220.133 -10 293.022 21 370.94 80 L348 0 L391 0 L396.161 18 L402.337 50 L517.035 450 L474.035 450 L468.874 432 L462.698 400 L375.528 96 C314.337 50 252.455 26 204.455 26 C127.455 26 87.4987 68 105.564 131 L197.035 450 L155.035 450 L149.874 432 Z M241.474 598 L507.474 598 L514.642 623 L248.642 623 L241.474 598 Z " />
<glyph glyph-name="Uring" unicode="&#x16e;" horiz-adv-x="658" d="M619.944 223 C584.961 101 478.448 19 354.448 19 C219.448 19 154.969 108 193.392 242 L297.481 605 L310.804 641 L316.252 660 L265.252 660 L259.804 641 L252.481 605 L146.098 234 C104.234 88 178.133 -10 332.133 -10 C486.133 -10 616.234 88 658.098 234 L764.481 605 L777.804 641 L783.252 660 L741.252 660 L735.804 641 L729.481 605 L619.944 223 Z M486.669 787 C474.625 745 500.589 710 543.589 710 C586.589 710 632.912 746 644.955 788 C657.859 833 634.461 863 587.461 863 C540.461 863 499.859 833 486.669 787 L486.669 787 Z M583.02 851 C617.02 851 631.278 824 619.808 784 C610.346 751 578.03 722 549.03 722 C519.03 722 501.919 753 512.529 790 C523.138 827 551.02 851 583.02 851 L583.02 851 Z " />
<glyph glyph-name="uring" unicode="&#x16f;" horiz-adv-x="416" d="M391 0 L396.161 18 L402.337 50 L517.035 450 L474.035 450 L468.874 432 L462.698 400 L375.528 96 C314.337 50 252.455 26 204.455 26 C127.455 26 87.4987 68 105.564 131 L197.035 450 L155.035 450 L149.874 432 L142.698 400 L58.6818 107 C38.6096 37 83.1325 -10 171.133 -10 C220.133 -10 293.022 21 370.94 80 L348 0 L391 0 Z M356.409 535 C399.409 535 445.732 571 457.775 613 C470.678 658 447.281 688 400.281 688 C353.281 688 312.678 658 299.488 612 C287.445 570 313.409 535 356.409 535 L356.409 535 Z M395.84 676 C429.84 676 444.098 649 432.628 609 C423.165 576 390.85 547 361.85 547 C331.85 547 314.739 578 325.348 615 C335.958 652 363.84 676 395.84 676 L395.84 676 Z " />
<glyph glyph-name="Ydieresis" unicode="&#x178;" horiz-adv-x="656" d="M312.287 1 L363.287 1 L368.735 20 L376.058 56 L447.171 304 C554.279 409 661.674 515 769.782 620 L797.238 646 C804.818 655 810.252 660 810.252 660 L772.252 660 L764.385 650 C746.65 630 765.098 649 726.201 611 L440.913 331 C388.734 435 336.269 538 282.804 641 C282.377 643 278.252 660 278.252 660 L224.252 660 L401.884 303 L331.058 56 L317.735 20 L312.287 1 Z M649.926 760 C654.801 777 645.095 785 632.095 785 C620.095 785 604.801 777 599.926 760 C595.339 744 605.758 735 617.758 735 C630.758 735 645.339 744 649.926 760 L649.926 760 Z M509.926 760 C514.801 777 505.095 785 492.095 785 C480.095 785 464.801 777 459.926 760 C455.339 744 465.758 735 477.758 735 C490.758 735 505.339 744 509.926 760 L509.926 760 Z " />
<glyph glyph-name="Zacute" unicode="&#x179;" horiz-adv-x="646" d="M556 0 L565.463 33 L547.463 33 L484.029 28 L163.029 28 C352.245 238 539.749 449 729.392 657 L730.252 660 L299.252 660 L290.076 628 L308.076 628 L371.51 633 L660.51 633 L101.728 13 L98 0 L556 0 Z M537.155 705 L681.719 836 C692.587 846 703.748 864 703.748 864 L663.748 864 L531.155 705 L537.155 705 Z " />
<glyph glyph-name="zacute" unicode="&#x17a;" horiz-adv-x="480" d="M396.742 27 L362.595 23 L140.595 23 L501.727 428 L526.035 450 L219.035 450 L215.881 439 L214.881 439 C213.734 435 211.014 429 209.58 424 L226.58 424 L260.727 428 L454.727 428 L82.5807 9 L80 0 L405 0 L408.154 11 L409.154 11 L413.742 27 L396.742 27 Z M397.975 530 L403.975 530 L552.84 676 C563.994 687 575.729 707 575.729 707 L535.729 707 L397.975 530 Z " />
<glyph glyph-name="Zdot" unicode="&#x17b;" horiz-adv-x="646" d="M98 0 L556 0 L565.463 33 L547.463 33 L484.029 28 L163.029 28 C352.245 238 539.749 449 729.392 657 L730.252 660 L299.252 660 L290.076 628 L308.076 628 L371.51 633 L660.51 633 L101.728 13 L98 0 Z M523.493 755 C518.045 736 530.177 726 545.177 726 C560.177 726 578.045 736 583.493 755 C589.228 775 576.808 784 561.808 784 C546.808 784 529.228 775 523.493 755 L523.493 755 Z " />
<glyph glyph-name="zdot" unicode="&#x17c;" horiz-adv-x="480" d="M82.5807 9 L80 0 L405 0 L408.154 11 L409.154 11 L413.742 27 L396.742 27 L362.595 23 L140.595 23 L501.727 428 L526.035 450 L219.035 450 L215.881 439 L214.881 439 C213.734 435 211.014 429 209.58 424 L226.58 424 L260.727 428 L454.727 428 L82.5807 9 Z M455.775 613 C461.51 633 449.091 642 434.091 642 C419.091 642 401.51 633 395.775 613 C390.327 594 402.459 584 417.459 584 C432.459 584 450.327 594 455.775 613 L455.775 613 Z " />
<glyph glyph-name="Zcaron" unicode="&#x17d;" horiz-adv-x="646" d="M308.076 628 L371.51 633 L660.51 633 L101.728 13 L98 0 L556 0 L565.463 33 L547.463 33 L484.029 28 L163.029 28 C352.245 238 539.749 449 729.392 657 L730.252 660 L299.252 660 L290.076 628 L308.076 628 Z M465.895 868 L459.895 868 L538.876 711 L553.876 711 L726.895 868 L727.895 868 L728.182 869 L726.895 868 L721.895 868 L557.633 752 L465.895 868 Z " />
<glyph glyph-name="zcaron" unicode="&#x17e;" horiz-adv-x="480" d="M396.742 27 L362.595 23 L140.595 23 L501.727 428 L526.035 450 L219.035 450 L215.881 439 L214.881 439 C213.734 435 211.014 429 209.58 424 L226.58 424 L260.727 428 L454.727 428 L82.5807 9 L80 0 L405 0 L408.154 11 L409.154 11 L413.742 27 L396.742 27 Z M390.409 535 L405.409 535 L584.589 710 L578.589 710 L411.886 582 L322.589 710 L316.589 710 L390.409 535 Z " />
<glyph glyph-name="oogonek" unicode="&#x1eb;" horiz-adv-x="734" d="M388.419 -9 C455.957 -42 517.716 -137 590.716 -137 C618.716 -137 648.15 -132 662.157 -125 L661.157 -125 L663.164 -118 C658.591 -120 642.017 -122 622.017 -122 C554.017 -122 496.684 -29 432.853 -4 C580.308 22 700.99 129 744.575 281 C795.043 457 709.879 575 531.879 575 C353.879 575 201.616 459 152.009 286 C101.542 110 185.133 -10 364.133 -10 C372.133 -10 380.419 -9 388.419 -9 L388.419 -9 Z M200.31 301 C243.609 452 370.57 553 518.57 553 C675.57 553 747.594 438 697.988 265 C654.689 114 527.728 13 380.728 13 C222.728 13 150.703 128 200.31 301 L200.31 301 Z " />
<glyph glyph-name="G_sc" unicode="&#x262;" horiz-adv-x="640" d="M148.135 269 C99.9613 101 185.846 -11 362.846 -11 C453.846 -11 552.595 23 610.219 74 L643.342 193 L656.665 229 L662.113 248 L616.113 248 L610.665 229 L603.342 193 L567.212 67 C523.61 37 452.875 17 382.875 17 C223.875 17 148.556 124 194.436 284 C240.602 445 380.57 553 544.57 553 C582.57 553 619.276 545 649.549 532 C668.968 523 686.093 506 702.652 494 C707.652 494 712.939 495 718.939 495 L726.541 525 C699.857 554 629.592 574 550.592 574 C361.592 574 200.609 452 148.135 269 L148.135 269 Z " />
<glyph glyph-name="I_sc" unicode="&#x26a;" horiz-adv-x="185" d="M232.011 565 L226.563 546 L219.24 510 L88.771 55 L75.4482 19 L70 0 L116 0 L121.448 19 L128.771 55 L259.24 510 L272.563 546 L278.011 565 L232.011 565 Z " />
<glyph glyph-name="N_sc" unicode="&#x274;" horiz-adv-x="582" d="M226.298 566 L220.563 546 L213.24 510 L82.771 55 L69.4482 19 L64 0 L102 0 L107.448 19 L113.771 55 L241.373 500 L504.853 -4 L518.853 -4 L666.527 511 L679.85 547 L685.298 566 L646.298 566 L640.85 547 L634.527 511 L512.087 84 L260.298 566 L226.298 566 Z " />
<glyph glyph-name="R_sc" unicode="&#x280;" horiz-adv-x="466" d="M70.0217 21 L64.5735 2 L110.573 2 L116.022 21 L123.344 57 L184.995 272 L253.995 272 L400.287 1 L458.573 2 L423.911 52 C384.836 118 327.665 229 303.855 275 C384.583 288 487.354 343 509.433 420 C534.667 508 478.585 567 368.585 567 L226.585 567 L221.136 548 L213.814 512 L83.3445 57 L70.0217 21 Z M351.843 540 C440.843 540 486.505 490 464.999 415 C444.354 343 332.59 295 261.59 295 L192.59 295 L262.843 540 L351.843 540 Z " />
<glyph glyph-name="Y_sc" unicode="&#x28f;" horiz-adv-x="595" d="M205.276 545 L222.674 515 L359.267 259 L300.771 55 L287.448 19 L282 0 L328 0 L333.448 19 L340.771 55 L399.554 260 C502.368 357 603.756 456 707.997 551 C716.577 560 721.011 565 721.011 565 L687.011 565 C685.438 563 680.004 558 670.563 546 L396.009 286 L252.563 546 C251.71 550 247.291 559 246.011 565 L196.011 565 C196.011 565 200.43 556 205.276 545 L205.276 545 Z " />
<glyph glyph-name="B_sc" unicode="&#x299;" horiz-adv-x="507" d="M207.713 -1 C355.713 -1 473.065 63 500.879 160 C522.098 234 475.583 288 359.884 303 C444.192 325 504.383 371 521.587 431 C544.527 511 495.724 564 370.724 564 L224.724 564 L219.276 545 L211.953 509 L81.4843 54 L68.1614 18 L62.7133 -1 L207.713 -1 Z M186.862 282 L295.862 282 C425.862 282 478.525 232 456.732 156 C434.079 77 336.882 24 214.882 24 L112.882 24 L186.862 282 Z M354.843 540 C457.843 540 497.079 492 476.72 421 C458.368 357 377.465 312 272.031 307 L195.031 307 L261.843 540 L354.843 540 Z " />
<glyph glyph-name="H_sc" unicode="&#x29c;" horiz-adv-x="583" d="M194.884 303 L254.24 510 L267.563 546 L273.011 565 L227.011 565 L221.563 546 L214.24 510 L83.771 55 L70.4482 19 L65 0 L111 0 L116.448 19 L123.771 55 L188.002 279 L556.002 279 L491.771 55 L478.448 19 L473 0 L519 0 L524.448 19 L531.771 55 L662.24 510 L675.563 546 L681.011 565 L635.011 565 L629.563 546 L622.24 510 L562.884 303 L194.884 303 Z " />
<glyph glyph-name="L_sc" unicode="&#x29f;" horiz-adv-x="493" d="M70.4482 19 L65 0 L423 0 L431.889 31 L413.889 31 L350.169 25 L115.169 25 L254.24 510 L267.563 546 L273.011 565 L227.011 565 L221.563 546 L214.24 510 L83.771 55 L70.4482 19 Z " />
<glyph glyph-name="circumflex" unicode="&#x2c6;" horiz-adv-x="340" d="M190.975 530 L196.975 530 L359.678 658 L452.975 530 L458.975 530 L380.155 705 L365.155 705 L190.975 530 Z " />
<glyph glyph-name="caron" unicode="&#x2c7;" horiz-adv-x="340" d="M242.589 710 L316.409 535 L331.409 535 L510.589 710 L504.589 710 L337.886 582 L248.589 710 L242.589 710 Z " />
<glyph glyph-name="firsttonechinese" unicode="&#x2c9;" horiz-adv-x="340" d="M189.835 533 L455.835 533 L463.004 558 L197.004 558 L189.835 533 Z " />
<glyph glyph-name="breve" unicode="&#x2d8;" horiz-adv-x="340" d="M231.001 694 C234.474 598 262.577 560 330.577 560 C398.577 560 448.474 598 507.001 694 L500.001 694 C456.356 622 411.327 594 340.327 594 C269.327 594 240.356 622 238.001 694 L231.001 694 Z " />
<glyph glyph-name="dotaccent" unicode="&#x2d9;" horiz-adv-x="340" d="M327.083 635 C322.495 619 332.915 610 344.915 610 C357.915 610 372.495 619 377.083 635 C381.958 652 372.252 660 359.252 660 C347.252 660 331.958 652 327.083 635 L327.083 635 Z " />
<glyph glyph-name="ring" unicode="&#x2da;" horiz-adv-x="340" d="M321.975 530 C364.975 530 411.298 566 423.341 608 C436.245 653 412.847 683 365.847 683 C318.847 683 278.245 653 265.054 607 C253.011 565 278.975 530 321.975 530 L321.975 530 Z M290.915 610 C301.524 647 329.406 671 361.406 671 C395.406 671 409.664 644 398.194 604 C388.732 571 356.416 542 327.416 542 C297.416 542 280.305 573 290.915 610 L290.915 610 Z " />
<glyph glyph-name="A_sc" unicode="&#x1d00;" horiz-adv-x="588" d="M75.4482 19 L97.3373 50 C123.947 87 165.291 144 216.937 216 L475.937 216 L506.161 18 C505.588 16 504.86 3 504.713 -1 L551.713 -1 L551.014 14 L543.617 44 C522.754 177 464.291 559 464.291 559 L463.158 569 L444.158 569 C437.864 561 431.57 553 426.276 545 C255.604 309 126.564 131 67.0505 49 L41.3012 15 L32 0 L66 0 C66.5735 2 73.3012 15 75.4482 19 L75.4482 19 Z M430.387 514 L472.106 241 L234.106 241 C289.185 318 355.566 410 430.387 514 L430.387 514 Z " />
<glyph glyph-name="C_sc" unicode="&#x1d04;" horiz-adv-x="652" d="M358.706 -8 C433.706 -8 520.154 11 574.043 42 L584.646 72 C578.646 72 573.932 73 568.932 73 C549.352 64 525.624 51 506.043 42 C460.169 25 409.014 14 367.014 14 C216.014 14 146.983 122 193.722 285 C239.888 446 375.857 554 532.857 554 C567.857 554 599.276 545 629.122 534 C647.828 526 664.667 508 680.512 497 C685.512 497 690.799 498 696.799 498 L704.402 528 C677.717 557 611.452 577 537.452 577 C355.452 577 198.469 455 145.995 272 C97.8215 104 182.706 -8 358.706 -8 L358.706 -8 Z " />
<glyph glyph-name="D_sc" unicode="&#x1d05;" horiz-adv-x="626" d="M221.563 546 L214.24 510 L83.771 55 L70.4482 19 L65 0 L229 0 C427.007 7 587.829 111 642.884 303 C692.491 476 585.011 565 386.011 565 L227.011 565 L221.563 546 Z M262.843 540 C297.843 540 367.843 540 367.129 541 C547.129 541 642.469 455 594.583 288 C546.696 121 406.889 31 234.169 25 L115.169 25 L262.843 540 Z " />
<glyph glyph-name="E_sc" unicode="&#x1d07;" horiz-adv-x="513" d="M71.4482 19 L66 0 L444 0 L451.602 30 L434.602 30 L375.169 25 L115.169 25 L188.002 279 C210.002 279 233.002 279 256.002 279 C302.002 279 348.002 279 389.142 276 L412.142 276 L420.744 306 C397.744 306 377.457 305 355.884 303 L195.884 303 L263.843 540 L498.843 540 L555.696 536 L572.696 536 L581.011 565 L228.011 565 L222.563 546 L215.24 510 L84.771 55 L71.4482 19 Z " />
<glyph glyph-name="J_sc" unicode="&#x1d0a;" horiz-adv-x="185" d="M-61.607 -173 C14.393 -173 99.9495 -49 153.284 137 C152.284 137 226.264 395 259.24 510 L272.563 546 L278.011 565 L232.011 565 L226.563 546 L219.24 510 L87.3373 50 C54.6483 -64 4.85565 -140 -37.1444 -140 C-37.1444 -140 -51.9974 -136 -60.9974 -136 C-61.8576 -139 -86.607 -173 -61.607 -173 L-61.607 -173 Z " />
<glyph glyph-name="K_sc" unicode="&#x1d0b;" horiz-adv-x="541" d="M192.443 291 L443.573 2 L505.573 2 C505.573 2 501.007 7 495.014 14 L469.757 41 L236.884 303 C353.397 385 468.484 469 585.71 550 L606.298 566 L557.298 566 C554.724 564 540.997 551 536.136 548 L500.394 521 C408.896 453 317.11 384 225.612 316 L192.443 291 Z M68.0217 21 L62.5735 2 L109.573 2 L115.022 21 L122.344 57 L252.814 512 L266.136 548 L271.585 567 L224.585 567 L219.136 548 L211.814 512 L81.3445 57 L68.0217 21 Z " />
<glyph glyph-name="M_sc" unicode="&#x1d0d;" horiz-adv-x="747" d="M251.011 565 L235.24 510 L81.1975 53 L66.4482 19 L61 0 L93 0 L108.771 55 L263.247 517 L358.566 -5 L378.566 -5 L769.527 511 L657.051 49 L647.448 19 L643 0 L687 0 L692.448 19 L698.771 55 L811.108 520 L824.011 565 L783.011 565 L393.337 50 L297.011 565 L251.011 565 Z " />
<glyph glyph-name="O_sc" unicode="&#x1d0f;" horiz-adv-x="734" d="M364.133 -10 C542.133 -10 694.395 106 744.575 281 C795.043 457 709.879 575 531.879 575 C353.879 575 201.616 459 152.009 286 C100.969 108 186.133 -10 364.133 -10 L364.133 -10 Z M199.31 301 C242.609 452 369.57 553 517.57 553 C674.57 553 746.594 438 696.988 265 C653.689 114 526.728 13 379.728 13 C221.728 13 149.703 128 199.31 301 L199.31 301 Z " />
<glyph glyph-name="P_sc" unicode="&#x1d18;" horiz-adv-x="506" d="M65 0 L111 0 L116.448 19 L123.771 55 L183.414 263 L275.414 263 C417.414 263 528.619 323 554.713 414 C580.806 505 514.011 565 387.011 565 L227.011 565 L221.563 546 L214.24 510 L83.771 55 L70.4482 19 L65 0 Z M369.843 540 C475.843 540 531.932 488 509.566 410 C488.633 337 401.583 288 291.583 288 L190.583 288 L262.843 540 L369.843 540 Z " />
<glyph glyph-name="T_sc" unicode="&#x1d1b;" horiz-adv-x="615" d="M198.409 535 L216.409 535 L279.843 540 L441.843 540 L302.771 55 L288.448 19 L283 0 L332 0 L337.448 19 L343.771 55 L482.843 540 L644.843 540 L705.409 535 L723.409 535 L732.011 565 L207.011 565 L198.409 535 Z " />
<glyph glyph-name="U_sc" unicode="&#x1d1c;" horiz-adv-x="598" d="M233.563 546 L226.24 510 L137.349 200 C101.219 74 167.133 -10 303.133 -10 C438.133 -10 552.219 74 588.349 200 L677.24 510 L690.563 546 L696.011 565 L657.011 565 L651.563 546 C650.703 543 644.24 510 645.24 510 L554.482 190 C524.66 86 431.588 16 322.588 16 C203.588 16 146.381 92 179.356 207 L266.24 510 L279.563 546 L285.011 565 L239.011 565 L233.563 546 Z " />
<glyph glyph-name="V_sc" unicode="&#x1d20;" horiz-adv-x="584" d="M199.136 548 L205.534 518 L283.853 -4 L302.853 -4 C429.607 173 555.361 350 681.828 526 L702.283 552 C704.577 560 710.298 566 710.298 566 L676.298 566 C676.298 566 667.136 548 666.85 547 L319.631 58 L247.108 520 L243.85 547 C243.136 548 244.011 565 244.298 566 L198.298 566 C198.298 566 198.291 559 198.423 549 C198.423 549 198.71 550 199.136 548 L199.136 548 Z " />
<glyph glyph-name="W_sc" unicode="&#x1d21;" horiz-adv-x="803" d="M220.563 546 C221.71 550 219.857 554 223.011 565 L177.011 565 C176.423 549 176.989 544 175.85 547 L180.674 515 C194.067 342 207.46 169 219.853 -4 L227.853 -4 L541.358 486 C559.619 323 576.593 159 594.853 -4 L602.853 -4 C712.32 172 818.648 351 926.402 528 L943.283 552 C941.71 550 942.283 552 944.43 556 C947.151 562 949.298 566 949.298 566 L914.298 566 C912.151 562 907.423 549 906.85 547 L906.563 546 L886.1 513 L628.226 81 C608.966 244 590.705 407 571.445 570 L565.445 570 L256.226 81 L220.563 546 Z " />
<glyph glyph-name="Z_sc" unicode="&#x1d22;" horiz-adv-x="586" d="M103.154 11 L100 0 L496 0 L504.602 30 L486.602 30 L423.169 25 L158.169 25 C319.783 205 482.11 384 643.011 565 L274.011 565 L265.409 535 L283.409 535 L346.843 540 L577.843 540 L103.154 11 Z " />
<glyph glyph-name="Etilde" unicode="&#x1ebc;" horiz-adv-x="573" d="M214.508 354 L294.51 633 C352.51 633 411.797 634 470.797 634 C529.797 634 588.51 633 641.363 629 L658.363 629 L667.252 660 L254.252 660 L248.804 641 L241.481 605 L83.771 55 L70.4482 19 L65 0 L503 0 L512.463 33 L495.463 33 L436.029 28 L121.029 28 L206.479 326 C249.479 326 293.766 327 336.766 327 C379.766 327 422.479 326 461.619 323 L484.619 323 L494.368 357 C471.368 357 451.081 356 429.508 354 L214.508 354 Z M324.155 705 L331.155 705 C357.199 747 379.228 775 426.228 775 C464.228 775 497.31 716 535.31 716 C590.31 716 621.066 757 658.558 818 L651.558 818 C625.228 775 601.912 746 555.912 746 C517.912 746 484.543 804 446.543 804 C390.543 804 360.073 764 324.155 705 L324.155 705 Z " />
<glyph glyph-name="endash" unicode="&#x2013;" horiz-adv-x="500" d="M123.12 255 L523.12 255 L530.289 280 L130.289 280 L123.12 255 Z " />
<glyph glyph-name="emdash" unicode="&#x2014;" horiz-adv-x="1000" d="M123.12 255 L1023.12 255 L1030.29 280 L130.289 280 L123.12 255 Z " />
<glyph glyph-name="quoteleft" unicode="&#x2018;" horiz-adv-x="229" d="M257.664 644 C247.341 608 243.982 537 290.982 537 C295.982 537 299.556 539 306.136 548 L321.732 571 L323.452 577 L308.32 587 C287.614 595 281.789 627 292.972 666 C301.001 694 339.604 724 389.192 740 L392.059 750 C323.751 728 269.421 685 257.664 644 L257.664 644 Z " />
<glyph glyph-name="quoteright" unicode="&#x2019;" horiz-adv-x="229" d="M230.71 550 L227.843 540 C296.151 562 350.481 605 362.238 646 C372.56 682 375.919 753 328.919 753 C323.919 753 320.346 751 313.765 742 L298.17 719 L296.449 713 L311.582 703 C332.288 695 338.112 663 326.929 624 C318.9 596 280.298 566 230.71 550 L230.71 550 Z " />
<glyph glyph-name="quotedblleft" unicode="&#x201c;" horiz-adv-x="379" d="M407.664 644 C397.341 608 393.982 537 440.982 537 C445.982 537 449.556 539 456.136 548 L471.732 571 L473.452 577 L458.32 587 C437.614 595 431.789 627 442.972 666 C451.001 694 494.192 740 539.192 740 L542.059 750 C480.059 750 419.421 685 407.664 644 L407.664 644 Z M290.982 537 C295.982 537 299.556 539 306.136 548 L321.732 571 L323.452 577 L308.32 587 C287.614 595 281.789 627 292.972 666 C301.001 694 344.192 740 389.192 740 L392.059 750 C330.059 750 269.421 685 257.664 644 C247.341 608 243.982 537 290.982 537 L290.982 537 Z " />
<glyph glyph-name="quotedblright" unicode="&#x201d;" horiz-adv-x="379" d="M512.238 646 C522.56 682 525.919 753 478.919 753 C473.919 753 470.346 751 463.765 742 L448.17 719 L446.449 713 L461.582 703 C482.288 695 488.112 663 476.929 624 C468.9 596 430.298 566 380.71 550 L377.843 540 C446.151 562 500.481 605 512.238 646 L512.238 646 Z M362.238 646 C372.56 682 375.919 753 328.919 753 C323.919 753 320.346 751 313.765 742 L298.17 719 L296.449 713 L311.582 703 C332.288 695 338.112 663 326.929 624 C318.9 596 280.298 566 230.71 550 L227.843 540 C296.151 562 350.481 605 362.238 646 L362.238 646 Z " />
<glyph glyph-name="bullet" unicode="&#x2022;" horiz-adv-x="380" d="M197.385 235 C187.062 199 204.18 175 240.18 175 C276.18 175 307.062 199 317.385 235 C327.708 271 310.59 295 274.59 295 C238.59 295 207.708 271 197.385 235 L197.385 235 Z " />
<glyph glyph-name="ellipsis" unicode="&#x2026;" horiz-adv-x="530" d="M470.735 20 C476.47 40 464.051 49 449.051 49 C434.051 49 416.47 40 410.735 20 C405.287 1 417.419 -9 432.419 -9 C447.419 -9 465.287 1 470.735 20 L470.735 20 Z M300.735 20 C306.47 40 294.051 49 279.051 49 C264.051 49 246.47 40 240.735 20 C235.287 1 247.419 -9 262.419 -9 C277.419 -9 295.287 1 300.735 20 L300.735 20 Z M130.735 20 C136.47 40 124.051 49 109.051 49 C94.0505 49 76.4698 40 70.7349 20 C65.2867 1 77.4193 -9 92.4193 -9 C107.419 -9 125.287 1 130.735 20 L130.735 20 Z " />
<glyph glyph-name="guilsinglleft" unicode="&#x2039;" horiz-adv-x="244" d="M89.1129 248 L238.072 70 L244.072 70 L139.113 248 L345.867 425 L339.867 425 L89.1129 248 Z " />
<glyph glyph-name="guilsinglright" unicode="&#x203a;" horiz-adv-x="238" d="M46.0722 70 L289.113 248 L147.867 425 L141.867 425 L239.113 248 L40.0722 70 L46.0722 70 Z " />
<glyph glyph-name="Euro" unicode="&#x20ac;" horiz-adv-x="499" d="M309.419 -9 C371.419 -9 448.169 25 500.793 76 L504.234 88 L501.947 87 C461.764 48 397.308 22 341.308 22 C219.308 22 184.829 111 208.26 252 L430.26 252 L436.568 274 L212.568 274 C220.178 311 231.795 355 245.691 393 L470.691 393 L476.999 415 L253.999 415 C313.298 566 407.825 662 501.825 662 C539.825 662 575.797 634 589.753 592 C594.753 592 599.445 570 599.445 570 C609.445 570 626.886 582 629.173 583 C638.18 590 637.187 597 634.054 607 C620.951 645 578.119 670 527.119 670 C400.119 670 280.732 571 211.286 416 L130.286 416 L123.978 394 L201.978 394 C187.368 357 175.038 314 165.855 275 L89.855 275 L83.5466 253 L160.547 253 C129.667 93 167.419 -9 309.419 -9 L309.419 -9 Z " />
<glyph glyph-name="F_sc" unicode="&#xa730;" horiz-adv-x="478" d="M71.4482 19 L66 0 L112 0 L117.448 19 L124.771 55 L189.002 279 C211.002 279 234.002 279 257.002 279 C303.002 279 349.002 279 390.142 276 L412.142 276 L420.744 306 C397.744 306 377.457 305 355.884 303 L195.884 303 L263.843 540 L488.843 540 L545.696 536 L562.696 536 L571.011 565 L228.011 565 L222.563 546 L215.24 510 L84.771 55 L71.4482 19 Z " />
<glyph glyph-name="S_sc" unicode="&#xa731;" horiz-adv-x="444" d="M98.8215 104 L83.1831 39 C127.867 10 186.133 -10 229.133 -10 C323.133 -10 405.058 56 433.446 155 C453.518 225 418.995 272 338.178 311 C266.927 345 237.11 384 252.594 438 C272.38 507 325.57 553 386.57 553 C404.57 553 437.703 543 446.828 526 C453.814 512 463.652 494 470.638 480 C477.638 480 484.925 481 491.925 481 L502.688 529 C478.717 557 436.879 575 396.879 575 C309.879 575 234.674 515 208.58 424 C190.515 361 221.898 317 297.575 281 C373.966 244 407.209 203 390.578 145 C367.638 65 305.154 11 235.154 11 C217.154 11 184.595 23 148.33 43 C145.904 45 143.477 47 143.051 49 C135.925 66 127.234 88 120.108 105 L109.108 105 C106.108 105 101.822 104 98.8215 104 L98.8215 104 Z " />
<glyph glyph-name="X_sc" unicode="&#xf078;" horiz-adv-x="596" d="M695.011 565 L666.011 565 C664.438 563 659.004 558 649.563 546 L397.318 308 L271.563 546 C270.563 546 265.011 565 265.011 565 L214.011 565 C214.011 565 219.71 550 221.85 547 L239.674 515 L362.289 280 C278.209 203 194.13 126 109.337 50 L73.1614 18 C62.0072 7 55 0 55 0 L87 0 L94.8675 10 C99.3012 15 102.161 18 103.448 19 L135.051 49 L370.988 265 L498.735 20 C499.735 20 505 0 505 0 L560 0 C560 0 557.72 6 553.875 17 C552.875 17 553.161 18 552.448 19 L538.33 43 L406.016 293 C497.39 378 587.337 465 679.423 549 C689.291 559 695.011 565 695.011 565 L695.011 565 Z " />
</font>
</svg>
