<?xml version="1.0" encoding="UTF-8"?>
<svg xmlns="http://www.w3.org/2000/svg" xmlns:xlink="http://www.w3.org/1999/xlink" version="1.2" >
<font id="Maleah Light">
<font-face  font-family="Maleah" units-per-em="1024" ascent="975" descent="-300" font-style="normal" font-weight="300" font-stretch="normal" cap-height="924" x-height="488" underline-position="-125" underline-thickness="50" />
<missing-glyph  horiz-adv-x="100" d="" />
<glyph glyph-name="NULL" d="" />
<glyph glyph-name="CR" unicode="&#xd;" horiz-adv-x="256" d="" />
<glyph glyph-name="space" unicode="&#x20;" horiz-adv-x="248" d="" />
<glyph glyph-name="exclam" unicode="&#x21;" horiz-adv-x="183" d="M63 660 L87 115 L94 115 L118 660 L63 660 Z M68 12 C68 -3 79 -10 90 -10 C101 -10 112 -3 112 12 C112 27 101 35 90 35 C79 35 68 27 68 12 L68 12 Z " />
<glyph glyph-name="quotedbl" unicode="&#x22;" horiz-adv-x="360" d="M235 740 L253 565 L263 565 L280 740 L235 740 Z M98 565 L108 565 L125 740 L80 740 L98 565 Z " />
<glyph glyph-name="numbersign" unicode="&#x23;" horiz-adv-x="498" d="M391 450 L452 660 L433 660 L372 450 L196 450 L257 660 L238 660 L177 450 L58 450 L58 433 L172 433 L114 234 L0 234 L0 216 L109 216 L46 0 L65 0 L128 216 L304 216 L241 0 L260 0 L323 216 L440 216 L440 234 L328 234 L386 433 L498 433 L498 450 L391 450 Z M133 234 L191 433 L367 433 L309 234 L133 234 Z " />
<glyph glyph-name="dollar" unicode="&#x24;" horiz-adv-x="487" d="M311 740 L295 740 L295 667 C283 669 269 670 255 670 C241 670 228 669 215 667 L215 740 L199 740 L199 664 C111 645 55 582 55 496 C55 413 104 365 199 338 L199 9 C123 20 75 70 75 141 L75 151 C74 151 73 153 73 153 C60 153 48 152 48 141 C48 60 107 3 199 -8 L199 -80 L215 -80 L215 -10 C221 -10 227 -11 233 -11 C255 -11 276 -8 295 -3 L295 -80 L311 -80 L311 2 C390 27 439 91 439 177 C439 247 396 307 311 341 L311 646 C369 629 397 591 397 533 C400 533 404 533 408 533 C417 533 424 534 424 543 C424 605 381 650 311 665 L311 740 Z M215 8 L215 335 C244 328 272 321 295 311 L295 16 C276 10 255 7 233 7 C227 7 221 8 215 8 L215 8 Z M199 646 L199 372 C126 398 89 440 89 508 C89 577 131 628 199 646 L199 646 Z M215 649 C227 651 240 652 253 652 C267 652 282 651 295 648 L295 345 C271 353 240 359 215 367 L215 649 Z M311 303 C376 270 410 221 410 166 C410 97 372 45 311 21 L311 303 Z " />
<glyph glyph-name="ampersand" unicode="&#x26;" horiz-adv-x="620" d="M585 2 L458 126 C519 210 566 329 619 471 L600 471 C560 362 512 232 442 140 L229 348 C338 405 409 481 409 543 C409 620 347 671 255 671 C148 671 77 608 77 513 C77 449 122 406 192 339 C49 268 21 210 21 143 C21 52 95 -8 207 -8 C307 -8 378 31 436 100 L535 2 L585 2 Z M55 150 C55 214 80 270 201 329 L421 113 C367 52 300 18 207 18 C116 18 55 71 55 150 L55 150 Z M252 655 C327 655 377 609 377 541 C377 479 315 407 221 356 C154 421 110 460 110 519 C110 601 167 655 252 655 L252 655 Z " />
<glyph glyph-name="quotesingle" unicode="&#x27;" horiz-adv-x="205" d="M80 740 L98 565 L108 565 L125 740 L80 740 Z " />
<glyph glyph-name="parenleft" unicode="&#x28;" horiz-adv-x="193" d="M54 295 C54 64 104 -61 179 -150 L188 -150 C123 -72 79 49 79 295 C79 541 123 662 188 740 L179 740 C104 651 54 526 54 295 L54 295 Z " />
<glyph glyph-name="parenright" unicode="&#x29;" horiz-adv-x="193" d="M46 740 C111 662 155 541 155 295 C155 49 111 -72 46 -150 L55 -150 C130 -61 180 64 180 295 C180 526 130 651 55 740 L46 740 Z " />
<glyph glyph-name="plus" unicode="&#x2b;" horiz-adv-x="510" d="M245 263 L245 52 L265 52 L265 263 L470 263 L470 281 L265 281 L265 482 L245 482 L245 281 L40 281 L40 263 L245 263 Z " />
<glyph glyph-name="comma" unicode="&#x2c;" horiz-adv-x="205" d="M60 -203 L60 -210 C117 -168 155 -106 155 -57 C155 -8 137 33 111 45 C105 48 101 50 98 50 C94 50 90 47 86 39 L72 14 L73 9 L90 0 C112 -10 126 -42 126 -81 C126 -125 100 -174 60 -203 L60 -203 Z " />
<glyph glyph-name="hyphen" unicode="&#x2d;" horiz-adv-x="375" d="M50 239 L325 239 L325 265 L50 265 L50 239 Z " />
<glyph glyph-name="period" unicode="&#x2e;" horiz-adv-x="174" d="M65 12 C65 -2 76 -9 87 -9 C99 -9 110 -2 110 12 C110 27 99 35 87 35 C76 35 65 27 65 12 L65 12 Z " />
<glyph glyph-name="slash" unicode="&#x2f;" horiz-adv-x="219" d="M0 -120 L19 -120 L219 750 L200 750 L0 -120 Z " />
<glyph glyph-name="zero" unicode="0" horiz-adv-x="512" d="M256 -10 C390 -10 479 129 479 338 C479 537 390 670 256 670 C122 670 33 536 33 335 C33 128 122 -10 256 -10 L256 -10 Z M68 347 C68 531 141 653 250 653 C368 653 446 522 446 326 C446 135 372 8 262 8 C146 8 68 144 68 347 L68 347 Z " />
<glyph glyph-name="one" unicode="1" horiz-adv-x="368" d="M245 617 L245 49 L243 17 L243 -1 L278 0 L278 18 L276 48 C276 166 277 470 277 617 L276 659 L269 659 L70 499 L70 485 L245 617 Z " />
<glyph glyph-name="two" unicode="2" horiz-adv-x="480" d="M40 502 C74 595 145 653 251 653 C338 653 396 593 396 502 C396 447 299 331 50 9 L50 0 L452 0 L452 15 C452 20 453 27 453 32 C435 32 419 31 403 30 L90 30 C336 348 432 468 432 503 C432 603 364 670 262 670 C129 670 40 603 40 502 L40 502 Z " />
<glyph glyph-name="three" unicode="3" horiz-adv-x="479" d="M46 133 C46 133 33 128 33 120 C33 42 113 -10 233 -10 C367 -10 456 64 456 175 C456 284 384 345 244 355 C366 377 429 443 429 533 C429 615 359 670 255 670 C134 670 53 612 53 526 C53 518 68 513 68 513 L83 513 L86 516 L86 530 C86 604 151 653 248 653 C335 653 393 603 393 529 C393 434 324 368 190 356 C176 356 161 355 145 354 L145 338 C162 339 179 340 194 340 C344 340 420 284 420 175 C420 74 345 7 233 7 C133 7 66 52 66 120 L66 130 L63 133 L46 133 Z " />
<glyph glyph-name="four" unicode="4" horiz-adv-x="501" d="M8 204 L324 204 L324 50 L322 18 L322 0 L358 0 L358 18 L356 50 L356 204 L488 204 L488 229 L356 229 L356 660 L349 660 C240 516 130 373 20 229 L8 211 L8 204 Z M43 229 L324 602 L324 229 L43 229 Z " />
<glyph glyph-name="five" unicode="5" horiz-adv-x="495" d="M196 -10 C348 -10 450 86 450 231 C450 338 348 409 196 409 C161 409 125 405 105 400 L105 631 L401 631 L400 660 L86 660 L86 369 C108 375 150 379 191 379 C330 379 423 313 423 215 C423 91 338 8 211 8 C163 8 116 29 94 61 C93 61 90 67 90 67 C83 67 74 59 72 57 C67 53 62 48 69 41 C90 10 141 -10 196 -10 L196 -10 Z " />
<glyph glyph-name="six" unicode="6" horiz-adv-x="486" d="M36 234 C36 88 121 -10 248 -10 C373 -10 456 73 456 198 C456 312 382 388 271 388 C180 388 105 344 72 274 C87 457 217 608 406 659 L406 670 C184 611 36 436 36 234 L36 234 Z M71 235 C89 312 163 363 257 363 C355 363 421 294 421 190 C421 80 352 7 248 7 C143 7 72 98 71 235 L71 235 Z " />
<glyph glyph-name="seven" unicode="7" horiz-adv-x="500" d="M50 631 L431 631 C221 281 82 30 82 0 L124 0 C124 56 259 318 461 653 L461 660 L50 660 L50 631 Z " />
<glyph glyph-name="eight" unicode="8" horiz-adv-x="480" d="M424 501 C424 602 353 670 247 670 C138 670 66 604 66 505 C66 425 103 362 195 331 C99 313 38 245 38 150 C38 55 118 -9 238 -9 C358 -9 438 61 438 167 C438 247 393 313 303 342 C377 361 424 419 424 501 L424 501 Z M206 328 L206 329 C219 325 233 322 249 319 C353 302 407 238 407 156 C407 67 340 7 240 7 C139 7 72 68 72 159 C72 246 124 309 206 328 L206 328 Z M245 653 C334 653 393 591 393 498 C393 422 353 366 289 346 C278 349 268 351 256 353 C144 371 100 434 100 517 C100 599 158 653 245 653 L245 653 Z " />
<glyph glyph-name="nine" unicode="9" horiz-adv-x="484" d="M30 465 C30 352 108 277 226 277 C308 277 379 322 413 393 C405 100 273 1 79 1 L80 -10 C301 -10 449 94 449 426 C449 572 364 670 237 670 C113 670 30 600 30 465 L30 465 Z M236 653 C341 653 412 562 413 425 C390 351 321 301 239 301 C134 301 64 367 64 465 C64 589 133 653 236 653 L236 653 Z " />
<glyph glyph-name="colon" unicode="&#x3a;" horiz-adv-x="174" d="M65 202 C65 188 76 181 87 181 C99 181 110 188 110 202 C110 217 99 225 87 225 C76 225 65 217 65 202 L65 202 Z M110 12 C110 27 99 35 87 35 C76 35 65 27 65 12 C65 -2 76 -9 87 -9 C99 -9 110 -2 110 12 L110 12 Z " />
<glyph glyph-name="semicolon" unicode="&#x3b;" horiz-adv-x="205" d="M155 -57 C155 -8 137 33 111 45 C105 48 101 50 98 50 C94 50 90 47 86 39 L72 14 L73 9 L90 0 C112 -10 126 -42 126 -81 C126 -125 100 -174 60 -203 L60 -210 C117 -168 155 -106 155 -57 L155 -57 Z M79 202 C79 188 90 180 101 180 C112 180 123 188 123 202 C123 217 112 225 101 225 C90 225 79 217 79 202 L79 202 Z " />
<glyph glyph-name="equal" unicode="&#x3d;" horiz-adv-x="500" d="M40 195 L40 176 L460 176 L460 195 L40 195 Z M460 349 L460 368 L40 368 L40 349 L460 349 Z " />
<glyph glyph-name="question" unicode="&#x3f;" horiz-adv-x="464" d="M54 494 L73 494 L73 513 C73 598 135 654 228 654 C316 654 374 596 374 510 C374 420 293 354 171 345 C171 276 181 115 181 115 L188 115 C188 115 193 239 194 316 C324 332 409 408 409 510 C409 606 341 670 239 670 C120 670 40 606 40 509 C40 500 46 494 54 494 L54 494 Z M162 17 C162 3 173 -4 185 -4 C196 -4 207 3 207 17 C207 32 196 40 185 40 C173 40 162 32 162 17 L162 17 Z " />
<glyph glyph-name="A" unicode="A" horiz-adv-x="646" d="M609 2 C609 2 609 11 605 16 L591 45 L329 665 L312 665 C229 467 137 248 53 50 L37 18 C35 11 32 0 32 0 L61 0 C59 0 64 18 65 19 L77 50 C77 50 139 199 165 263 L463 263 L567 18 C567 16 570 2 570 2 L609 2 Z M174 286 C213 379 260 492 313 619 L454 286 L174 286 Z " />
<glyph glyph-name="B" unicode="B" horiz-adv-x="565" d="M68 606 L68 56 L65 20 L65 1 L227 1 C400 1 515 74 515 184 C515 272 441 334 295 349 C396 373 458 429 458 504 C458 598 381 661 232 661 L65 661 L65 642 L68 606 Z M101 331 L235 331 C397 331 480 271 480 181 C480 85 379 21 227 21 L101 21 L101 331 Z M225 640 C356 640 424 582 424 495 C424 414 340 357 211 351 L102 351 L102 641 C139 641 224 641 225 640 L225 640 Z " />
<glyph glyph-name="C" unicode="C" horiz-adv-x="711" d="M398 -8 C486 -8 576 13 621 45 L621 43 L622 68 C616 68 611 69 606 69 C590 60 570 46 554 37 C509 20 452 10 398 10 C222 10 105 137 105 327 C105 522 228 652 412 652 C456 652 500 645 536 633 C536 633 542 631 543 630 C560 620 582 606 599 596 C604 596 610 597 616 597 L615 622 C579 652 498 672 412 672 C207 672 70 530 70 317 C70 122 201 -8 398 -8 L398 -8 Z " />
<glyph glyph-name="D" unicode="D" horiz-adv-x="684" d="M65 19 L65 0 L242 0 C465 8 614 129 614 354 C614 556 464 660 239 660 L65 660 L65 641 L68 605 L68 55 L65 19 Z M101 640 L229 640 C439 640 579 538 579 341 C579 137 444 27 241 20 L101 20 L101 640 Z " />
<glyph glyph-name="E" unicode="E" horiz-adv-x="573" d="M69 605 L69 55 L66 19 L66 0 L504 0 L503 25 L486 25 L428 20 L101 20 L101 330 C146 330 192 331 237 331 C283 331 328 330 370 327 L393 327 L393 353 C370 353 350 352 329 350 L102 350 L102 640 C162 640 223 641 284 641 C345 641 406 640 462 636 L479 636 L479 660 L66 660 L66 641 L69 605 Z " />
<glyph glyph-name="F" unicode="F" horiz-adv-x="538" d="M66 660 L66 641 L69 605 L69 55 L66 19 L66 0 L105 0 L105 19 L102 55 L102 330 C147 330 193 331 238 331 C284 331 329 330 371 327 L394 327 L393 353 C370 353 350 352 329 350 L102 350 L102 640 C160 640 220 641 279 641 C339 641 397 640 452 636 L469 636 L469 660 L66 660 Z " />
<glyph glyph-name="G" unicode="G" horiz-adv-x="699" d="M70 315 C70 120 201 -10 398 -10 C505 -10 604 24 647 75 L647 235 L650 271 L650 290 L611 290 L611 271 L614 235 L614 68 C575 34 495 12 408 12 C226 12 105 138 105 326 C105 521 232 651 422 651 C470 651 518 643 556 630 L563 627 C580 617 602 604 619 594 C624 594 630 595 636 595 L635 620 C599 650 514 670 422 670 C211 670 70 528 70 315 L70 315 Z " />
<glyph glyph-name="H" unicode="H" horiz-adv-x="641" d="M101 350 L101 605 L104 641 L104 660 L65 660 L65 641 L68 605 L68 55 L65 19 L65 0 L104 0 L104 19 L101 55 L101 330 L541 330 L541 55 L538 19 L538 0 L577 0 L577 19 L574 55 L574 605 L577 641 L577 660 L538 660 L538 641 L541 605 L541 350 L101 350 Z " />
<glyph glyph-name="I" unicode="I" horiz-adv-x="178" d="M70 660 L70 641 L73 605 L73 55 L70 19 L70 0 L109 0 L109 19 L106 55 L106 605 L109 641 L109 660 L70 660 Z " />
<glyph glyph-name="J" unicode="J" horiz-adv-x="178" d="M-27 -173 C53 -173 106 -55 106 122 L106 605 L109 641 L109 660 L70 660 L70 641 L73 605 L73 50 C73 -68 38 -146 -14 -146 C-14 -146 -29 -143 -36 -143 C-36 -144 -46 -173 -27 -173 L-27 -173 Z " />
<glyph glyph-name="K" unicode="K" horiz-adv-x="576" d="M494 40 L138 346 C251 445 362 546 477 643 C483 649 494 659 495 660 L452 660 C451 659 437 643 435 641 L103 338 L490 0 L541 0 C537 3 531 8 524 14 C515 23 504 32 494 40 L494 40 Z M64 639 L67 603 L67 53 L64 17 L64 -2 L104 -2 L104 17 L101 53 L101 603 L104 639 L104 658 L64 658 L64 639 Z " />
<glyph glyph-name="L" unicode="L" horiz-adv-x="553" d="M65 19 L65 0 L483 0 L483 26 L465 26 L403 20 L101 20 L101 605 L104 641 L104 660 L65 660 L65 641 L68 605 L68 55 L65 19 Z " />
<glyph glyph-name="M" unicode="M" horiz-adv-x="805" d="M111 619 L393 -5 L410 -5 L688 614 L709 54 L708 19 L708 0 L745 0 L745 19 L741 55 L720 606 L721 641 L721 660 L686 660 L409 41 L128 660 L90 660 L90 605 L66 50 L62 19 L62 0 L89 0 L87 50 L111 619 Z " />
<glyph glyph-name="N" unicode="N" horiz-adv-x="641" d="M67 605 L67 55 L64 19 L64 0 L97 0 L97 19 L93 55 L93 605 L567 -4 L578 -4 L578 606 L581 642 L581 661 L547 661 L547 642 L551 606 L551 71 L92 661 L63 661 L67 605 Z " />
<glyph glyph-name="O" unicode="O" horiz-adv-x="792" d="M396 -10 C592 -10 722 125 722 328 C722 533 592 670 396 670 C200 670 70 536 70 334 C70 128 200 -10 396 -10 L396 -10 Z M106 347 C106 530 219 652 389 652 C567 652 686 517 686 315 C686 131 573 9 404 9 C225 9 106 144 106 347 L106 347 Z " />
<glyph glyph-name="P" unicode="P" horiz-adv-x="564" d="M65 660 L65 641 L68 605 L68 55 L65 19 L65 0 L104 0 L104 19 L101 55 L101 307 L221 307 C385 307 494 378 494 484 C494 590 395 660 246 660 L65 660 Z M101 640 C141 640 237 640 238 639 C370 639 458 576 458 481 C458 389 366 327 228 327 L101 327 L101 640 Z " />
<glyph glyph-name="Q" unicode="Q" horiz-adv-x="792" d="M423 -9 C507 -39 601 -134 693 -134 C717 -134 740 -130 751 -125 L751 -120 C748 -122 733 -123 715 -123 C627 -123 538 -28 459 -5 C620 21 723 148 723 328 C723 533 593 670 397 670 C201 670 71 536 71 334 C71 131 198 -10 395 -10 C404 -10 413 -10 423 -9 L423 -9 Z M107 348 C107 531 220 653 390 653 C568 653 687 518 687 316 C687 132 574 10 405 10 C226 10 107 145 107 348 L107 348 Z " />
<glyph glyph-name="R" unicode="R" horiz-adv-x="520" d="M66 641 L69 605 L69 55 L66 19 L66 0 L105 0 L105 19 L102 55 L102 320 L201 320 L463 0 L512 0 L463 50 C394 128 281 271 242 321 C336 333 447 398 447 491 C447 592 359 660 228 660 L66 660 L66 641 Z M101 641 C137 641 218 641 219 640 C334 640 410 580 410 489 C410 400 288 341 200 341 L101 341 L101 641 Z " />
<glyph glyph-name="S" unicode="S" horiz-adv-x="500" d="M68 100 L71 40 C130 10 206 -10 260 -10 C371 -10 445 65 445 178 C445 269 387 322 273 357 C173 388 121 433 121 508 C121 594 176 652 259 652 C278 652 339 642 350 625 C361 611 377 593 388 579 C395 579 402 580 408 580 L406 623 C370 651 312 670 262 670 C157 670 87 600 87 496 C87 414 141 365 247 332 C357 298 413 249 413 169 C413 72 352 7 260 7 C231 7 183 20 132 42 L129 45 C117 62 101 84 89 101 C82 101 75 100 68 100 L68 100 Z " />
<glyph glyph-name="T" unicode="T" horiz-adv-x="675" d="M63 635 L125 640 L321 640 L321 55 L317 19 L317 0 L358 0 L358 19 L354 55 L354 640 L550 640 L612 635 L630 635 L630 660 L45 660 L45 635 L63 635 Z " />
<glyph glyph-name="U" unicode="U" horiz-adv-x="659" d="M79 641 L82 605 L82 234 C82 88 184 -10 337 -10 C490 -10 592 88 592 234 L592 605 L595 641 L595 660 L561 660 L561 641 C561 638 564 605 565 605 L566 226 C566 98 478 12 347 12 C208 12 115 103 115 240 L115 605 L118 641 L118 660 L79 660 L79 641 Z " />
<glyph glyph-name="V" unicode="V" horiz-adv-x="643" d="M56 610 L317 -5 L333 -5 C419 203 504 412 590 620 L602 646 C602 654 606 660 606 660 L577 660 L573 641 L562 612 L332 46 L78 641 C77 643 74 660 74 660 L35 660 C35 660 37 653 40 643 L40 642 L56 610 Z " />
<glyph glyph-name="W" unicode="W" horiz-adv-x="861" d="M34 611 C103 406 171 200 242 -5 L247 -5 L433 585 L648 -5 L652 -5 C715 204 774 415 835 625 L843 647 C843 649 845 661 845 661 L816 661 C816 661 815 643 815 642 C755 463 665 116 653 72 C580 270 507 467 435 665 L432 665 C369 468 309 269 248 71 L65 616 L58 639 C57 641 56 658 56 660 L18 660 C18 660 19 647 22 642 L34 611 Z " />
<glyph glyph-name="X" unicode="X" horiz-adv-x="653" d="M567 661 L562 651 L537 613 L345 344 C276 431 206 518 138 605 L109 641 C108 643 98 660 98 660 L55 660 C55 660 60 652 69 639 L90 615 L317 328 C244 235 171 142 98 50 L73 18 C64 7 59 0 59 0 L91 0 L96 10 C99 15 101 19 101 19 L127 55 L328 313 L539 46 L572 -1 L618 -1 C618 -1 613 6 605 17 L358 327 C427 423 495 519 564 615 L583 641 C590 653 595 661 595 661 L567 661 Z " />
<glyph glyph-name="Y" unicode="Y" horiz-adv-x="654" d="M69 615 L317 302 L317 55 L314 19 L314 0 L354 0 L354 19 L351 55 L351 302 C437 416 521 533 608 646 C613 655 617 660 617 660 L588 660 L583 650 C580 645 579 642 577 640 L552 605 L342 323 L87 641 C85 643 76 659 75 660 L34 660 C34 660 38 653 46 641 C47 641 47 640 48 639 L69 615 Z " />
<glyph glyph-name="Z" unicode="Z" horiz-adv-x="646" d="M556 0 L556 25 L538 25 L476 20 L143 20 L526 640 L541 660 L113 660 L113 635 L131 635 L193 640 L491 640 L101 9 L101 0 L556 0 Z " />
<glyph glyph-name="bracketleft" unicode="&#x5b;" horiz-adv-x="210" d="M66 740 L66 -150 L205 -150 L205 -141 L89 -141 L89 731 L205 731 L205 740 L66 740 Z " />
<glyph glyph-name="backslash" unicode="&#x5c;" horiz-adv-x="188" d="M0 750 L169 -120 L188 -120 L19 750 L0 750 Z " />
<glyph glyph-name="bracketright" unicode="&#x5d;" horiz-adv-x="205" d="M5 740 L5 731 L117 731 L117 -141 L5 -141 L5 -150 L140 -150 L140 740 L5 740 Z " />
<glyph glyph-name="asciicircum" unicode="&#x5e;" horiz-adv-x="340" d="M41 530 L46 530 L170 669 L299 530 L304 530 L176 705 L164 705 L41 530 Z " />
<glyph glyph-name="underscore" unicode="&#x5f;" horiz-adv-x="500" d="M475 -115 L475 -96 L25 -96 L25 -115 L475 -115 Z " />
<glyph glyph-name="grave" unicode="&#x60;" horiz-adv-x="340" d="M57 707 C57 707 61 694 68 684 L170 530 L174 530 L87 707 L57 707 Z " />
<glyph glyph-name="a" unicode="a" horiz-adv-x="477" d="M71 332 C71 326 74 322 79 322 L97 322 L102 327 L103 335 C103 397 156 443 227 443 C302 443 340 401 340 339 L340 257 C155 220 60 154 60 84 C60 28 106 -10 175 -10 C240 -10 302 15 340 63 C343 19 368 -10 403 -10 C430 -10 456 11 467 43 L466 45 C459 25 441 12 421 12 C390 12 369 35 369 70 L369 347 C369 415 323 460 235 460 C142 460 71 405 71 332 L71 332 Z M88 91 C88 153 173 211 339 244 L339 73 C306 33 250 13 190 13 C129 13 88 44 88 91 L88 91 Z " />
<glyph glyph-name="b" unicode="b" horiz-adv-x="490" d="M40 720 C41 680 42 653 42 653 L42 -10 L44 -10 C44 -10 72 14 72 24 L72 42 C116 10 170 -10 212 -10 C349 -10 440 94 440 249 C440 376 365 460 252 460 C182 460 111 425 72 372 L72 749 L66 749 C58 746 50 742 42 739 L40 738 L40 720 Z M72 352 C103 401 167 434 231 434 C339 434 411 356 411 240 C411 100 335 7 222 7 C180 7 120 36 72 79 L72 352 Z " />
<glyph glyph-name="c" unicode="c" horiz-adv-x="477" d="M260 -11 C329 -11 398 31 432 95 L432 98 L428 99 C388 50 327 18 276 18 C157 18 78 102 78 229 C78 359 154 445 267 445 C314 445 360 424 384 393 L409 360 L431 381 C431 382 429 385 425 390 C394 441 337 459 280 459 C141 459 49 360 49 211 C49 78 133 -11 260 -11 L260 -11 Z " />
<glyph glyph-name="d" unicode="d" horiz-adv-x="493" d="M48 198 C48 73 124 -10 238 -10 C309 -10 378 18 413 60 C413 42 416 0 416 0 L445 0 L445 18 L442 50 L442 758 L436 758 L411 750 L412 734 C413 699 414 675 414 675 L414 436 C360 451 311 460 287 460 C144 460 48 355 48 198 L48 198 Z M76 207 C76 348 158 442 281 442 C281 442 333 427 413 404 L413 73 C382 38 322 15 258 15 C149 15 76 92 76 207 L76 207 Z " />
<glyph glyph-name="e" unicode="e" horiz-adv-x="483" d="M51 212 C51 79 135 -10 262 -10 C331 -10 400 32 434 96 L434 99 L430 99 C390 50 329 18 278 18 C154 18 74 108 80 245 L421 245 L434 247 C434 375 365 460 262 460 C135 460 51 361 51 212 L51 212 Z M81 262 C92 372 159 444 254 444 C342 444 402 372 407 262 L81 262 Z " />
<glyph glyph-name="f" unicode="f" horiz-adv-x="329" d="M164 0 L164 18 L162 50 L162 433 L294 433 L294 450 L162 450 L162 526 C162 627 248 719 350 719 C359 719 374 715 387 709 C401 702 414 698 414 698 C424 698 426 698 426 712 C426 721 415 732 398 740 C398 740 374 750 363 750 C253 750 133 615 133 490 L133 450 L40 450 L40 433 L133 433 L133 50 L131 18 L131 0 L164 0 Z " />
<glyph glyph-name="g" unicode="g" horiz-adv-x="534" d="M321 449 C300 456 277 460 252 460 C138 460 80 396 80 301 C80 234 113 183 168 158 C116 141 81 111 81 80 C81 43 115 18 168 13 C110 0 72 -70 72 -122 C72 -193 136 -240 233 -240 C377 -240 473 -180 473 -89 C473 -13 429 38 315 38 L198 38 C144 38 108 60 108 92 C108 118 136 143 178 154 C200 146 225 141 252 141 C366 141 424 205 424 301 C424 360 398 407 353 434 L484 430 L484 450 L321 449 Z M188 12 L301 12 C405 12 446 -32 446 -97 C446 -177 362 -230 237 -230 C154 -230 99 -185 99 -118 C99 -59 135 12 188 12 L188 12 Z M249 445 C335 445 393 387 393 300 C393 213 346 155 256 155 C168 155 110 214 110 302 C110 388 157 445 249 445 L249 445 Z " />
<glyph glyph-name="h" unicode="h" horiz-adv-x="451" d="M52 654 L52 50 L50 18 L50 0 L84 0 L84 18 L82 50 L82 363 C122 405 172 434 240 434 C323 434 378 391 378 326 C379 325 379 141 379 50 L377 18 L377 0 L411 0 L411 18 L409 50 L409 343 C409 413 348 460 257 460 C187 460 131 425 82 374 L82 750 L76 750 C68 747 60 743 52 740 L50 739 L50 721 C51 681 52 654 52 654 L52 654 Z " />
<glyph glyph-name="i" unicode="i" horiz-adv-x="141" d="M54 431 C55 391 56 364 56 364 L56 50 L54 18 L54 0 L89 0 L89 18 L86 50 L86 460 L80 460 C72 457 64 453 56 450 L54 449 L54 431 Z M47 632 C47 618 58 611 69 611 C81 611 92 618 92 632 C92 647 81 655 69 655 C58 655 47 647 47 632 L47 632 Z " />
<glyph glyph-name="j" unicode="j" horiz-adv-x="141" d="M-7 -232 C90 -172 86 -106 86 -4 L86 460 L80 460 C72 457 64 453 56 450 L54 449 L54 431 C55 391 56 364 56 364 L56 -8 C56 -115 65 -180 -7 -225 L-7 -232 Z M49 632 C49 618 60 610 71 610 C82 610 93 618 93 632 C93 647 82 655 71 655 C60 655 49 647 49 632 L49 632 Z " />
<glyph glyph-name="k" unicode="k" horiz-adv-x="409" d="M336 42 L110 262 L308 398 C313 401 319 405 325 409 L354 429 C373 442 384 450 384 450 L354 450 C354 450 334 429 329 429 L82 255 L82 760 L76 760 C68 757 60 753 52 750 L50 749 L50 731 C51 691 52 664 52 664 L52 50 L50 18 L50 0 L85 0 L85 18 L82 50 L82 249 L343 0 L379 0 C379 0 371 8 358 22 L336 42 Z " />
<glyph glyph-name="l" unicode="l" horiz-adv-x="122" d="M44 731 C45 691 46 664 46 664 L46 50 L44 18 L44 0 L78 0 L78 18 L76 50 L76 760 L70 760 C62 757 54 753 46 750 L44 749 L44 731 Z " />
<glyph glyph-name="m" unicode="m" horiz-adv-x="762" d="M687 327 C688 326 688 142 688 51 L685 19 L685 1 L722 0 L722 18 L720 50 L720 343 C720 413 661 460 573 460 C502 460 444 422 391 366 C379 423 324 460 246 460 C179 460 125 425 76 374 L76 381 L75 381 C74 409 73 460 73 460 L67 460 L43 449 L43 431 C44 391 45 364 45 364 L45 50 L43 18 L43 0 L77 0 L77 18 L75 50 L75 363 C115 405 164 434 227 434 C307 434 361 391 361 326 C362 325 362 141 362 50 L359 18 L359 0 L394 0 L394 18 L391 50 L392 343 C392 348 391 358 391 359 C435 405 486 435 553 435 C633 435 687 392 687 327 L687 327 Z " />
<glyph glyph-name="n" unicode="n" horiz-adv-x="451" d="M49 431 C50 391 51 364 51 364 L51 50 L49 18 L49 0 L84 0 L84 18 L81 50 L81 363 C121 405 171 434 239 434 C322 434 377 391 377 326 C378 325 378 141 378 50 L375 18 L375 0 L411 0 L411 18 L409 50 L409 343 C409 413 348 460 257 460 C187 460 131 425 82 374 L82 381 L81 381 C80 409 79 460 79 460 L73 460 L49 449 L49 431 Z " />
<glyph glyph-name="o" unicode="o" horiz-adv-x="524" d="M262 -10 C402 -10 474 84 474 225 C474 366 389 460 262 460 C122 460 50 366 50 225 C50 84 135 -10 262 -10 L262 -10 Z M84 225 C84 356 143 444 257 444 C366 444 439 356 439 225 C439 94 381 6 267 6 C157 6 84 94 84 225 L84 225 Z " />
<glyph glyph-name="p" unicode="p" horiz-adv-x="497" d="M53 365 L53 -179 L51 -211 L51 -229 L86 -229 L86 -211 L83 -179 L83 16 C113 1 166 -9 223 -9 C359 -9 449 93 449 245 C449 375 375 461 265 461 C204 461 132 432 83 388 L81 387 C80 415 80 460 80 460 L74 460 L51 450 L51 432 C52 392 53 365 53 365 L53 365 Z M84 51 L84 377 C125 413 188 436 243 436 C349 436 420 354 420 232 C420 98 345 9 233 9 C174 9 114 26 84 51 L84 51 Z " />
<glyph glyph-name="q" unicode="q" horiz-adv-x="462" d="M228 -11 C274 -11 338 17 391 60 L391 -181 L388 -213 L388 -231 L422 -230 L422 -212 L420 -180 L420 460 L418 460 L391 447 L391 441 C363 452 320 459 273 459 C139 459 50 354 50 197 C50 72 121 -11 228 -11 L228 -11 Z M270 441 C317 441 366 427 392 405 L392 73 C348 37 292 14 250 14 C148 14 80 91 80 206 C80 347 156 441 270 441 L270 441 Z " />
<glyph glyph-name="r" unicode="r" horiz-adv-x="257" d="M175 460 C150 460 118 420 82 359 L82 374 L81 374 C80 399 79 460 79 460 L73 460 L49 449 L49 431 C50 391 51 364 51 364 L51 50 L49 18 L49 0 L84 0 L84 18 L81 50 L81 347 C111 397 137 431 156 431 C170 431 190 427 206 420 C217 415 244 404 244 404 L251 404 C254 410 256 420 256 429 C256 441 195 460 174 460 L175 460 Z " />
<glyph glyph-name="s" unicode="s" horiz-adv-x="405" d="M60 43 L60 23 C102 3 158 -10 198 -10 C280 -10 335 39 335 113 C335 169 293 209 212 243 C139 274 101 307 101 350 C101 408 140 446 199 446 C222 446 257 433 292 415 L303 411 L318 402 L318 410 L319 421 C280 444 231 459 197 459 C124 459 75 411 75 338 C75 287 114 251 189 219 C268 185 309 150 309 102 C309 42 264 2 196 2 C196 2 175 3 175 4 C151 8 115 21 86 37 L74 43 L60 43 Z " />
<glyph glyph-name="t" unicode="t" horiz-adv-x="297" d="M18 433 L94 433 L94 90 C94 30 127 -10 177 -10 C213 -10 249 16 267 54 L266 57 C253 29 227 11 199 11 C154 11 124 45 124 96 L123 433 L255 433 L255 450 L123 450 L123 541 L121 541 L94 450 L18 435 L18 433 Z " />
<glyph glyph-name="u" unicode="u" horiz-adv-x="413" d="M28 400 L28 107 C28 37 88 -10 177 -10 C228 -10 294 22 356 83 L356 0 L388 0 L388 18 L385 50 L385 450 L353 450 L353 432 L356 400 L356 95 C304 44 243 17 194 17 C112 17 58 60 58 125 L58 450 L26 450 L26 432 L28 400 Z " />
<glyph glyph-name="v" unicode="v" horiz-adv-x="379" d="M-21 449 C-21 449 -19 442 -15 431 L1 403 L192 -1 L200 -1 L379 399 L395 430 C399 441 401 449 401 449 L380 450 C380 449 377 432 376 430 L360 395 L207 40 C150 160 92 280 36 400 L20 430 C18 432 16 447 15 449 L-21 449 Z " />
<glyph glyph-name="w" unicode="w" horiz-adv-x="638" d="M17 430 C16 432 14 447 14 450 L-22 450 L141 0 L150 0 L306 403 L456 1 L465 1 C523 133 581 265 639 396 L657 432 C661 443 663 451 663 451 L641 450 C641 450 637 432 637 431 L624 403 L473 47 L319 450 L308 450 L156 46 L17 430 Z " />
<glyph glyph-name="x" unicode="x" horiz-adv-x="424" d="M398 -1 C398 -1 392 8 382 22 L363 46 C314 111 265 176 215 241 C254 292 296 350 334 401 L357 432 C362 438 367 445 371 452 L349 451 C348 450 339 434 338 432 L209 250 C171 300 133 350 96 400 L71 433 C71 434 62 450 62 450 L27 450 C29 448 56 409 65 400 L192 231 C142 162 94 91 42 23 C33 10 27 1 27 1 L50 0 C51 1 58 16 59 18 L199 220 L350 18 C352 15 360 1 361 -1 L398 -1 Z " />
<glyph glyph-name="y" unicode="y" horiz-adv-x="379" d="M-15 432 L1 405 L206 4 L170 -87 C135 -175 100 -209 43 -209 L29 -209 L25 -213 L25 -229 C25 -237 29 -240 38 -240 C101 -240 142 -199 184 -93 C255 81 323 258 396 430 C397 432 398 433 398 433 C401 443 403 449 403 449 L381 450 C379 439 378 435 377 431 L221 40 L22 431 C21 434 17 447 17 449 L-21 449 C-21 449 -19 442 -15 432 L-15 432 Z " />
<glyph glyph-name="z" unicode="z" horiz-adv-x="480" d="M82 0 L407 0 L407 21 L390 21 L357 17 L123 17 L379 433 L397 450 L92 450 L92 429 L109 429 L142 433 L344 433 C257 291 168 150 82 7 L82 0 Z " />
<glyph glyph-name="bar" unicode="&#x7c;" horiz-adv-x="209" d="M91 -260 L109 -260 L109 760 L91 760 L91 -260 Z " />
<glyph glyph-name="asciitilde" unicode="&#x7e;" horiz-adv-x="340" d="M25 225 C39 268 54 296 105 296 C141 296 190 239 226 239 C283 239 301 277 320 334 L315 334 C301 290 286 261 235 261 C199 261 150 318 114 318 C57 318 38 281 20 225 L25 225 Z " />
<glyph glyph-name="exclamdown" unicode="&#xa1;" horiz-adv-x="183" d="M63 -210 L118 -210 L94 335 L87 335 L63 -210 Z M112 438 C112 453 101 460 90 460 C79 460 68 453 68 438 C68 423 79 416 90 416 C101 416 112 423 112 438 L112 438 Z " />
<glyph glyph-name="guillemotleft" unicode="&#xab;" horiz-adv-x="432" d="M206 248 L406 70 L412 70 L256 248 L412 425 L406 425 L206 248 Z M218 70 L224 70 L68 248 L224 425 L218 425 L18 248 L218 70 Z " />
<glyph glyph-name="acute" unicode="&#xb4;" horiz-adv-x="340" d="M172 530 L176 530 L278 684 C285 694 289 707 289 707 L259 707 L172 530 Z " />
<glyph glyph-name="periodcentered" unicode="&#xb7;" horiz-adv-x="174" d="M65 232 C65 218 76 211 87 211 C99 211 110 218 110 232 C110 247 99 255 87 255 C76 255 65 247 65 232 L65 232 Z " />
<glyph glyph-name="guillemotright" unicode="&#xbb;" horiz-adv-x="406" d="M188 425 L336 248 L188 70 L194 70 L386 248 L194 425 L188 425 Z M168 248 L20 70 L26 70 L218 248 L26 425 L20 425 L168 248 Z " />
<glyph glyph-name="questiondown" unicode="&#xbf;" horiz-adv-x="464" d="M90 -60 C90 30 171 96 293 105 C293 174 283 335 283 335 L276 335 C276 335 271 211 270 134 C140 118 55 42 55 -60 C55 -156 123 -220 225 -220 C344 -220 424 -156 424 -59 C424 -50 418 -44 410 -44 L391 -44 L391 -63 C391 -148 329 -204 236 -204 C148 -204 90 -146 90 -60 L90 -60 Z M257 433 C257 418 268 410 279 410 C291 410 302 418 302 433 C302 447 291 454 279 454 C268 454 257 447 257 433 L257 433 Z " />
<glyph glyph-name="Agrave" unicode="&#xc0;" horiz-adv-x="646" d="M609 2 C609 2 609 11 605 16 L591 45 L329 665 L312 665 C229 467 137 248 53 50 L37 18 C35 11 32 0 32 0 L61 0 C59 0 64 18 65 19 L77 50 C77 50 139 199 165 263 L463 263 L567 18 C567 16 570 2 570 2 L609 2 Z M174 286 C213 379 260 492 313 619 L454 286 L174 286 Z M210 843 L312 704 L316 704 L316 705 L229 864 L199 864 C199 864 203 852 210 843 L210 843 Z " />
<glyph glyph-name="Aacute" unicode="&#xc1;" horiz-adv-x="646" d="M609 2 C609 2 609 11 605 16 L591 45 L329 665 L312 665 C229 467 137 248 53 50 L37 18 C35 11 32 0 32 0 L61 0 C59 0 64 18 65 19 L77 50 C77 50 139 199 165 263 L463 263 L567 18 C567 16 570 2 570 2 L609 2 Z M174 286 C213 379 260 492 313 619 L454 286 L174 286 Z M318 705 L420 844 C427 853 431 865 431 865 L401 865 L314 706 L314 705 L318 705 Z " />
<glyph glyph-name="Acircumflex" unicode="&#xc2;" horiz-adv-x="646" d="M570 2 L609 2 C609 2 609 11 605 16 L591 45 L329 665 L312 665 C229 467 137 248 53 50 L37 18 C35 11 32 0 32 0 L61 0 C59 0 64 18 65 19 L77 50 C77 50 139 199 165 263 L463 263 L567 18 C567 16 570 2 570 2 L570 2 Z M174 286 C213 379 260 492 313 619 L454 286 L174 286 Z M193 706 L317 832 L446 706 L451 706 L323 864 L311 864 L311 862 L188 706 L193 706 Z " />
<glyph glyph-name="Atilde" unicode="&#xc3;" horiz-adv-x="646" d="M570 2 L609 2 C609 2 609 11 605 16 L591 45 L329 665 L312 665 C229 467 137 248 53 50 L37 18 C35 11 32 0 32 0 L61 0 C59 0 64 18 65 19 L77 50 C77 50 139 199 165 263 L463 263 L567 18 C567 16 570 2 570 2 L570 2 Z M174 286 C213 379 260 492 313 619 L454 286 L174 286 Z M172 727 L177 727 L177 728 C191 766 206 791 257 791 C293 791 342 740 378 740 C435 740 453 774 472 825 L467 825 C453 785 438 759 387 759 C351 759 302 810 266 810 C209 810 190 777 172 727 L172 727 Z " />
<glyph glyph-name="Adieresis" unicode="&#xc4;" horiz-adv-x="646" d="M609 2 C609 2 609 11 605 16 L591 45 L329 665 L312 665 C229 467 137 248 53 50 L37 18 C35 11 32 0 32 0 L61 0 C59 0 64 18 65 19 L77 50 C77 50 139 199 165 263 L463 263 L567 18 C567 16 570 2 570 2 L609 2 Z M313 619 L454 286 L174 286 C213 379 260 492 313 619 L313 619 Z M367 755 C367 742 377 736 387 736 C397 736 407 742 407 755 C407 768 397 775 387 775 C377 775 367 768 367 755 L367 755 Z M227 755 C227 742 237 736 247 736 C257 736 267 742 267 755 C267 768 257 775 247 775 C237 775 227 768 227 755 L227 755 Z " />
<glyph glyph-name="Aring" unicode="&#xc5;" horiz-adv-x="646" d="M570 2 L609 2 C609 2 609 11 605 16 L591 45 L329 665 L312 665 C229 467 137 248 53 50 L37 18 C35 11 32 0 32 0 L61 0 C59 0 64 18 65 19 L77 50 C77 50 139 199 165 263 L463 263 L567 18 C567 16 570 2 570 2 L570 2 Z M174 286 C213 379 260 492 313 619 L454 286 L174 286 Z M239 785 C239 745 275 710 317 710 C359 710 395 745 395 786 C395 830 364 860 317 860 C270 860 239 830 239 785 L239 785 Z M316 851 C352 851 376 824 376 783 C376 748 350 719 319 719 C286 719 258 751 258 788 C258 826 281 851 316 851 L316 851 Z " />
<glyph glyph-name="Ccedilla" unicode="&#xc7;" horiz-adv-x="711" d="M615 621 C579 651 498 671 412 671 C207 671 70 529 70 316 C70 122 199 -8 394 -10 C391 -17 369 -64 338 -132 L349 -137 C401 -153 436 -174 436 -188 C436 -213 420 -230 397 -230 C365 -230 333 -222 318 -211 L318 -215 C338 -230 372 -240 402 -240 C436 -240 459 -217 459 -182 C459 -160 419 -133 359 -114 L359 -115 C386 -57 405 -17 408 -11 C493 -10 578 11 621 42 L622 67 C616 67 611 68 606 68 C590 59 570 45 554 36 C509 19 452 9 398 9 C222 9 105 136 105 326 C105 521 228 651 412 651 C456 651 500 644 536 632 C536 632 542 630 543 629 C560 619 582 605 599 595 C604 595 610 596 616 596 L615 621 Z " />
<glyph glyph-name="Egrave" unicode="&#xc8;" horiz-adv-x="573" d="M101 20 L101 330 C146 330 192 331 237 331 C283 331 328 330 370 327 L393 327 L393 353 C370 353 350 352 329 350 L102 350 L102 640 C162 640 223 641 284 641 C345 641 406 640 462 636 L479 636 L479 660 L66 660 L66 641 L69 605 L69 55 L66 19 L66 0 L504 0 L503 25 L486 25 L428 20 L101 20 Z M145 864 C145 864 149 852 156 843 L258 704 L262 704 L262 705 L175 864 L145 864 Z " />
<glyph glyph-name="Eacute" unicode="&#xc9;" horiz-adv-x="573" d="M101 20 L101 330 C146 330 192 331 237 331 C283 331 328 330 370 327 L393 327 L393 353 C370 353 350 352 329 350 L102 350 L102 640 C162 640 223 641 284 641 C345 641 406 640 462 636 L479 636 L479 660 L66 660 L66 641 L69 605 L69 55 L66 19 L66 0 L504 0 L503 25 L486 25 L428 20 L101 20 Z M264 705 L366 844 C373 853 377 865 377 865 L347 865 L260 706 L260 705 L264 705 Z " />
<glyph glyph-name="Ecircumflex" unicode="&#xca;" horiz-adv-x="573" d="M101 330 C146 330 192 331 237 331 C283 331 328 330 370 327 L393 327 L393 353 C370 353 350 352 329 350 L102 350 L102 640 C162 640 223 641 284 641 C345 641 406 640 462 636 L479 636 L479 660 L66 660 L66 641 L69 605 L69 55 L66 19 L66 0 L504 0 L503 25 L486 25 L428 20 L101 20 L101 330 Z M134 706 L258 832 L387 706 L392 706 L264 864 L252 864 L252 862 L129 706 L134 706 Z " />
<glyph glyph-name="Edieresis" unicode="&#xcb;" horiz-adv-x="573" d="M66 660 L66 641 L69 605 L69 55 L66 19 L66 0 L504 0 L503 25 L486 25 L428 20 L101 20 L101 330 C146 330 192 331 237 331 C283 331 328 330 370 327 L393 327 L393 353 C370 353 350 352 329 350 L102 350 L102 640 C162 640 223 641 284 641 C345 641 406 640 462 636 L479 636 L479 660 L66 660 Z M348 755 C348 768 338 775 328 775 C318 775 308 768 308 755 C308 742 318 736 328 736 C338 736 348 742 348 755 L348 755 Z M168 755 C168 742 178 736 188 736 C198 736 208 742 208 755 C208 768 198 775 188 775 C178 775 168 768 168 755 L168 755 Z " />
<glyph glyph-name="Igrave" unicode="&#xcc;" horiz-adv-x="178" d="M70 641 L73 605 L73 55 L70 19 L70 0 L109 0 L109 19 L106 55 L106 605 L109 641 L109 660 L70 660 L70 641 Z M-12 843 L90 704 L94 704 L94 705 L7 864 L-23 864 C-23 864 -19 852 -12 843 L-12 843 Z " />
<glyph glyph-name="Iacute" unicode="&#xcd;" horiz-adv-x="178" d="M70 641 L73 605 L73 55 L70 19 L70 0 L109 0 L109 19 L106 55 L106 605 L109 641 L109 660 L70 660 L70 641 Z M96 705 L198 844 C205 853 209 865 209 865 L179 865 L92 706 L92 705 L96 705 Z " />
<glyph glyph-name="Icircumflex" unicode="&#xce;" horiz-adv-x="178" d="M70 641 L73 605 L73 55 L70 19 L70 0 L109 0 L109 19 L106 55 L106 605 L109 641 L109 660 L70 660 L70 641 Z M-34 706 L90 832 L219 706 L224 706 L96 864 L84 864 L-39 706 L-34 706 Z " />
<glyph glyph-name="Idieresis" unicode="&#xcf;" horiz-adv-x="178" d="M70 641 L73 605 L73 55 L70 19 L70 0 L109 0 L109 19 L106 55 L106 605 L109 641 L109 660 L70 660 L70 641 Z M180 755 C180 768 170 775 160 775 C150 775 140 768 140 755 C140 742 150 736 160 736 C170 736 180 742 180 755 L180 755 Z M40 755 C40 768 30 775 20 775 C10 775 0 768 0 755 C0 742 10 736 20 736 C30 736 40 742 40 755 L40 755 Z " />
<glyph glyph-name="Ntilde" unicode="&#xd1;" horiz-adv-x="641" d="M578 -4 L578 606 L581 642 L581 661 L547 661 L547 642 L551 606 L551 71 L92 661 L63 661 L67 605 L67 55 L64 19 L64 0 L97 0 L97 19 L93 55 L93 605 L567 -4 L578 -4 Z M193 727 L193 728 C207 766 222 791 273 791 C309 791 358 740 394 740 C451 740 469 774 488 825 L483 825 C469 785 454 759 403 759 C367 759 318 810 282 810 C225 810 206 777 188 727 L193 727 Z " />
<glyph glyph-name="Ograve" unicode="&#xd2;" horiz-adv-x="792" d="M70 334 C70 128 200 -10 396 -10 C592 -10 722 125 722 328 C722 533 592 670 396 670 C200 670 70 536 70 334 L70 334 Z M106 347 C106 530 219 652 389 652 C567 652 686 517 686 315 C686 131 573 9 404 9 C225 9 106 144 106 347 L106 347 Z M279 843 L381 704 L385 704 L385 705 L298 864 L268 864 C268 864 272 852 279 843 L279 843 Z " />
<glyph glyph-name="Oacute" unicode="&#xd3;" horiz-adv-x="792" d="M70 334 C70 128 200 -10 396 -10 C592 -10 722 125 722 328 C722 533 592 670 396 670 C200 670 70 536 70 334 L70 334 Z M106 347 C106 530 219 652 389 652 C567 652 686 517 686 315 C686 131 573 9 404 9 C225 9 106 144 106 347 L106 347 Z M387 705 L489 844 C496 853 500 865 500 865 L470 865 L383 706 L383 705 L387 705 Z " />
<glyph glyph-name="Ocircumflex" unicode="&#xd4;" horiz-adv-x="792" d="M70 334 C70 128 200 -10 396 -10 C592 -10 722 125 722 328 C722 533 592 670 396 670 C200 670 70 536 70 334 L70 334 Z M106 347 C106 530 219 652 389 652 C567 652 686 517 686 315 C686 131 573 9 404 9 C225 9 106 144 106 347 L106 347 Z M257 706 L381 832 L510 706 L515 706 L387 864 L375 864 L375 862 L252 706 L257 706 Z " />
<glyph glyph-name="Otilde" unicode="&#xd5;" horiz-adv-x="792" d="M722 328 C722 533 592 670 396 670 C200 670 70 536 70 334 C70 128 200 -10 396 -10 C592 -10 722 125 722 328 L722 328 Z M106 347 C106 530 219 652 389 652 C567 652 686 517 686 315 C686 131 573 9 404 9 C225 9 106 144 106 347 L106 347 Z M236 727 L236 728 C250 766 265 791 316 791 C352 791 401 740 437 740 C494 740 512 774 531 825 L526 825 C512 785 497 759 446 759 C410 759 361 810 325 810 C268 810 249 777 231 727 L236 727 Z " />
<glyph glyph-name="Odieresis" unicode="&#xd6;" horiz-adv-x="792" d="M396 -10 C592 -10 722 125 722 328 C722 533 592 670 396 670 C200 670 70 536 70 334 C70 128 200 -10 396 -10 L396 -10 Z M389 652 C567 652 686 517 686 315 C686 131 573 9 404 9 C225 9 106 144 106 347 C106 530 219 652 389 652 L389 652 Z M471 755 C471 768 461 775 451 775 C441 775 431 768 431 755 C431 742 441 736 451 736 C461 736 471 742 471 755 L471 755 Z M291 755 C291 742 301 736 311 736 C321 736 331 742 331 755 C331 768 321 775 311 775 C301 775 291 768 291 755 L291 755 Z " />
<glyph glyph-name="Oslash" unicode="&#xd8;" horiz-adv-x="792" d="M70 334 C70 232 102 146 158 86 L70 -10 L96 -10 L172 72 C228 19 305 -11 396 -11 C592 -11 722 124 722 327 C722 429 690 514 634 574 L722 670 L696 670 L620 588 C564 640 487 670 396 670 C200 670 70 536 70 334 L70 334 Z M106 347 C106 530 219 652 389 652 C475 652 547 620 599 564 L181 110 C133 169 106 250 106 347 L106 347 Z M194 94 L612 549 C659 491 686 410 686 314 C686 130 573 8 404 8 C318 8 246 39 194 94 L194 94 Z M599 564 L599 565 L599 564 Z " />
<glyph glyph-name="Ugrave" unicode="&#xd9;" horiz-adv-x="659" d="M82 234 C82 88 184 -10 337 -10 C490 -10 592 88 592 234 L592 605 L595 641 L595 660 L561 660 L561 641 C561 638 564 605 565 605 L566 226 C566 98 478 12 347 12 C208 12 115 103 115 240 L115 605 L118 641 L118 660 L79 660 L79 641 L82 605 L82 234 Z M245 843 L347 704 L351 704 L351 705 L264 864 L234 864 C234 864 238 852 245 843 L245 843 Z " />
<glyph glyph-name="Uacute" unicode="&#xda;" horiz-adv-x="659" d="M82 234 C82 88 184 -10 337 -10 C490 -10 592 88 592 234 L592 605 L595 641 L595 660 L561 660 L561 641 C561 638 564 605 565 605 L566 226 C566 98 478 12 347 12 C208 12 115 103 115 240 L115 605 L118 641 L118 660 L79 660 L79 641 L82 605 L82 234 Z M343 705 L445 844 C452 853 456 865 456 865 L426 865 L339 706 L339 705 L343 705 Z " />
<glyph glyph-name="Ucircumflex" unicode="&#xdb;" horiz-adv-x="659" d="M118 641 L118 660 L79 660 L79 641 L82 605 L82 234 C82 88 184 -10 337 -10 C490 -10 592 88 592 234 L592 605 L595 641 L595 660 L561 660 L561 641 C561 638 564 605 565 605 L566 226 C566 98 478 12 347 12 C208 12 115 103 115 240 L115 605 L118 641 Z M218 706 L223 706 L347 832 L476 706 L481 706 L353 864 L341 864 L218 706 Z " />
<glyph glyph-name="Udieresis" unicode="&#xdc;" horiz-adv-x="659" d="M79 660 L79 641 L82 605 L82 234 C82 88 184 -10 337 -10 C490 -10 592 88 592 234 L592 605 L595 641 L595 660 L561 660 L561 641 C561 638 564 605 565 605 L566 226 C566 98 478 12 347 12 C208 12 115 103 115 240 L115 605 L118 641 L118 660 L79 660 Z M397 755 C397 742 407 736 417 736 C427 736 437 742 437 755 C437 768 427 775 417 775 C407 775 397 768 397 755 L397 755 Z M257 755 C257 742 267 736 277 736 C287 736 297 742 297 755 C297 768 287 775 277 775 C267 775 257 768 257 755 L257 755 Z " />
<glyph glyph-name="Yacute" unicode="&#xdd;" horiz-adv-x="654" d="M583 650 C580 645 579 642 577 640 L552 605 L342 323 L87 641 C85 643 76 659 75 660 L34 660 C34 660 38 653 46 641 C47 641 47 640 48 639 L69 615 L317 302 L317 55 L314 19 L314 0 L354 0 L354 19 L351 55 L351 302 C437 416 521 533 608 646 C613 655 617 660 617 660 L588 660 L583 650 Z M333 705 L434 844 C441 853 445 865 445 865 L415 865 L328 706 L328 705 L333 705 Z " />
<glyph glyph-name="agrave" unicode="&#xe0;" horiz-adv-x="477" d="M369 70 L369 347 C369 415 323 460 235 460 C142 460 71 405 71 332 C71 326 74 322 79 322 L97 322 L102 327 L103 335 C103 397 156 443 227 443 C302 443 340 401 340 339 L340 257 C155 220 60 154 60 84 C60 28 106 -10 175 -10 C240 -10 302 15 340 63 C343 19 368 -10 403 -10 C430 -10 456 11 467 43 L466 45 C459 25 441 12 421 12 C390 12 369 35 369 70 L369 70 Z M339 244 L339 73 C306 33 250 13 190 13 C129 13 88 44 88 91 C88 153 173 211 339 244 L339 244 Z M134 684 L236 530 L240 530 L153 707 L123 707 C123 707 127 694 134 684 L134 684 Z " />
<glyph glyph-name="aacute" unicode="&#xe1;" horiz-adv-x="477" d="M369 347 C369 415 323 460 235 460 C142 460 71 405 71 332 C71 326 74 322 79 322 L97 322 L102 327 L103 335 C103 397 156 443 227 443 C302 443 340 401 340 339 L340 257 C155 220 60 154 60 84 C60 28 106 -10 175 -10 C240 -10 302 15 340 63 C343 19 368 -10 403 -10 C430 -10 456 11 467 43 L466 45 C459 25 441 12 421 12 C390 12 369 35 369 70 L369 347 Z M339 244 L339 73 C306 33 250 13 190 13 C129 13 88 44 88 91 C88 153 173 211 339 244 L339 244 Z M242 530 L344 684 C351 694 355 707 355 707 L325 707 L238 530 L242 530 Z " />
<glyph glyph-name="acircumflex" unicode="&#xe2;" horiz-adv-x="477" d="M369 70 L369 347 C369 415 323 460 235 460 C142 460 71 405 71 332 C71 326 74 322 79 322 L97 322 L102 327 L103 335 C103 397 156 443 227 443 C302 443 340 401 340 339 L340 257 C155 220 60 154 60 84 C60 28 106 -10 175 -10 C240 -10 302 15 340 63 C343 19 368 -10 403 -10 C430 -10 456 11 467 43 L466 45 C459 25 441 12 421 12 C390 12 369 35 369 70 L369 70 Z M88 91 C88 153 173 211 339 244 L339 73 C306 33 250 13 190 13 C129 13 88 44 88 91 L88 91 Z M107 530 L112 530 L236 669 L365 530 L370 530 L242 705 L230 705 L107 530 Z " />
<glyph glyph-name="atilde" unicode="&#xe3;" horiz-adv-x="477" d="M369 347 C369 415 323 460 235 460 C142 460 71 405 71 332 C71 326 74 322 79 322 L97 322 L102 327 L103 335 C103 397 156 443 227 443 C302 443 340 401 340 339 L340 257 C155 220 60 154 60 84 C60 28 106 -10 175 -10 C240 -10 302 15 340 63 C343 19 368 -10 403 -10 C430 -10 456 11 467 43 L466 45 C459 25 441 12 421 12 C390 12 369 35 369 70 L369 347 Z M339 244 L339 73 C306 33 250 13 190 13 C129 13 88 44 88 91 C88 153 173 211 339 244 L339 244 Z M76 555 C90 598 105 626 156 626 C192 626 241 569 277 569 C334 569 352 607 371 664 L366 664 C352 620 337 591 286 591 C250 591 201 648 165 648 C108 648 89 611 71 555 L76 555 Z " />
<glyph glyph-name="adieresis" unicode="&#xe4;" horiz-adv-x="477" d="M102 327 L103 335 C103 397 156 443 227 443 C302 443 340 401 340 339 L340 257 C155 220 60 154 60 84 C60 28 106 -10 175 -10 C240 -10 302 15 340 63 C343 19 368 -10 403 -10 C430 -10 456 11 467 43 L466 45 C459 25 441 12 421 12 C390 12 369 35 369 70 L369 347 C369 415 323 460 235 460 C142 460 71 405 71 332 C71 326 74 322 79 322 L97 322 L102 327 Z M88 91 C88 153 173 211 339 244 L339 73 C306 33 250 13 190 13 C129 13 88 44 88 91 L88 91 Z M271 590 C271 577 281 571 291 571 C301 571 311 577 311 590 C311 603 301 610 291 610 C281 610 271 603 271 590 L271 590 Z M131 590 C131 577 141 571 151 571 C161 571 171 577 171 590 C171 603 161 610 151 610 C141 610 131 603 131 590 L131 590 Z " />
<glyph glyph-name="aring" unicode="&#xe5;" horiz-adv-x="477" d="M369 347 C369 415 323 460 235 460 C142 460 71 405 71 332 C71 326 74 322 79 322 L97 322 L102 327 L103 335 C103 397 156 443 227 443 C302 443 340 401 340 339 L340 257 C155 220 60 154 60 84 C60 28 106 -10 175 -10 C240 -10 302 15 340 63 C343 19 368 -10 403 -10 C430 -10 456 11 467 43 L466 45 C459 25 441 12 421 12 C390 12 369 35 369 70 L369 347 Z M339 244 L339 73 C306 33 250 13 190 13 C129 13 88 44 88 91 C88 153 173 211 339 244 L339 244 Z M226 535 C268 535 304 570 304 611 C304 655 273 685 226 685 C179 685 148 655 148 610 C148 570 184 535 226 535 L226 535 Z M225 676 C261 676 285 649 285 608 C285 573 259 544 228 544 C195 544 167 576 167 613 C167 651 190 676 225 676 L225 676 Z " />
<glyph glyph-name="ccedilla" unicode="&#xe7;" horiz-adv-x="477" d="M432 381 L425 391 C394 442 337 460 280 460 C141 460 49 361 49 212 C49 80 131 -9 256 -11 C253 -18 231 -65 200 -133 L211 -138 C263 -154 298 -175 298 -189 C298 -214 282 -231 259 -231 C227 -231 195 -223 180 -212 L180 -216 C200 -231 234 -241 264 -241 C298 -241 321 -218 321 -183 C321 -161 281 -134 221 -115 C248 -56 267 -16 270 -10 C336 -6 400 35 432 96 L432 99 L429 99 C389 50 328 18 277 18 C158 18 79 102 79 229 C79 359 155 445 268 445 C315 445 361 424 385 393 L410 360 L432 381 Z " />
<glyph glyph-name="egrave" unicode="&#xe8;" horiz-adv-x="483" d="M51 212 C51 79 135 -10 262 -10 C331 -10 400 32 434 96 L434 99 L430 99 C390 50 329 18 278 18 C154 18 74 108 80 245 L421 245 L434 247 C434 375 365 460 262 460 C135 460 51 361 51 212 L51 212 Z M254 444 C342 444 402 372 407 262 L81 262 C92 372 159 444 254 444 L254 444 Z M150 684 L251 530 L256 530 L169 707 L139 707 C139 707 143 694 150 684 L150 684 Z " />
<glyph glyph-name="eacute" unicode="&#xe9;" horiz-adv-x="483" d="M51 212 C51 79 135 -10 262 -10 C331 -10 400 32 434 96 L434 99 L430 99 C390 50 329 18 278 18 C154 18 74 108 80 245 L421 245 L434 247 C434 375 365 460 262 460 C135 460 51 361 51 212 L51 212 Z M81 262 C92 372 159 444 254 444 C342 444 402 372 407 262 L81 262 Z M253 530 L258 530 L359 684 C366 694 370 707 370 707 L340 707 L253 530 Z " />
<glyph glyph-name="ecircumflex" unicode="&#xea;" horiz-adv-x="483" d="M262 -10 C331 -10 400 32 434 96 L434 99 L430 99 C390 50 329 18 278 18 C154 18 74 108 80 245 L421 245 L434 247 C434 375 365 460 262 460 C135 460 51 361 51 212 C51 79 135 -10 262 -10 L262 -10 Z M81 262 C92 372 159 444 254 444 C342 444 402 372 407 262 L81 262 Z M127 530 L252 669 L381 530 L385 530 L257 705 L246 705 L123 530 L127 530 Z " />
<glyph glyph-name="edieresis" unicode="&#xeb;" horiz-adv-x="483" d="M80 245 L421 245 L434 247 C434 375 365 460 262 460 C135 460 51 361 51 212 C51 79 135 -10 262 -10 C331 -10 400 32 434 96 L434 99 L430 99 C390 50 329 18 278 18 C154 18 74 108 80 245 L80 245 Z M254 444 C342 444 402 372 407 262 L81 262 C92 372 159 444 254 444 L254 444 Z M302 590 C302 577 312 571 322 571 C332 571 342 577 342 590 C342 603 332 610 322 610 C312 610 302 603 302 590 L302 590 Z M162 590 C162 577 172 571 182 571 C192 571 202 577 202 590 C202 603 192 610 182 610 C172 610 162 603 162 590 L162 590 Z " />
<glyph glyph-name="igrave" unicode="&#xec;" horiz-adv-x="141" d="M54 431 C55 391 56 364 56 364 L56 50 L54 18 L54 0 L88 0 L88 18 L86 50 L86 460 L80 460 C72 457 64 453 56 450 L54 449 L54 431 Z M66 530 L70 530 L-17 707 L-47 707 C-47 707 -43 694 -36 684 L66 530 Z " />
<glyph glyph-name="iacute" unicode="&#xed;" horiz-adv-x="141" d="M54 18 L54 0 L88 0 L88 18 L86 50 L86 460 L80 460 C72 457 64 453 56 450 L54 449 L54 431 C55 391 56 364 56 364 L56 50 L54 18 Z M72 530 L174 684 C181 694 185 707 185 707 L155 707 L68 530 L72 530 Z " />
<glyph glyph-name="icircumflex" unicode="&#xee;" horiz-adv-x="141" d="M54 0 L88 0 L88 18 L86 50 L86 460 L80 460 C72 457 64 453 56 450 L54 449 L54 431 C55 391 56 364 56 364 L56 50 L54 18 L54 0 Z M-58 530 L66 669 L195 530 L200 530 L72 705 L60 705 L-63 530 L-58 530 Z " />
<glyph glyph-name="idieresis" unicode="&#xef;" horiz-adv-x="141" d="M54 431 C55 391 56 364 56 364 L56 50 L54 18 L54 0 L88 0 L88 18 L86 50 L86 460 L80 460 C72 457 64 453 56 450 L54 449 L54 431 Z M156 590 C156 603 146 610 136 610 C126 610 116 603 116 590 C116 577 126 571 136 571 C146 571 156 577 156 590 L156 590 Z M16 590 C16 603 6 610 -4 610 C-14 610 -24 603 -24 590 C-24 577 -14 571 -4 571 C6 571 16 577 16 590 L16 590 Z " />
<glyph glyph-name="ntilde" unicode="&#xf1;" horiz-adv-x="451" d="M378 50 L375 18 L375 0 L411 0 L411 18 L409 50 L409 343 C409 413 348 460 257 460 C187 460 131 425 82 374 L82 381 C81 409 79 460 79 460 L73 460 L49 449 L49 431 C50 391 51 364 51 364 L51 50 L49 18 L49 0 L84 0 L84 18 L81 50 L81 363 C121 405 171 434 239 434 C322 434 377 391 377 326 C378 325 378 141 378 50 L378 50 Z M80 555 L85 555 C99 598 114 626 165 626 C202 626 250 569 287 569 C344 569 362 607 381 664 L376 664 C362 620 347 591 296 591 C259 591 211 648 174 648 C117 648 98 611 80 555 L80 555 Z " />
<glyph glyph-name="ograve" unicode="&#xf2;" horiz-adv-x="524" d="M50 225 C50 84 135 -10 262 -10 C402 -10 474 84 474 225 C474 366 389 460 262 460 C122 460 50 366 50 225 L50 225 Z M84 225 C84 356 143 444 257 444 C366 444 439 356 439 225 C439 94 381 6 267 6 C157 6 84 94 84 225 L84 225 Z M160 684 L262 530 L266 530 L179 707 L149 707 C149 707 153 694 160 684 L160 684 Z " />
<glyph glyph-name="oacute" unicode="&#xf3;" horiz-adv-x="524" d="M262 -10 C402 -10 474 84 474 225 C474 366 389 460 262 460 C122 460 50 366 50 225 C50 84 135 -10 262 -10 L262 -10 Z M84 225 C84 356 143 444 257 444 C366 444 439 356 439 225 C439 94 381 6 267 6 C157 6 84 94 84 225 L84 225 Z M268 530 L370 684 C377 694 381 707 381 707 L351 707 L264 530 L268 530 Z " />
<glyph glyph-name="ocircumflex" unicode="&#xf4;" horiz-adv-x="524" d="M50 225 C50 84 135 -10 262 -10 C402 -10 474 84 474 225 C474 366 389 460 262 460 C122 460 50 366 50 225 L50 225 Z M84 225 C84 356 143 444 257 444 C366 444 439 356 439 225 C439 94 381 6 267 6 C157 6 84 94 84 225 L84 225 Z M138 530 L262 669 L391 530 L396 530 L268 705 L256 705 L133 530 L138 530 Z " />
<glyph glyph-name="otilde" unicode="&#xf5;" horiz-adv-x="524" d="M50 225 C50 84 135 -10 262 -10 C402 -10 474 84 474 225 C474 366 389 460 262 460 C122 460 50 366 50 225 L50 225 Z M84 225 C84 356 143 444 257 444 C366 444 439 356 439 225 C439 94 381 6 267 6 C157 6 84 94 84 225 L84 225 Z M117 555 C131 598 146 626 197 626 C233 626 282 569 318 569 C375 569 393 607 412 664 L407 664 C393 620 378 591 327 591 C291 591 242 648 206 648 C149 648 130 611 112 555 L117 555 Z " />
<glyph glyph-name="odieresis" unicode="&#xf6;" horiz-adv-x="524" d="M262 -10 C402 -10 474 84 474 225 C474 366 389 460 262 460 C122 460 50 366 50 225 C50 84 135 -10 262 -10 L262 -10 Z M257 444 C366 444 439 356 439 225 C439 94 381 6 267 6 C157 6 84 94 84 225 C84 356 143 444 257 444 L257 444 Z M352 590 C352 603 342 610 332 610 C322 610 312 603 312 590 C312 577 322 571 332 571 C342 571 352 577 352 590 L352 590 Z M172 590 C172 577 182 571 192 571 C202 571 212 577 212 590 C212 603 202 610 192 610 C182 610 172 603 172 590 L172 590 Z " />
<glyph glyph-name="oslash" unicode="&#xf8;" horiz-adv-x="524" d="M404 407 C368 441 319 460 262 460 C122 460 50 366 50 225 C50 156 71 98 107 57 L50 -10 L75 -10 L120 43 C156 9 205 -10 262 -10 C402 -10 474 84 474 225 C474 294 453 352 417 393 L474 460 L449 460 L404 407 Z M400 370 C426 333 441 283 441 224 C441 93 383 5 269 5 C216 5 171 26 139 62 L400 370 Z M258 443 C310 443 355 422 387 386 L126 78 C100 115 85 165 85 224 C85 355 144 443 258 443 L258 443 Z " />
<glyph glyph-name="ugrave" unicode="&#xf9;" horiz-adv-x="413" d="M177 -10 C228 -10 294 22 356 83 L356 0 L388 0 L388 18 L385 50 L385 450 L353 450 L353 432 L356 400 L356 95 C304 44 243 17 194 17 C112 17 58 60 58 125 L58 450 L26 450 L26 432 L28 400 L28 107 C28 37 88 -10 177 -10 L177 -10 Z M100 684 L201 530 L206 530 L119 707 L89 707 C89 707 93 694 100 684 L100 684 Z " />
<glyph glyph-name="uacute" unicode="&#xfa;" horiz-adv-x="413" d="M177 -10 C228 -10 294 22 356 83 L356 0 L388 0 L388 18 L385 50 L385 450 L353 450 L353 432 L356 400 L356 95 C304 44 243 17 194 17 C112 17 58 60 58 125 L58 450 L26 450 L26 432 L28 400 L28 107 C28 37 88 -10 177 -10 L177 -10 Z M208 530 L309 684 C316 694 320 707 320 707 L290 707 L203 530 L208 530 Z " />
<glyph glyph-name="ucircumflex" unicode="&#xfb;" horiz-adv-x="413" d="M58 450 L26 450 L26 432 L28 400 L28 107 C28 37 88 -10 177 -10 C228 -10 294 22 356 83 L356 0 L388 0 L388 18 L385 50 L385 450 L353 450 L353 432 L356 400 L356 95 C304 44 243 17 194 17 C112 17 58 60 58 125 L58 450 Z M73 530 L77 530 L202 669 L331 530 L335 530 L207 705 L196 705 L73 530 Z " />
<glyph glyph-name="udieresis" unicode="&#xfc;" horiz-adv-x="413" d="M26 432 L28 400 L28 107 C28 37 88 -10 177 -10 C228 -10 294 22 356 83 L356 0 L388 0 L388 18 L385 50 L385 450 L353 450 L353 432 L356 400 L356 95 C304 44 243 17 194 17 C112 17 58 60 58 125 L58 450 L26 450 L26 432 Z M292 590 C292 603 282 610 272 610 C262 610 252 603 252 590 C252 577 262 571 272 571 C282 571 292 577 292 590 L292 590 Z M152 590 C152 603 142 610 132 610 C122 610 112 603 112 590 C112 577 122 571 132 571 C142 571 152 577 152 590 L152 590 Z " />
<glyph glyph-name="yacute" unicode="&#xfd;" horiz-adv-x="379" d="M25 -213 L25 -229 C25 -237 29 -240 38 -240 C101 -240 142 -199 184 -93 C255 81 323 258 396 430 C397 432 398 433 398 433 C401 443 403 449 403 449 L381 450 C379 439 378 435 377 431 L221 40 L22 431 C21 434 17 447 17 449 L-21 449 C-21 449 -19 442 -15 432 L1 405 L206 4 L170 -87 C135 -175 100 -209 43 -209 L29 -209 L25 -213 Z M198 530 L299 684 C306 694 310 707 310 707 L280 707 L193 530 L198 530 Z " />
<glyph glyph-name="ydieresis" unicode="&#xff;" horiz-adv-x="379" d="M22 431 C21 434 17 447 17 449 L-21 449 C-21 449 -19 442 -15 432 L1 405 L206 4 L170 -87 C135 -175 100 -209 43 -209 L29 -209 L25 -213 L25 -229 C25 -237 29 -240 38 -240 C101 -240 142 -199 184 -93 C255 81 323 258 396 430 C397 432 398 433 398 433 C401 443 403 449 403 449 L381 450 C379 439 378 435 377 431 L221 40 L22 431 Z M282 590 C282 603 272 610 262 610 C252 610 242 603 242 590 C242 577 252 571 262 571 C272 571 282 577 282 590 L282 590 Z M102 590 C102 577 112 571 122 571 C132 571 142 577 142 590 C142 603 132 610 122 610 C112 610 102 603 102 590 L102 590 Z " />
<glyph glyph-name="Amacron" unicode="&#x100;" horiz-adv-x="646" d="M609 2 C609 2 609 11 605 16 L591 45 L329 665 L312 665 C229 467 137 248 53 50 L37 18 C35 11 32 0 32 0 L61 0 C59 0 64 18 65 19 L77 50 C77 50 139 199 165 263 L463 263 L567 18 C567 16 570 2 570 2 L609 2 Z M313 619 L454 286 L174 286 C213 379 260 492 313 619 L313 619 Z M184 787 L184 768 L450 768 L450 787 L184 787 Z " />
<glyph glyph-name="amacron" unicode="&#x101;" horiz-adv-x="477" d="M369 70 L369 347 C369 415 323 460 235 460 C142 460 71 405 71 332 C71 326 74 322 79 322 L97 322 L102 327 L103 335 C103 397 156 443 227 443 C302 443 340 401 340 339 L340 257 C155 220 60 154 60 84 C60 28 106 -10 175 -10 C240 -10 302 15 340 63 C343 19 368 -10 403 -10 C430 -10 456 11 467 43 L466 45 C459 25 441 12 421 12 C390 12 369 35 369 70 L369 70 Z M339 244 L339 73 C306 33 250 13 190 13 C129 13 88 44 88 91 C88 153 173 211 339 244 L339 244 Z M359 598 L359 617 L93 617 L93 598 L359 598 Z " />
<glyph glyph-name="Abreve" unicode="&#x102;" horiz-adv-x="646" d="M609 2 C609 2 609 11 605 16 L591 45 L329 665 L312 665 C229 467 137 248 53 50 L37 18 C35 11 32 0 32 0 L61 0 C59 0 64 18 65 19 L77 50 C77 50 139 199 165 263 L463 263 L567 18 C567 16 570 2 570 2 L609 2 Z M313 619 L454 286 L174 286 C213 379 260 492 313 619 L313 619 Z M317 715 C385 715 423 747 452 828 L447 828 C424 763 387 738 317 738 C247 738 210 763 187 828 L187 827 L182 827 C211 746 249 715 317 715 L317 715 Z " />
<glyph glyph-name="abreve" unicode="&#x103;" horiz-adv-x="477" d="M369 70 L369 347 C369 415 323 460 235 460 C142 460 71 405 71 332 C71 326 74 322 79 322 L97 322 L102 327 L103 335 C103 397 156 443 227 443 C302 443 340 401 340 339 L340 257 C155 220 60 154 60 84 C60 28 106 -10 175 -10 C240 -10 302 15 340 63 C343 19 368 -10 403 -10 C430 -10 456 11 467 43 L466 45 C459 25 441 12 421 12 C390 12 369 35 369 70 L369 70 Z M339 244 L339 73 C306 33 250 13 190 13 C129 13 88 44 88 91 C88 153 173 211 339 244 L339 244 Z M91 665 C120 575 158 540 226 540 C294 540 332 575 361 665 L356 665 C333 593 296 565 226 565 C156 565 119 593 96 665 L91 665 Z " />
<glyph glyph-name="Cacute" unicode="&#x106;" horiz-adv-x="711" d="M105 327 C105 522 228 652 412 652 C456 652 500 645 536 633 C536 633 542 631 543 630 C560 620 582 606 599 596 C604 596 610 597 616 597 L615 622 C579 652 498 672 412 672 C207 672 70 530 70 317 C70 122 201 -8 398 -8 C486 -8 576 13 621 45 L621 43 L622 68 C616 68 611 69 606 69 C590 60 570 46 554 37 C509 20 452 10 398 10 C222 10 105 137 105 327 L105 327 Z M374 705 L475 844 C482 853 486 865 486 865 L456 865 L369 706 L369 705 L374 705 Z " />
<glyph glyph-name="cacute" unicode="&#x107;" horiz-adv-x="477" d="M49 211 C49 78 133 -11 260 -11 C329 -11 398 31 432 95 L432 98 L428 99 C388 50 327 18 276 18 C157 18 78 102 78 229 C78 359 154 445 267 445 C314 445 360 424 384 393 L409 360 L431 381 C431 382 429 385 425 390 C394 441 337 459 280 459 C141 459 49 360 49 211 L49 211 Z M263 530 L364 684 C371 694 375 707 375 707 L345 707 L258 530 L263 530 Z " />
<glyph glyph-name="Ccaron" unicode="&#x10c;" horiz-adv-x="711" d="M606 69 C590 60 570 46 554 37 C509 20 452 10 398 10 C222 10 105 137 105 327 C105 522 228 652 412 652 C456 652 500 645 536 633 C536 633 542 631 543 630 C560 620 582 606 599 596 C604 596 610 597 616 597 L615 622 C579 652 498 672 412 672 C207 672 70 530 70 317 C70 122 201 -8 398 -8 C486 -8 576 13 621 45 L621 43 L622 68 C616 68 611 69 606 69 L606 69 Z M259 868 L382 710 L393 710 L521 868 L516 868 L387 742 L263 868 L259 868 Z " />
<glyph glyph-name="ccaron" unicode="&#x10d;" horiz-adv-x="477" d="M78 229 C78 359 154 445 267 445 C314 445 360 424 384 393 L409 360 L431 381 C431 382 429 385 425 390 C394 441 337 459 280 459 C141 459 49 360 49 211 C49 78 133 -11 260 -11 C329 -11 398 31 432 95 L432 98 L428 99 C388 50 327 18 276 18 C157 18 78 102 78 229 L78 229 Z M251 535 L262 535 L390 710 L386 710 L257 571 L132 710 L128 710 L251 535 Z " />
<glyph glyph-name="Dcaron" unicode="&#x10e;" horiz-adv-x="684" d="M65 660 L65 641 L68 605 L68 55 L65 19 L65 0 L242 0 C465 8 614 129 614 354 C614 556 464 660 239 660 L65 660 Z M101 20 L101 640 L229 640 C439 640 579 538 579 341 C579 137 444 27 241 20 L101 20 Z M222 868 L345 712 L345 710 L357 710 L485 868 L480 868 L351 742 L227 868 L222 868 Z " />
<glyph glyph-name="dcaron" unicode="&#x10f;" horiz-adv-x="493" d="M413 60 C413 42 416 0 416 0 L445 0 L445 18 L442 50 L442 758 L436 758 L411 750 L412 734 C413 699 414 675 414 675 L414 436 C360 451 311 460 287 460 C144 460 48 355 48 198 C48 73 124 -10 238 -10 C309 -10 378 18 413 60 L413 60 Z M258 15 C149 15 76 92 76 207 C76 348 158 442 281 442 C281 442 333 427 413 404 L413 73 C382 38 322 15 258 15 L258 15 Z M526 563 L530 563 L582 754 C580 749 580 747 579 747 C579 747 578 750 576 750 L548 750 L526 563 Z " />
<glyph glyph-name="Emacron" unicode="&#x112;" horiz-adv-x="573" d="M66 660 L66 641 L69 605 L69 55 L66 19 L66 0 L504 0 L503 25 L486 25 L428 20 L101 20 L101 330 C146 330 192 331 237 331 C283 331 328 330 370 327 L393 327 L393 353 C370 353 350 352 329 350 L102 350 L102 640 C162 640 223 641 284 641 C345 641 406 640 462 636 L479 636 L479 660 L66 660 Z M391 768 L391 787 L125 787 L125 768 L391 768 Z " />
<glyph glyph-name="emacron" unicode="&#x113;" horiz-adv-x="483" d="M80 245 L421 245 L434 247 C434 375 365 460 262 460 C135 460 51 361 51 212 C51 79 135 -10 262 -10 C331 -10 400 32 434 96 L434 99 L430 99 C390 50 329 18 278 18 C154 18 74 108 80 245 L80 245 Z M254 444 C342 444 402 372 407 262 L81 262 C92 372 159 444 254 444 L254 444 Z M124 598 L390 598 L390 617 L124 617 L124 598 Z " />
<glyph glyph-name="Edot" unicode="&#x116;" horiz-adv-x="573" d="M66 0 L504 0 L503 25 L486 25 L428 20 L101 20 L101 330 C146 330 192 331 237 331 C283 331 328 330 370 327 L393 327 L393 353 C370 353 350 352 329 350 L102 350 L102 640 C162 640 223 641 284 641 C345 641 406 640 462 636 L479 636 L479 660 L66 660 L66 641 L69 605 L69 55 L66 19 L66 0 Z M241 747 C241 733 252 725 263 725 C274 725 285 733 285 747 C285 762 274 770 263 770 C252 770 241 762 241 747 L241 747 Z " />
<glyph glyph-name="edot" unicode="&#x117;" horiz-adv-x="483" d="M51 212 C51 79 135 -10 262 -10 C331 -10 400 32 434 96 L434 99 L430 99 C390 50 329 18 278 18 C154 18 74 108 80 245 L421 245 L434 247 C434 375 365 460 262 460 C135 460 51 361 51 212 L51 212 Z M81 262 C92 372 159 444 254 444 C342 444 402 372 407 262 L81 262 Z M239 605 C239 591 250 584 262 584 C273 584 284 591 284 605 C284 620 273 628 262 628 C250 628 239 620 239 605 L239 605 Z " />
<glyph glyph-name="Ecaron" unicode="&#x11a;" horiz-adv-x="573" d="M101 330 C146 330 192 331 237 331 C283 331 328 330 370 327 L393 327 L393 353 C370 353 350 352 329 350 L102 350 L102 640 C162 640 223 641 284 641 C345 641 406 640 462 636 L479 636 L479 660 L66 660 L66 641 L69 605 L69 55 L66 19 L66 0 L504 0 L503 25 L486 25 L428 20 L101 20 L101 330 Z M129 868 L252 710 L264 710 L392 868 L387 868 L258 742 L134 868 L129 868 Z " />
<glyph glyph-name="ecaron" unicode="&#x11b;" horiz-adv-x="483" d="M262 -10 C331 -10 400 32 434 96 L434 99 L430 99 C390 50 329 18 278 18 C154 18 74 108 80 245 L421 245 L434 247 C434 375 365 460 262 460 C135 460 51 361 51 212 C51 79 135 -10 262 -10 L262 -10 Z M81 262 C92 372 159 444 254 444 C342 444 402 372 407 262 L81 262 Z M246 535 L257 535 L385 710 L381 710 L252 571 L127 710 L123 710 L246 535 Z " />
<glyph glyph-name="Gbreve" unicode="&#x11e;" horiz-adv-x="699" d="M635 620 C599 650 514 670 422 670 C211 670 70 528 70 315 C70 120 201 -10 398 -10 C505 -10 604 24 647 75 L647 235 L650 271 L650 290 L611 290 L611 271 L614 235 L614 68 C575 34 495 12 408 12 C226 12 105 138 105 326 C105 521 232 651 422 651 C470 651 518 643 556 630 L563 627 C580 617 602 604 619 594 C624 594 630 595 636 595 L635 620 Z M263 827 C292 746 330 715 397 715 C465 715 503 747 532 828 L526 828 C503 763 466 738 397 738 C328 738 291 763 268 828 L268 827 L263 827 Z " />
<glyph glyph-name="gbreve" unicode="&#x11f;" horiz-adv-x="534" d="M321 449 C300 456 277 460 252 460 C138 460 80 396 80 301 C80 234 113 183 168 158 C116 141 81 111 81 80 C81 43 115 18 168 13 C110 0 72 -70 72 -122 C72 -193 136 -240 233 -240 C377 -240 473 -180 473 -89 C473 -13 429 38 315 38 L198 38 C144 38 108 60 108 92 C108 118 136 143 178 154 C200 146 225 141 252 141 C366 141 424 205 424 301 C424 360 398 407 353 434 L484 430 L484 450 L321 449 Z M188 12 L301 12 C405 12 446 -32 446 -97 C446 -177 362 -230 237 -230 C154 -230 99 -185 99 -118 C99 -59 135 12 188 12 L188 12 Z M249 445 C335 445 393 387 393 300 C393 213 346 155 256 155 C168 155 110 214 110 302 C110 388 157 445 249 445 L249 445 Z M387 665 C364 593 327 565 257 565 C187 565 150 593 127 665 L122 665 C151 575 189 540 257 540 C325 540 363 575 392 665 L387 665 Z " />
<glyph glyph-name="Itilde" unicode="&#x128;" horiz-adv-x="178" d="M70 641 L73 605 L73 55 L70 19 L70 0 L109 0 L109 19 L106 55 L106 605 L109 641 L109 660 L70 660 L70 641 Z M-60 705 L-55 705 C-41 748 -26 776 25 776 C61 776 110 719 146 719 C203 719 221 757 240 814 L235 814 C221 770 206 741 155 741 C119 741 70 798 34 798 C-23 798 -42 761 -60 705 L-60 705 Z " />
<glyph glyph-name="itilde" unicode="&#x129;" horiz-adv-x="141" d="M54 449 L54 431 C55 391 56 364 56 364 L56 50 L54 18 L54 0 L88 0 L88 18 L86 50 L86 460 L80 460 C72 457 64 453 56 450 L54 449 Z M-74 530 C-60 573 -45 601 6 601 C42 601 91 544 127 544 C184 544 202 582 221 639 L216 639 C202 595 187 566 136 566 C100 566 51 623 15 623 C-42 623 -61 586 -79 530 L-74 530 Z " />
<glyph glyph-name="Imacron" unicode="&#x12a;" horiz-adv-x="178" d="M70 0 L109 0 L109 19 L106 55 L106 605 L109 641 L109 660 L70 660 L70 641 L73 605 L73 55 L70 19 L70 0 Z M-43 787 L-43 768 L223 768 L223 787 L-43 787 Z " />
<glyph glyph-name="imacron" unicode="&#x12b;" horiz-adv-x="141" d="M54 0 L88 0 L88 18 L86 50 L86 460 L80 460 C72 457 64 453 56 450 L54 449 L54 431 C55 391 56 364 56 364 L56 50 L54 18 L54 0 Z M199 598 L199 617 L-67 617 L-67 598 L199 598 Z " />
<glyph glyph-name="Idot" unicode="&#x130;" horiz-adv-x="178" d="M70 641 L73 605 L73 55 L70 19 L70 0 L109 0 L109 19 L106 55 L106 605 L109 641 L109 660 L70 660 L70 641 Z M68 747 C68 733 79 725 90 725 C101 725 112 733 112 747 C112 762 101 770 90 770 C79 770 68 762 68 747 L68 747 Z " />
<glyph glyph-name="dotlessi" unicode="&#x131;" horiz-adv-x="141" d="M54 431 C55 391 56 364 56 364 L56 50 L54 18 L54 0 L88 0 L88 18 L86 50 L86 460 L80 460 C72 457 64 453 56 450 L54 449 L54 431 Z " />
<glyph glyph-name="Lacute" unicode="&#x139;" horiz-adv-x="553" d="M65 19 L65 0 L483 0 L483 26 L465 26 L403 20 L101 20 L101 605 L104 641 L104 660 L65 660 L65 641 L68 605 L68 55 L65 19 Z M71 705 L76 705 L177 844 C184 853 188 865 188 865 L158 865 L71 706 L71 705 Z " />
<glyph glyph-name="lacute" unicode="&#x13a;" horiz-adv-x="122" d="M44 731 C45 691 46 664 46 664 L46 50 L44 18 L44 0 L78 0 L78 18 L76 50 L76 760 L70 760 C62 757 54 753 46 750 L44 749 L44 731 Z M51 765 L158 904 C165 913 169 925 169 925 L138 925 L47 766 L47 765 L51 765 Z " />
<glyph glyph-name="Lcaron" unicode="&#x13d;" horiz-adv-x="553" d="M483 0 L483 26 L465 26 L403 20 L101 20 L101 605 L104 641 L104 660 L65 660 L65 641 L68 605 L68 55 L65 19 L65 0 L483 0 Z M401 473 L405 473 L456 660 C456 660 455 660 451 660 L423 660 L401 473 Z " />
<glyph glyph-name="lcaron" unicode="&#x13e;" horiz-adv-x="122" d="M44 18 L44 0 L78 0 L78 18 L76 50 L76 760 L70 760 C62 757 54 753 46 750 L44 749 L44 731 C45 691 46 664 46 664 L46 50 L44 18 Z M159 563 L163 563 L214 750 C214 750 213 750 209 750 L181 750 L159 563 Z " />
<glyph glyph-name="Nacute" unicode="&#x143;" horiz-adv-x="641" d="M67 55 L64 19 L64 0 L97 0 L97 19 L93 55 L93 605 L567 -4 L578 -4 L578 606 L581 642 L581 661 L547 661 L547 642 L551 606 L551 71 L92 661 L63 661 L67 605 L67 55 Z M339 705 L441 844 C448 853 452 865 452 865 L422 865 L335 706 L335 705 L339 705 Z " />
<glyph glyph-name="nacute" unicode="&#x144;" horiz-adv-x="451" d="M79 460 L73 460 L49 449 L49 431 C50 391 51 364 51 364 L51 50 L49 18 L49 0 L84 0 L84 18 L81 50 L81 363 C121 405 171 434 239 434 C322 434 377 391 377 326 C378 325 378 141 378 50 L375 18 L375 0 L411 0 L411 18 L409 50 L409 343 C409 413 348 460 257 460 C187 460 131 425 82 374 L82 381 C81 409 79 460 79 460 L79 460 Z M232 530 L237 530 L338 684 C345 694 349 707 349 707 L319 707 L232 530 Z " />
<glyph glyph-name="Ncaron" unicode="&#x147;" horiz-adv-x="641" d="M578 -4 L578 606 L581 642 L581 661 L547 661 L547 642 L551 606 L551 71 L92 661 L63 661 L67 605 L67 55 L64 19 L64 0 L97 0 L97 19 L93 55 L93 605 L567 -4 L578 -4 Z M204 868 L327 710 L339 710 L467 868 L462 868 L333 742 L209 868 L204 868 Z " />
<glyph glyph-name="ncaron" unicode="&#x148;" horiz-adv-x="451" d="M378 50 L375 18 L375 0 L411 0 L411 18 L409 50 L409 343 C409 413 348 460 257 460 C187 460 131 425 82 374 L82 381 L81 381 C80 409 79 460 79 460 L73 460 L49 449 L49 431 C50 391 51 364 51 364 L51 50 L49 18 L49 0 L84 0 L84 18 L81 50 L81 363 C121 405 171 434 239 434 C322 434 377 391 377 326 C378 325 378 141 378 50 L378 50 Z M225 535 L236 535 L364 710 L360 710 L231 571 L106 710 L102 710 L225 535 Z " />
<glyph glyph-name="Omacron" unicode="&#x14c;" horiz-adv-x="792" d="M70 334 C70 128 200 -10 396 -10 C592 -10 722 125 722 328 C722 533 592 670 396 670 C200 670 70 536 70 334 L70 334 Z M389 652 C567 652 686 517 686 315 C686 131 573 9 404 9 C225 9 106 144 106 347 C106 530 219 652 389 652 L389 652 Z M248 787 L248 768 L514 768 L514 787 L248 787 Z " />
<glyph glyph-name="omacron" unicode="&#x14d;" horiz-adv-x="524" d="M50 225 C50 84 135 -10 262 -10 C402 -10 474 84 474 225 C474 366 389 460 262 460 C122 460 50 366 50 225 L50 225 Z M257 444 C366 444 439 356 439 225 C439 94 381 6 267 6 C157 6 84 94 84 225 C84 356 143 444 257 444 L257 444 Z M129 617 L129 598 L395 598 L395 617 L129 617 Z " />
<glyph glyph-name="Racute" unicode="&#x154;" horiz-adv-x="520" d="M102 55 L102 320 L201 320 L463 0 L512 0 L463 50 C394 128 281 271 242 321 C336 333 447 398 447 491 C447 592 359 660 228 660 L66 660 L66 641 L69 605 L69 55 L66 19 L66 0 L105 0 L105 19 L102 55 Z M101 341 L101 641 C137 641 218 641 219 640 C334 640 410 580 410 489 C410 400 288 341 200 341 L101 341 Z M250 705 L352 844 C359 853 363 865 363 865 L333 865 L246 706 L246 705 L250 705 Z " />
<glyph glyph-name="racute" unicode="&#x155;" horiz-adv-x="257" d="M174 460 C150 460 118 420 82 359 L82 374 L81 374 C80 399 79 460 79 460 L73 460 L49 449 L49 431 C50 391 51 364 51 364 L51 50 L49 18 L49 0 L84 0 L84 18 L81 50 L81 347 C111 397 137 431 156 431 C170 431 190 427 206 420 C217 415 244 404 244 404 L251 404 C254 410 256 420 256 429 C256 441 196 460 175 460 L174 460 Z M156 530 L257 684 C264 694 268 707 268 707 L238 707 L151 530 L156 530 Z " />
<glyph glyph-name="Rcaron" unicode="&#x158;" horiz-adv-x="520" d="M512 0 L463 50 C394 128 281 271 242 321 C336 333 447 398 447 491 C447 592 359 660 228 660 L66 660 L66 641 L69 605 L69 55 L66 19 L66 0 L105 0 L105 19 L102 55 L102 320 L201 320 L463 0 L512 0 Z M101 641 C137 641 218 641 219 640 C334 640 410 580 410 489 C410 400 288 341 200 341 L101 341 L101 641 Z M388 868 L383 868 L254 742 L130 868 L125 868 L248 712 L248 710 L260 710 L388 868 Z " />
<glyph glyph-name="rcaron" unicode="&#x159;" horiz-adv-x="257" d="M174 460 C150 460 118 420 82 359 L82 374 L81 374 C80 399 79 460 79 460 L73 460 L49 449 L49 431 C50 391 51 364 51 364 L51 50 L49 18 L49 0 L84 0 L84 18 L81 50 L81 347 C111 397 137 431 156 431 C170 431 190 427 206 420 C217 415 244 404 244 404 L251 404 C254 410 256 420 256 429 C256 441 196 460 175 460 L174 460 Z M283 710 L279 710 L150 571 L25 710 L21 710 L144 535 L155 535 L283 710 Z " />
<glyph glyph-name="Sacute" unicode="&#x15a;" horiz-adv-x="500" d="M350 625 C361 611 377 593 388 579 C395 579 402 580 408 580 L406 623 C370 651 312 670 262 670 C157 670 87 600 87 496 C87 414 141 365 247 332 C357 298 413 249 413 169 C413 72 352 7 260 7 C231 7 183 20 132 42 L129 45 C117 62 101 84 89 101 C82 101 75 100 68 100 L71 40 C130 10 206 -10 260 -10 C371 -10 445 65 445 178 C445 269 387 322 273 357 C173 388 121 433 121 508 C121 594 176 652 259 652 C278 652 339 642 350 625 L350 625 Z M321 865 L234 706 L234 705 L238 705 L340 844 C347 853 351 865 351 865 L321 865 Z " />
<glyph glyph-name="sacute" unicode="&#x15b;" horiz-adv-x="405" d="M189 219 C268 185 309 150 309 102 C309 42 264 2 196 2 C196 2 175 3 175 4 C151 8 115 21 86 37 L74 43 L60 43 L60 23 C102 3 158 -10 198 -10 C280 -10 335 39 335 113 C335 169 293 209 212 243 C139 274 101 307 101 350 C101 408 140 446 199 446 C222 446 257 434 292 416 L303 411 L318 402 L319 421 C280 444 231 459 197 459 C124 459 75 411 75 338 C75 287 114 251 189 219 L189 219 Z M200 530 L302 684 C309 694 313 707 313 707 L283 707 L196 530 L200 530 Z " />
<glyph glyph-name="Scedilla" unicode="&#x15e;" horiz-adv-x="500" d="M323 -182 C323 -160 283 -131 221 -115 L220 -114 C248 -55 267 -16 270 -10 C376 -6 446 68 446 178 C446 269 388 322 274 357 C174 388 122 433 122 508 C122 594 177 652 260 652 C279 652 340 642 351 625 C362 611 378 593 389 579 C396 579 403 580 409 580 L407 623 C371 651 313 670 263 670 C158 670 88 600 88 496 C88 414 142 365 248 332 C358 298 414 249 414 169 C414 72 353 7 261 7 C232 7 184 20 133 42 L130 45 C118 62 102 84 90 101 C83 101 76 100 69 100 L72 40 C130 11 204 -9 258 -10 C255 -17 233 -64 202 -132 L213 -137 C265 -153 300 -174 300 -188 C300 -213 284 -230 261 -230 C229 -230 197 -222 182 -211 L182 -215 C202 -230 236 -240 266 -240 C300 -240 323 -217 323 -182 L323 -182 Z " />
<glyph glyph-name="scedilla" unicode="&#x15f;" horiz-adv-x="405" d="M337 114 C337 170 295 210 214 244 C141 275 103 308 103 351 C103 409 142 447 201 447 C231 447 291 420 320 403 L321 422 C282 445 233 460 199 460 C126 460 77 412 77 339 C77 288 116 252 191 220 C270 186 311 151 311 103 C311 43 266 3 198 3 C198 3 177 4 177 5 C153 9 117 22 88 38 L76 44 L62 44 L60 23 C101 4 155 -9 195 -10 C192 -17 170 -64 139 -132 L150 -137 C202 -153 237 -174 237 -188 C237 -213 221 -230 198 -230 C166 -230 134 -222 119 -211 L119 -215 C139 -230 173 -240 203 -240 C237 -240 260 -217 260 -182 C260 -160 220 -133 160 -114 C160 -114 206 -15 209 -9 C286 -5 337 43 337 114 L337 114 Z " />
<glyph glyph-name="Scaron" unicode="&#x160;" horiz-adv-x="500" d="M253 710 L381 868 L376 868 L247 742 L123 868 L118 868 L241 710 L253 710 Z M350 625 C361 611 377 593 388 579 C395 579 402 580 408 580 L406 623 C370 651 312 670 262 670 C157 670 87 600 87 496 C87 414 141 365 247 332 C357 298 413 249 413 169 C413 72 352 7 260 7 C231 7 183 20 132 42 C131 43 130 44 129 45 C117 62 101 84 89 101 C82 101 75 100 68 100 L71 40 C72 41 79 52 80 52 L72 40 C131 10 206 -10 260 -10 C371 -10 445 65 445 178 C445 269 387 322 273 357 C173 388 121 433 121 508 C121 594 176 652 259 652 C278 652 339 642 350 625 L350 625 Z " />
<glyph glyph-name="scaron" unicode="&#x161;" horiz-adv-x="405" d="M303 411 C308 409 313 405 318 402 L319 421 C280 444 231 459 197 459 C124 459 75 411 75 338 C75 287 114 251 189 219 C268 185 309 150 309 102 C309 42 264 2 196 2 C196 2 175 3 175 4 C151 8 115 21 86 37 L74 43 L60 43 L60 23 C102 3 158 -10 198 -10 C280 -10 335 39 335 113 C335 169 293 209 212 243 C139 274 101 307 101 350 C101 408 140 446 199 446 C222 446 292 416 294 415 L303 411 Z M323 710 L194 571 L70 710 L65 710 L188 535 L200 535 L328 710 L323 710 Z " />
<glyph glyph-name="Tcaron" unicode="&#x164;" horiz-adv-x="675" d="M125 640 L321 640 L321 55 L317 19 L317 0 L358 0 L358 19 L354 55 L354 640 L550 640 L612 635 L630 635 L630 660 L45 660 L45 635 L63 635 L125 640 Z M209 868 L332 710 L343 710 L471 868 L467 868 L338 742 L213 868 L209 868 Z " />
<glyph glyph-name="tcaron" unicode="&#x165;" horiz-adv-x="297" d="M18 435 L18 433 L94 433 L94 90 C94 30 127 -10 177 -10 C213 -10 249 16 267 54 L266 57 C253 29 227 11 199 11 C154 11 124 45 124 96 L123 433 L255 433 L255 450 L123 450 L123 541 L121 541 L94 450 L18 435 Z M210 563 L261 750 L228 750 L206 563 L210 563 Z " />
<glyph glyph-name="Utilde" unicode="&#x168;" horiz-adv-x="659" d="M118 641 L118 660 L79 660 L79 641 L82 605 L82 234 C82 88 184 -10 337 -10 C490 -10 592 88 592 234 L592 605 L595 641 L595 660 L561 660 L561 641 C561 638 564 605 565 605 L566 226 C566 98 478 12 347 12 C208 12 115 103 115 240 L115 605 L118 641 Z M192 705 C206 748 221 776 272 776 C308 776 357 719 393 719 C450 719 468 757 487 814 L482 814 C468 770 453 741 402 741 C366 741 317 798 281 798 C224 798 205 761 187 705 L192 705 Z " />
<glyph glyph-name="utilde" unicode="&#x169;" horiz-adv-x="413" d="M58 450 L26 450 L26 432 L28 400 L28 107 C28 37 88 -10 177 -10 C228 -10 294 22 356 83 L356 0 L388 0 L388 18 L385 50 L385 450 L353 450 L353 432 L356 400 L356 95 C304 44 243 17 194 17 C112 17 58 60 58 125 L58 450 Z M56 535 C70 578 85 606 136 606 C173 606 221 549 258 549 C315 549 333 587 352 644 L347 644 C333 600 318 571 267 571 C230 571 182 628 145 628 C88 628 69 591 51 535 L56 535 Z " />
<glyph glyph-name="Umacron" unicode="&#x16a;" horiz-adv-x="659" d="M82 605 L82 234 C82 88 184 -10 337 -10 C490 -10 592 88 592 234 L592 605 L595 641 L595 660 L561 660 L561 641 C561 638 564 605 565 605 L566 226 C566 98 478 12 347 12 C208 12 115 103 115 240 L115 605 L118 641 L118 660 L79 660 L79 641 L82 605 Z M214 787 L214 768 L480 768 L480 787 L214 787 Z " />
<glyph glyph-name="umacron" unicode="&#x16b;" horiz-adv-x="413" d="M26 432 L28 400 L28 107 C28 37 88 -10 177 -10 C228 -10 294 22 356 83 L356 0 L388 0 L388 18 L385 50 L385 450 L353 450 L353 432 L356 400 L356 95 C304 44 243 17 194 17 C112 17 58 60 58 125 L58 450 L26 450 L26 432 Z M69 598 L335 598 L335 617 L69 617 L69 598 Z " />
<glyph glyph-name="Uring" unicode="&#x16e;" horiz-adv-x="659" d="M566 226 C566 98 478 12 347 12 C208 12 115 103 115 240 L115 605 L118 641 L118 660 L79 660 L79 641 L82 605 L82 234 C82 88 184 -10 337 -10 C490 -10 592 88 592 234 L592 605 L595 641 L595 660 L561 660 L561 641 C561 638 564 605 565 605 L566 226 Z M342 710 C384 710 420 745 420 786 C420 830 389 860 342 860 C295 860 264 830 264 785 C264 745 300 710 342 710 L342 710 Z M283 788 C283 826 306 851 341 851 C377 851 401 824 401 783 C401 748 375 719 344 719 C311 719 283 751 283 788 L283 788 Z " />
<glyph glyph-name="uring" unicode="&#x16f;" horiz-adv-x="413" d="M388 0 L388 18 L385 50 L385 450 L353 450 L353 432 L356 400 L356 95 C304 44 243 17 194 17 C112 17 58 60 58 125 L58 450 L26 450 L26 432 L28 400 L28 107 C28 37 88 -10 177 -10 C228 -10 294 22 356 83 L356 0 L388 0 Z M202 535 C244 535 279 570 279 611 C279 655 248 685 202 685 C155 685 124 655 124 610 C124 570 160 535 202 535 L202 535 Z M201 676 C237 676 261 649 261 608 C261 573 234 544 203 544 C170 544 142 576 142 613 C142 651 166 676 201 676 L201 676 Z " />
<glyph glyph-name="Ydieresis" unicode="&#x178;" horiz-adv-x="654" d="M87 641 C85 643 76 659 75 660 L34 660 C34 660 38 653 46 641 C47 641 47 640 48 639 L69 615 L317 302 L317 55 L314 19 L314 0 L354 0 L354 19 L351 55 L351 302 C437 416 521 533 608 646 C613 655 617 660 617 660 L588 660 L583 650 C580 645 579 642 577 640 L552 605 L342 323 L87 641 Z M387 755 C387 742 397 736 407 736 C417 736 427 742 427 755 C427 768 417 775 407 775 C397 775 387 768 387 755 L387 755 Z M287 755 C287 768 277 775 267 775 C257 775 247 768 247 755 C247 742 257 736 267 736 C277 736 287 742 287 755 L287 755 Z " />
<glyph glyph-name="Zacute" unicode="&#x179;" horiz-adv-x="646" d="M101 0 L556 0 L556 25 L538 25 L476 20 L143 20 L526 640 L541 660 L113 660 L113 635 L131 635 L193 640 L491 640 L101 9 L101 0 Z M335 705 L436 844 C443 853 447 865 447 865 L417 865 L330 706 L330 705 L335 705 Z " />
<glyph glyph-name="zacute" unicode="&#x17a;" horiz-adv-x="480" d="M407 0 L407 21 L390 21 L357 17 L123 17 L379 433 L397 450 L92 450 L92 429 L109 429 L142 433 L344 433 C257 291 168 150 82 7 L82 0 L407 0 Z M248 530 L253 530 L354 684 C361 694 365 707 365 707 L335 707 L248 530 Z " />
<glyph glyph-name="Zdot" unicode="&#x17b;" horiz-adv-x="646" d="M556 0 L556 25 L538 25 L476 20 L143 20 L526 640 L541 660 L113 660 L113 635 L131 635 L193 640 L491 640 L101 9 L101 0 L556 0 Z M316 747 C316 733 327 726 339 726 C350 726 361 733 361 747 C361 762 350 770 339 770 C327 770 316 762 316 747 L316 747 Z " />
<glyph glyph-name="zdot" unicode="&#x17c;" horiz-adv-x="480" d="M82 7 L82 0 L407 0 L407 21 L390 21 L357 17 L123 17 L379 433 L397 450 L92 450 L92 429 L109 429 L142 433 L344 433 C257 291 168 150 82 7 L82 7 Z M229 605 C229 591 240 584 252 584 C263 584 274 591 274 605 C274 620 263 628 252 628 C240 628 229 620 229 605 L229 605 Z " />
<glyph glyph-name="Zcaron" unicode="&#x17d;" horiz-adv-x="646" d="M101 9 L101 0 L556 0 L556 25 L538 25 L476 20 L143 20 L526 640 L541 660 L113 660 L113 635 L131 635 L193 640 L491 640 L101 9 Z M215 868 L338 710 L349 710 L477 868 L473 868 L344 742 L219 868 L215 868 Z " />
<glyph glyph-name="zcaron" unicode="&#x17e;" horiz-adv-x="480" d="M82 7 L82 0 L407 0 L407 21 L390 21 L357 17 L123 17 L379 433 L397 450 L92 450 L92 429 L109 429 L142 433 L344 433 C257 291 168 150 82 7 L82 7 Z M118 710 L241 535 L252 535 L380 710 L376 710 L247 571 L122 710 L118 710 Z " />
<glyph glyph-name="oogonek" unicode="&#x1eb;" horiz-adv-x="731" d="M388 -9 C465 -38 554 -133 630 -133 C654 -133 677 -130 686 -125 L686 -120 C683 -122 669 -123 652 -123 C580 -123 495 -29 422 -6 C567 16 661 125 661 281 C661 457 543 575 366 575 C188 575 70 460 70 287 C70 111 186 -10 364 -10 C372 -10 380 -9 388 -9 L388 -9 Z M101 299 C101 456 204 560 359 560 C520 560 628 444 628 270 C628 113 525 8 371 8 C209 8 101 124 101 299 L101 299 Z " />
<glyph glyph-name="G_sc" unicode="&#x262;" horiz-adv-x="639" d="M364 -10 C455 -10 544 24 587 75 L587 193 L590 229 L590 248 L554 248 L554 229 L557 193 L557 67 C519 32 448 10 373 10 C210 10 101 118 101 281 C101 447 215 558 385 558 C424 558 463 551 496 539 C496 539 554 504 559 501 C564 501 570 502 576 502 L575 525 C539 555 463 575 385 575 C196 575 70 453 70 271 C70 102 188 -10 364 -10 L364 -10 Z " />
<glyph glyph-name="I_sc" unicode="&#x26a;" horiz-adv-x="175" d="M70 565 L70 546 L73 510 L73 55 L70 19 L70 0 L106 0 L106 19 L103 55 L103 510 L106 546 L106 565 L70 565 Z " />
<glyph glyph-name="N_sc" unicode="&#x274;" horiz-adv-x="580" d="M94 0 L94 19 L90 55 L90 516 L509 -5 L518 -5 L518 510 L521 546 L521 565 L490 565 L490 546 L494 510 L494 62 L90 565 L64 565 L64 546 L67 510 L67 55 L64 19 L64 0 L94 0 Z " />
<glyph glyph-name="R_sc" unicode="&#x280;" horiz-adv-x="458" d="M64 567 L64 548 L67 512 L67 57 L64 21 L64 2 L100 2 L100 21 L97 57 L97 275 L175 275 L405 2 L456 2 C362 84 290 180 212 277 C291 287 383 342 383 421 C383 509 310 567 201 567 L64 567 Z M97 548 C127 548 192 548 193 547 C288 547 351 495 351 418 C351 342 249 292 175 292 C175 292 145 293 97 293 L97 548 Z " />
<glyph glyph-name="Y_sc" unicode="&#x28f;" horiz-adv-x="594" d="M33 566 C33 566 41 556 52 542 L69 523 L287 261 L287 57 L284 21 L284 2 L320 2 L320 21 L317 57 L317 262 C386 350 455 439 525 527 L557 566 L530 566 C529 564 525 559 519 547 L309 279 L83 547 C82 548 71 566 71 566 L33 566 Z " />
<glyph glyph-name="B_sc" unicode="&#x299;" horiz-adv-x="504" d="M64 546 L67 510 L67 55 L64 19 L64 0 L205 0 C354 0 453 64 453 159 C453 236 387 290 260 302 L261 302 C345 322 396 369 396 432 C396 512 331 565 206 565 L64 565 L64 546 Z M212 286 C351 286 422 234 422 157 C422 74 335 18 205 18 L97 18 L97 286 L212 286 Z M200 546 C310 546 366 497 366 424 C366 356 295 309 186 304 L98 304 L98 547 C129 547 199 547 200 546 L200 546 Z " />
<glyph glyph-name="H_sc" unicode="&#x29c;" horiz-adv-x="581" d="M98 300 L98 510 L101 546 L101 565 L65 565 L65 546 L68 510 L68 55 L65 19 L65 0 L101 0 L101 19 L98 55 L98 282 L483 282 L483 55 L480 19 L480 0 L517 0 L517 19 L514 55 L514 510 L517 546 L517 565 L480 565 L480 546 L483 510 L483 300 L98 300 Z " />
<glyph glyph-name="L_sc" unicode="&#x29f;" horiz-adv-x="493" d="M65 19 L65 0 L423 0 L423 24 L405 24 L343 18 L98 18 L98 510 L101 546 L101 565 L65 565 L65 546 L68 510 L68 55 L65 19 Z " />
<glyph glyph-name="circumflex" unicode="&#x2c6;" horiz-adv-x="340" d="M41 530 L46 530 L170 669 L299 530 L304 530 L176 705 L164 705 L41 530 Z " />
<glyph glyph-name="caron" unicode="&#x2c7;" horiz-adv-x="340" d="M41 710 L164 535 L176 535 L304 710 L299 710 L170 571 L46 710 L41 710 Z " />
<glyph glyph-name="firsttonechinese" unicode="&#x2c9;" horiz-adv-x="340" d="M37 533 L303 533 L303 552 L37 552 L37 533 Z " />
<glyph glyph-name="breve" unicode="&#x2d8;" horiz-adv-x="340" d="M35 685 C64 595 102 560 170 560 C238 560 276 595 305 685 L300 685 C277 613 240 585 170 585 C100 585 63 613 40 685 L35 685 Z " />
<glyph glyph-name="dotaccent" unicode="&#x2d9;" horiz-adv-x="340" d="M150 630 C150 617 160 611 170 611 C180 611 190 617 190 630 C190 643 180 650 170 650 C160 650 150 643 150 630 L150 630 Z " />
<glyph glyph-name="ring" unicode="&#x2da;" horiz-adv-x="340" d="M170 530 C212 530 248 565 248 606 C248 650 217 680 170 680 C123 680 92 650 92 605 C92 565 128 530 170 530 L170 530 Z M111 608 C111 646 134 671 169 671 C205 671 229 644 229 603 C229 568 203 539 172 539 C139 539 111 571 111 608 L111 608 Z " />
<glyph glyph-name="A_sc" unicode="&#x1d00;" horiz-adv-x="585" d="M34 -3 L60 -3 L151 223 L419 223 L513 -2 L549 -2 C457 177 388 387 298 567 L284 567 L276 549 C198 371 119 172 34 -3 L34 -3 Z M286 527 L412 240 L161 240 C196 320 238 417 286 527 L286 527 Z " />
<glyph glyph-name="C_sc" unicode="&#x1d04;" horiz-adv-x="651" d="M71 270 C71 101 188 -11 363 -11 C437 -11 517 10 562 42 L561 43 L562 65 C556 65 551 66 546 66 C541 63 487 30 487 30 L487 31 C448 16 403 7 362 7 C205 7 101 117 101 281 C101 447 210 558 374 558 C409 558 445 551 477 539 C497 529 521 512 540 500 C545 500 551 501 557 501 L556 524 C520 554 448 574 375 574 C193 574 71 452 71 270 L71 270 Z " />
<glyph glyph-name="D_sc" unicode="&#x1d05;" horiz-adv-x="623" d="M65 19 L65 0 L223 0 C421 7 553 110 553 302 C553 476 420 565 220 565 L65 565 L65 546 L68 510 L68 55 L65 19 Z M98 547 L212 547 C397 547 521 460 521 291 C521 118 401 24 222 18 L98 18 L98 547 Z " />
<glyph glyph-name="E_sc" unicode="&#x1d07;" horiz-adv-x="513" d="M66 19 L66 0 L444 0 L443 23 L426 23 L368 18 L98 18 L98 282 C130 282 162 282 194 282 C234 282 273 282 310 279 L333 279 L333 303 C310 303 290 302 269 300 L99 300 L99 547 L344 547 L402 543 L419 543 L419 565 L66 565 L66 546 L69 510 L69 55 L66 19 Z " />
<glyph glyph-name="J_sc" unicode="&#x1d0a;" horiz-adv-x="175" d="M-12 -173 C57 -173 103 -58 103 115 L103 510 L106 546 L106 565 L70 565 L70 546 L73 510 L73 50 C73 -69 43 -149 -1 -149 C-1 -149 -13 -146 -20 -146 C-20 -148 -30 -173 -12 -173 L-12 -173 Z " />
<glyph glyph-name="K_sc" unicode="&#x1d0b;" horiz-adv-x="526" d="M69 55 L66 19 L66 0 L102 0 L102 19 L99 55 L99 288 L445 -1 L491 -1 C491 -1 485 4 475 13 C464 22 454 31 443 39 L129 298 C214 373 299 449 385 524 L416 550 L430 564 L393 564 C392 563 379 547 377 545 L99 288 L99 510 L102 546 L102 565 L66 565 L66 546 L69 510 L69 55 Z " />
<glyph glyph-name="M_sc" unicode="&#x1d0d;" horiz-adv-x="744" d="M66 54 L61 19 L61 0 L86 0 L86 55 L110 529 L364 -5 L379 -5 L631 525 L652 49 L651 19 L651 0 L684 0 L684 19 L680 55 L659 520 L659 565 L629 565 L378 35 L125 565 L90 565 L90 510 L66 54 Z " />
<glyph glyph-name="O_sc" unicode="&#x1d0f;" horiz-adv-x="731" d="M366 -10 C543 -10 661 106 661 281 C661 457 543 575 366 575 C188 575 70 460 70 287 C70 109 188 -10 366 -10 L366 -10 Z M102 298 C102 455 205 559 360 559 C521 559 629 443 629 269 C629 112 526 7 372 7 C210 7 102 123 102 298 L102 298 Z " />
<glyph glyph-name="P_sc" unicode="&#x1d18;" horiz-adv-x="503" d="M65 565 L65 546 L68 510 L68 55 L65 19 L65 0 L101 0 L101 19 L98 55 L98 266 L196 266 C338 266 433 326 433 415 C433 505 348 565 221 565 L65 565 Z M98 547 C132 547 213 547 214 546 C326 546 401 492 401 412 C401 335 322 284 203 284 L98 284 L98 547 Z " />
<glyph glyph-name="T_sc" unicode="&#x1d1b;" horiz-adv-x="615" d="M63 542 L125 547 L292 547 L292 55 L288 19 L288 0 L327 0 L327 19 L323 55 L323 547 L490 547 L552 542 L570 542 L570 565 L45 565 L45 542 L63 542 Z " />
<glyph glyph-name="U_sc" unicode="&#x1d1c;" horiz-adv-x="598" d="M79 546 L82 510 L82 200 C82 74 172 -10 307 -10 C441 -10 531 74 531 200 L531 510 L534 546 L534 565 L503 565 L503 546 C503 543 506 510 507 510 L508 193 C508 83 431 9 316 9 C194 9 112 88 112 206 L112 510 L115 546 L115 565 L79 565 L79 546 Z " />
<glyph glyph-name="V_sc" unicode="&#x1d20;" horiz-adv-x="582" d="M36 566 C36 566 214 169 289 -5 L303 -5 C385 185 466 375 547 565 L521 565 L302 42 L71 566 L36 566 Z " />
<glyph glyph-name="W_sc" unicode="&#x1d21;" horiz-adv-x="801" d="M228 -6 L232 -6 C288 163 347 331 404 499 C471 331 539 163 605 -6 L608 -6 L787 564 L760 564 L745 510 L608 63 L404 570 L402 570 C348 400 290 232 234 63 L53 564 L18 564 L228 -6 Z " />
<glyph glyph-name="Z_sc" unicode="&#x1d22;" horiz-adv-x="586" d="M496 0 L496 23 L478 23 L416 18 L139 18 L466 547 L481 565 L114 565 L114 542 L132 542 L194 547 L435 547 L102 8 L102 0 L496 0 Z " />
<glyph glyph-name="Etilde" unicode="&#x1ebc;" horiz-adv-x="573" d="M101 330 C146 330 192 331 237 331 C283 331 328 330 370 327 L393 327 L393 353 C370 353 350 352 329 350 L102 350 L102 640 C162 640 223 641 284 641 C345 641 406 640 462 636 L479 636 L479 660 L66 660 L66 641 L69 605 L69 55 L66 19 L66 0 L504 0 L503 25 L486 25 L428 20 L101 20 L101 330 Z M123 705 L128 705 C142 748 157 776 208 776 C244 776 293 719 329 719 C386 719 404 757 423 814 L418 814 C404 770 389 741 338 741 C302 741 253 798 217 798 C160 798 141 761 123 705 L123 705 Z " />
<glyph glyph-name="endash" unicode="&#x2013;" horiz-adv-x="500" d="M50 258 L450 258 L450 277 L50 277 L50 258 Z " />
<glyph glyph-name="emdash" unicode="&#x2014;" horiz-adv-x="1000" d="M50 258 L950 258 L950 277 L50 277 L50 258 Z " />
<glyph glyph-name="quoteleft" unicode="&#x2018;" horiz-adv-x="229" d="M73 652 C73 616 91 550 137 550 C142 550 145 552 149 561 L158 584 L158 590 L140 600 C117 608 102 638 102 675 C102 702 132 729 177 743 L177 750 C115 731 73 691 73 652 L73 652 Z " />
<glyph glyph-name="quoteright" unicode="&#x2019;" horiz-adv-x="229" d="M73 560 L73 553 C135 572 177 612 177 651 C177 687 159 753 113 753 C108 753 105 751 101 742 L92 719 L92 713 L110 703 C133 695 148 665 148 628 C148 601 118 574 73 560 L73 560 Z " />
<glyph glyph-name="quotedblleft" unicode="&#x201c;" horiz-adv-x="373" d="M137 550 C142 550 145 552 149 561 L159 584 L159 590 L141 600 C118 609 102 639 102 675 C102 702 132 743 178 743 L178 750 C115 750 73 692 73 652 C73 616 91 550 137 550 L137 550 Z M217 652 C217 616 235 550 281 550 C286 550 289 552 293 561 L302 584 L302 590 L284 600 C261 608 246 638 246 675 C246 702 276 743 321 743 L321 750 C259 750 217 691 217 652 L217 652 Z " />
<glyph glyph-name="quotedblright" unicode="&#x201d;" horiz-adv-x="373" d="M321 651 C321 687 303 753 257 753 C252 753 249 751 245 742 L235 719 L235 713 L253 703 C276 694 292 664 292 628 C292 601 262 574 216 560 L216 553 C279 572 321 611 321 651 L321 651 Z M177 651 C177 687 159 753 113 753 C108 753 105 751 101 742 L92 719 L92 713 L110 703 C133 695 148 665 148 628 C148 601 118 574 73 560 L73 553 C135 572 177 612 177 651 L177 651 Z " />
<glyph glyph-name="bullet" unicode="&#x2022;" horiz-adv-x="349" d="M130 226 C130 199 148 181 175 181 C201 181 219 199 219 226 C219 253 201 271 175 271 C148 271 130 253 130 226 L130 226 Z " />
<glyph glyph-name="ellipsis" unicode="&#x2026;" horiz-adv-x="499" d="M110 12 C110 27 99 35 87 35 C76 35 65 27 65 12 C65 -2 76 -9 87 -9 C99 -9 110 -2 110 12 L110 12 Z M272 12 C272 27 261 35 250 35 C238 35 227 27 227 12 C227 -2 238 -9 250 -9 C261 -9 272 -2 272 12 L272 12 Z M434 12 C434 27 423 35 412 35 C401 35 390 27 390 12 C390 -3 401 -10 412 -10 C423 -10 434 -3 434 12 L434 12 Z " />
<glyph glyph-name="guilsinglleft" unicode="&#x2039;" horiz-adv-x="244" d="M18 248 L218 70 L224 70 L68 248 L224 425 L218 425 L18 248 Z " />
<glyph glyph-name="guilsinglright" unicode="&#x203a;" horiz-adv-x="238" d="M26 70 L218 248 L26 425 L20 425 L168 248 L20 70 L26 70 Z " />
<glyph glyph-name="Euro" unicode="&#x20ac;" horiz-adv-x="499" d="M86 272 L10 272 L10 255 L87 255 C101 94 168 -10 311 -10 C373 -10 440 24 478 75 L478 84 L477 84 C445 41 386 12 331 12 C202 12 140 106 124 255 L359 255 L359 272 L123 272 C120 311 120 357 123 396 L360 396 L360 413 L125 413 C142 567 215 665 318 665 C368 665 421 623 442 579 C449 579 459 589 460 590 C466 593 461 601 458 607 C434 645 385 670 334 670 C206 670 114 570 90 413 L10 413 L10 396 L88 396 C83 358 83 313 86 272 L86 272 Z " />
<glyph glyph-name="F_sc" unicode="&#xa730;" horiz-adv-x="478" d="M66 565 L66 546 L69 510 L69 55 L66 19 L66 0 L102 0 L102 19 L99 55 L99 282 C131 282 163 282 195 282 C235 282 274 282 311 279 L334 279 L333 303 C310 303 290 302 269 300 L99 300 L99 547 L334 547 L392 543 L409 543 L409 565 L66 565 Z " />
<glyph glyph-name="S_sc" unicode="&#xa731;" horiz-adv-x="439" d="M72 39 C125 9 187 -11 229 -11 C321 -11 383 55 383 153 C383 222 335 268 242 306 C159 340 116 379 116 435 C116 509 160 558 226 558 C242 558 276 551 287 536 C298 521 315 501 326 486 L337 486 C340 486 344 487 347 487 L339 519 C314 556 267 575 229 575 C144 575 88 515 88 425 C88 362 133 320 219 285 C308 249 354 207 354 146 C354 62 304 6 230 6 C209 6 173 17 133 35 L130 38 C118 56 102 79 90 97 C83 97 76 96 69 96 L72 39 Z " />
<glyph glyph-name="X_sc" unicode="&#xf078;" horiz-adv-x="592" d="M85 0 L298 269 L503 20 C505 16 512 7 515 1 L557 1 C557 1 528 38 520 47 L321 288 C381 366 440 445 500 522 L523 551 C530 561 534 567 534 567 L512 567 C511 565 507 560 501 548 L479 518 L311 300 L106 549 C104 549 94 568 94 568 L54 565 C54 565 61 556 69 545 L95 515 L288 280 L60 0 L85 0 Z " />
</font>
</svg>
